G04 F_SilkS *
%FSLAX46Y46*%
%MOMM*%
%ADD10C,0.120000*%
%ADD11C,0.125000*%
G01*
D10*
X26876386Y19086557D02*
X27092058Y19086557D01*
D10*
X26876386Y19806557D02*
X27092058Y19806557D01*
D11*
X26912793Y18572271D02*
X26769936Y18715128D01*
X26484222Y18715128D01*
X26341365Y18572271D01*
X26341365Y18000843D01*
X26484222Y17857986D01*
X26769936Y17857986D01*
X26912793Y18000843D01*
D11*
X27341365Y18572271D02*
X27484222Y18715128D01*
X27484222Y17857986D01*
D11*
X27341365Y17857986D02*
X27627079Y17857986D01*
D10*
X24442173Y28150000D02*
X24657845Y28150000D01*
D10*
X24442173Y28870000D02*
X24657845Y28870000D01*
D11*
X24407152Y27635714D02*
X24264295Y27778571D01*
X23978581Y27778571D01*
X23835724Y27635714D01*
X23835724Y27064286D01*
X23978581Y26921429D01*
X24264295Y26921429D01*
X24407152Y27064286D01*
D11*
X24692866Y27635714D02*
X24835724Y27778571D01*
X25121438Y27778571D01*
X25264295Y27635714D01*
X25264295Y27492857D01*
X24692866Y26921429D01*
X25264295Y26921429D01*
D10*
X24442164Y19130000D02*
X24657836Y19130000D01*
D10*
X24442164Y19850000D02*
X24657836Y19850000D01*
D11*
X24407143Y18615714D02*
X24264286Y18758571D01*
X23978572Y18758571D01*
X23835715Y18615714D01*
X23835715Y18044286D01*
X23978572Y17901429D01*
X24264286Y17901429D01*
X24407143Y18044286D01*
D11*
X24692857Y18758571D02*
X25264286Y18758571D01*
X24978572Y18330000D01*
X25264286Y18187143D01*
X25264286Y18044286D01*
X25121429Y17901429D01*
X24835715Y17901429D01*
X24692857Y18044286D01*
D10*
X30698657Y28150000D02*
X30914329Y28150000D01*
D10*
X30698657Y28870000D02*
X30914329Y28870000D01*
D11*
X30663636Y27635714D02*
X30520779Y27778571D01*
X30235065Y27778571D01*
X30092208Y27635714D01*
X30092208Y27064286D01*
X30235065Y26921429D01*
X30520779Y26921429D01*
X30663636Y27064286D01*
D11*
X31377922Y26921429D02*
X31377922Y27778571D01*
X30949350Y27207143D01*
X31520779Y27207143D01*
D10*
X34303901Y22762389D02*
X34519573Y22762389D01*
D10*
X34303901Y23482389D02*
X34519573Y23482389D01*
D11*
X34268880Y22248103D02*
X34126023Y22390960D01*
X33840309Y22390960D01*
X33697452Y22248103D01*
X33697452Y21676675D01*
X33840309Y21533818D01*
X34126023Y21533818D01*
X34268880Y21676675D01*
D11*
X35126023Y22390960D02*
X34554594Y22390960D01*
X34554594Y21962389D01*
X34983166Y21962389D01*
X35126023Y21819532D01*
X35126023Y21676675D01*
X34983166Y21533818D01*
X34697452Y21533818D01*
X34554594Y21676675D01*
D10*
X33660669Y19756432D02*
X33876341Y19756432D01*
D10*
X33660669Y20476432D02*
X33876341Y20476432D01*
D11*
X33625648Y19242146D02*
X33482791Y19385003D01*
X33197077Y19385003D01*
X33054220Y19242146D01*
X33054220Y18670718D01*
X33197077Y18527861D01*
X33482791Y18527861D01*
X33625648Y18670718D01*
D11*
X34482791Y19242146D02*
X34339934Y19385003D01*
X34054220Y19385003D01*
X33911362Y19242146D01*
X33911362Y18670718D01*
X34054220Y18527861D01*
X34339934Y18527861D01*
X34482791Y18670718D01*
X34482791Y18813575D01*
X34339934Y18956432D01*
X33911362Y18956432D01*
D10*
X28878657Y28150000D02*
X29094329Y28150000D01*
D10*
X28878657Y28870000D02*
X29094329Y28870000D01*
D11*
X28843636Y27635714D02*
X28700779Y27778571D01*
X28415065Y27778571D01*
X28272208Y27635714D01*
X28272208Y27064286D01*
X28415065Y26921429D01*
X28700779Y26921429D01*
X28843636Y27064286D01*
D11*
X29129350Y27778571D02*
X29700779Y27778571D01*
X29272208Y26921429D01*
D10*
X33677769Y26796465D02*
X33893441Y26796465D01*
D10*
X33677769Y27516465D02*
X33893441Y27516465D01*
D11*
X33642748Y26282179D02*
X33499891Y26425036D01*
X33214177Y26425036D01*
X33071320Y26282179D01*
X33071320Y25710751D01*
X33214177Y25567894D01*
X33499891Y25567894D01*
X33642748Y25710751D01*
D11*
X34071320Y25996465D02*
X33928462Y26139322D01*
X33928462Y26282179D01*
X34071320Y26425036D01*
X34357034Y26425036D01*
X34499891Y26282179D01*
X34499891Y26139322D01*
X34357034Y25996465D01*
X34071320Y25996465D01*
D11*
X34357034Y25996465D02*
X34499891Y25853608D01*
X34499891Y25710751D01*
X34357034Y25567894D01*
X34071320Y25567894D01*
X33928462Y25710751D01*
X33928462Y25853608D01*
X34071320Y25996465D01*
D10*
X34331841Y23682389D02*
X34547513Y23682389D01*
D10*
X34331841Y24402389D02*
X34547513Y24402389D01*
D11*
X34296820Y23168103D02*
X34153963Y23310960D01*
X33868249Y23310960D01*
X33725392Y23168103D01*
X33725392Y22596675D01*
X33868249Y22453818D01*
X34153963Y22453818D01*
X34296820Y22596675D01*
D11*
X35153963Y23025246D02*
X35011106Y22882389D01*
X34725392Y22882389D01*
X34582534Y23025246D01*
X34582534Y23168103D01*
X34725392Y23310960D01*
X35011106Y23310960D01*
X35153963Y23168103D01*
X35153963Y23025246D01*
D11*
X35153963Y23025246D02*
X35153963Y22596675D01*
X35011106Y22453818D01*
X34725392Y22453818D01*
D10*
X34317688Y20676432D02*
X34533360Y20676432D01*
D10*
X34317688Y21396432D02*
X34533360Y21396432D01*
D11*
X33854095Y20162146D02*
X33711238Y20305003D01*
X33425524Y20305003D01*
X33282667Y20162146D01*
X33282667Y19590718D01*
X33425524Y19447861D01*
X33711238Y19447861D01*
X33854095Y19590718D01*
D11*
X34282667Y20162146D02*
X34425524Y20305003D01*
X34425524Y19447861D01*
D11*
X34282667Y19447861D02*
X34568381Y19447861D01*
D11*
X35139809Y19447861D02*
X34996952Y19590718D01*
X34996952Y20162146D01*
X35139809Y20305003D01*
X35425524Y20305003D01*
X35568381Y20162146D01*
X35568381Y19590718D01*
X35425524Y19447861D01*
X35139809Y19447861D01*
D11*
X35139809Y19590718D02*
X35425524Y20162146D01*
D10*
X29745961Y18210000D02*
X29961633Y18210000D01*
D10*
X29745961Y18930000D02*
X29961633Y18930000D01*
D11*
X29353797Y17695714D02*
X29210940Y17838571D01*
X28925226Y17838571D01*
X28782369Y17695714D01*
X28782369Y17124286D01*
X28925226Y16981429D01*
X29210940Y16981429D01*
X29353797Y17124286D01*
D11*
X29782369Y17695714D02*
X29925226Y17838571D01*
X29925226Y16981429D01*
D11*
X29782369Y16981429D02*
X30068083Y16981429D01*
D11*
X30639511Y17695714D02*
X30782369Y17838571D01*
X30782369Y16981429D01*
D11*
X30639511Y16981429D02*
X30925226Y16981429D01*
D10*
X30020669Y19130000D02*
X30236341Y19130000D01*
D10*
X30020669Y19850000D02*
X30236341Y19850000D01*
D11*
X29557076Y18615714D02*
X29414219Y18758571D01*
X29128505Y18758571D01*
X28985648Y18615714D01*
X28985648Y18044286D01*
X29128505Y17901429D01*
X29414219Y17901429D01*
X29557076Y18044286D01*
D11*
X29985648Y18615714D02*
X30128505Y18758571D01*
X30128505Y17901429D01*
D11*
X29985648Y17901429D02*
X30271362Y17901429D01*
D11*
X30699933Y18615714D02*
X30842790Y18758571D01*
X31128505Y18758571D01*
X31271362Y18615714D01*
X31271362Y18472857D01*
X30699933Y17901429D01*
X31271362Y17901429D01*
D10*
X34320915Y21596432D02*
X34536587Y21596432D01*
D10*
X34320915Y22316432D02*
X34536587Y22316432D01*
D11*
X33857322Y21082146D02*
X33714465Y21225003D01*
X33428751Y21225003D01*
X33285894Y21082146D01*
X33285894Y20510718D01*
X33428751Y20367861D01*
X33714465Y20367861D01*
X33857322Y20510718D01*
D11*
X34285894Y21082146D02*
X34428751Y21225003D01*
X34428751Y20367861D01*
D11*
X34285894Y20367861D02*
X34571608Y20367861D01*
D11*
X35000179Y21225003D02*
X35571608Y21225003D01*
X35285894Y20796432D01*
X35571608Y20653575D01*
X35571608Y20510718D01*
X35428751Y20367861D01*
X35143036Y20367861D01*
X35000179Y20510718D01*
D10*
X31840669Y19214951D02*
X32056341Y19214951D01*
D10*
X31840669Y19934951D02*
X32056341Y19934951D01*
D11*
X31377076Y18700665D02*
X31234219Y18843522D01*
X30948505Y18843522D01*
X30805648Y18700665D01*
X30805648Y18129237D01*
X30948505Y17986380D01*
X31234219Y17986380D01*
X31377076Y18129237D01*
D11*
X31805648Y18700665D02*
X31948505Y18843522D01*
X31948505Y17986380D01*
D11*
X31805648Y17986380D02*
X32091362Y17986380D01*
D11*
X32948505Y17986380D02*
X32948505Y18843522D01*
X32519933Y18272094D01*
X33091362Y18272094D01*
D10*
X9892164Y17640000D02*
X10107836Y17640000D01*
D10*
X9892164Y18360000D02*
X10107836Y18360000D01*
D11*
X9428571Y17125714D02*
X9285714Y17268571D01*
X9000000Y17268571D01*
X8857143Y17125714D01*
X8857143Y16554286D01*
X9000000Y16411429D01*
X9285714Y16411429D01*
X9428571Y16554286D01*
D11*
X9857143Y17125714D02*
X10000000Y17268571D01*
X10000000Y16411429D01*
D11*
X9857143Y16411429D02*
X10142857Y16411429D01*
D11*
X11142857Y17268571D02*
X10571428Y17268571D01*
X10571428Y16840000D01*
X11000000Y16840000D01*
X11142857Y16697143D01*
X11142857Y16554286D01*
X11000000Y16411429D01*
X10714285Y16411429D01*
X10571428Y16554286D01*
D10*
X17892164Y17640000D02*
X18107836Y17640000D01*
D10*
X17892164Y18360000D02*
X18107836Y18360000D01*
D11*
X17428571Y17125714D02*
X17285714Y17268571D01*
X17000000Y17268571D01*
X16857143Y17125714D01*
X16857143Y16554286D01*
X17000000Y16411429D01*
X17285714Y16411429D01*
X17428571Y16554286D01*
D11*
X17857143Y17125714D02*
X18000000Y17268571D01*
X18000000Y16411429D01*
D11*
X17857143Y16411429D02*
X18142857Y16411429D01*
D11*
X19142857Y17125714D02*
X19000000Y17268571D01*
X18714285Y17268571D01*
X18571428Y17125714D01*
X18571428Y16554286D01*
X18714285Y16411429D01*
X19000000Y16411429D01*
X19142857Y16554286D01*
X19142857Y16697143D01*
X19000000Y16840000D01*
X18571428Y16840000D01*
D10*
X14892164Y32640000D02*
X15107836Y32640000D01*
D10*
X14892164Y33360000D02*
X15107836Y33360000D01*
D11*
X14428571Y32125714D02*
X14285714Y32268571D01*
X14000000Y32268571D01*
X13857143Y32125714D01*
X13857143Y31554286D01*
X14000000Y31411429D01*
X14285714Y31411429D01*
X14428571Y31554286D01*
D11*
X14857143Y32125714D02*
X15000000Y32268571D01*
X15000000Y31411429D01*
D11*
X14857143Y31411429D02*
X15142857Y31411429D01*
D11*
X15571428Y32268571D02*
X16142857Y32268571D01*
X15714285Y31411429D01*
D10*
X20892164Y32640000D02*
X21107836Y32640000D01*
D10*
X20892164Y33360000D02*
X21107836Y33360000D01*
D11*
X20428571Y32125714D02*
X20285714Y32268571D01*
X20000000Y32268571D01*
X19857143Y32125714D01*
X19857143Y31554286D01*
X20000000Y31411429D01*
X20285714Y31411429D01*
X20428571Y31554286D01*
D11*
X20857143Y32125714D02*
X21000000Y32268571D01*
X21000000Y31411429D01*
D11*
X20857143Y31411429D02*
X21142857Y31411429D01*
D11*
X21714285Y31840000D02*
X21571428Y31982857D01*
X21571428Y32125714D01*
X21714285Y32268571D01*
X22000000Y32268571D01*
X22142857Y32125714D01*
X22142857Y31982857D01*
X22000000Y31840000D01*
X21714285Y31840000D01*
D11*
X22000000Y31840000D02*
X22142857Y31697143D01*
X22142857Y31554286D01*
X22000000Y31411429D01*
X21714285Y31411429D01*
X21571428Y31554286D01*
X21571428Y31697143D01*
X21714285Y31840000D01*
D10*
X38400000Y15150000D02*
X38400000Y13150000D01*
D10*
X38400000Y15150000D02*
X41600000Y15150000D01*
D10*
X38700000Y12850000D02*
X38400000Y13150000D01*
D10*
X38700000Y12850000D02*
X41600000Y12850000D01*
D10*
X41600000Y12850000D02*
X41600000Y15150000D01*
D10*
X390000Y5215000D02*
X1440000Y5215000D01*
D10*
X390000Y7715000D02*
X390000Y5215000D01*
D10*
X1440000Y5215000D02*
X1440000Y4225000D01*
D10*
X1560000Y9685000D02*
X4440000Y9685000D01*
D10*
X5610000Y5215000D02*
X4560000Y5215000D01*
D10*
X5610000Y7715000D02*
X5610000Y5215000D01*
D11*
X2071428Y3448571D02*
X2071428Y2734286D01*
X1928571Y2591429D01*
X1642857Y2591429D01*
X1500000Y2734286D01*
D11*
X2928571Y3305714D02*
X2785714Y3448571D01*
X2500000Y3448571D01*
X2357142Y3305714D01*
X2357142Y3162857D01*
X2500000Y3020000D01*
X2785714Y3020000D01*
X2928571Y2877143D01*
X2928571Y2734286D01*
X2785714Y2591429D01*
X2500000Y2591429D01*
X2357142Y2734286D01*
D11*
X3214285Y3448571D02*
X3785714Y3448571D01*
D11*
X3500000Y3448571D02*
X3500000Y2591429D01*
D11*
X4214285Y3305714D02*
X4357142Y3448571D01*
X4357142Y2591429D01*
D11*
X4214285Y2591429D02*
X4500000Y2591429D01*
D10*
X50390000Y33215000D02*
X51440000Y33215000D01*
D10*
X50390000Y35715000D02*
X50390000Y33215000D01*
D10*
X51440000Y33215000D02*
X51440000Y32225000D01*
D10*
X51560000Y37685000D02*
X54440000Y37685000D01*
D10*
X55610000Y33215000D02*
X54560000Y33215000D01*
D10*
X55610000Y35715000D02*
X55610000Y33215000D01*
D11*
X52000000Y31448571D02*
X52000000Y30734286D01*
X51857143Y30591429D01*
X51571429Y30591429D01*
X51428572Y30734286D01*
D11*
X52857143Y31305714D02*
X52714286Y31448571D01*
X52428572Y31448571D01*
X52285714Y31305714D01*
X52285714Y31162857D01*
X52428572Y31020000D01*
X52714286Y31020000D01*
X52857143Y30877143D01*
X52857143Y30734286D01*
X52714286Y30591429D01*
X52428572Y30591429D01*
X52285714Y30734286D01*
D11*
X53142857Y31448571D02*
X53714286Y31448571D01*
D11*
X53428572Y31448571D02*
X53428572Y30591429D01*
D11*
X54000000Y31305714D02*
X54142857Y31448571D01*
X54428572Y31448571D01*
X54571429Y31305714D01*
X54571429Y31162857D01*
X54000000Y30591429D01*
X54571429Y30591429D01*
D10*
X23300000Y1100000D02*
X23300000Y3100000D01*
D10*
X23300000Y5000000D02*
X23300000Y6900000D01*
D10*
X23300000Y6900000D02*
X32700000Y6900000D01*
D10*
X32700000Y1100000D02*
X32700000Y3100000D01*
D10*
X32700000Y5000000D02*
X32700000Y6900000D01*
D11*
X26500000Y-2216429D02*
X26500000Y-2930714D01*
X26642857Y-3073571D01*
X26928571Y-3073571D01*
X27071428Y-2930714D01*
X27071428Y-2216429D01*
D11*
X27928571Y-2359286D02*
X27785714Y-2216429D01*
X27500000Y-2216429D01*
X27357142Y-2359286D01*
X27357142Y-2502143D01*
X27500000Y-2645000D01*
X27785714Y-2645000D01*
X27928571Y-2787857D01*
X27928571Y-2930714D01*
X27785714Y-3073571D01*
X27500000Y-3073571D01*
X27357142Y-2930714D01*
D11*
X28214285Y-3073571D02*
X28214285Y-2216429D01*
X28642857Y-2216429D01*
X28785714Y-2359286D01*
X28785714Y-2502143D01*
X28642857Y-2645000D01*
X28214285Y-2645000D01*
D11*
X28642857Y-2645000D02*
X28785714Y-2787857D01*
X28785714Y-2930714D01*
X28642857Y-3073571D01*
X28214285Y-3073571D01*
D11*
X29214285Y-2359286D02*
X29357142Y-2216429D01*
X29357142Y-3073571D01*
D11*
X29214285Y-3073571D02*
X29500000Y-3073571D01*
D10*
X390000Y12215000D02*
X1440000Y12215000D01*
D10*
X390000Y14715000D02*
X390000Y12215000D01*
D10*
X1440000Y12215000D02*
X1440000Y11225000D01*
D10*
X1560000Y16685000D02*
X4440000Y16685000D01*
D10*
X5610000Y12215000D02*
X4560000Y12215000D01*
D10*
X5610000Y14715000D02*
X5610000Y12215000D01*
D11*
X2000000Y10448571D02*
X2000000Y9734286D01*
X1857143Y9591429D01*
X1571429Y9591429D01*
X1428572Y9734286D01*
D11*
X2857143Y10305714D02*
X2714286Y10448571D01*
X2428572Y10448571D01*
X2285714Y10305714D01*
X2285714Y10162857D01*
X2428572Y10020000D01*
X2714286Y10020000D01*
X2857143Y9877143D01*
X2857143Y9734286D01*
X2714286Y9591429D01*
X2428572Y9591429D01*
X2285714Y9734286D01*
D11*
X3142857Y10448571D02*
X3714286Y10448571D01*
D11*
X3428572Y10448571D02*
X3428572Y9591429D01*
D11*
X4000000Y10448571D02*
X4571429Y10448571D01*
X4285714Y10020000D01*
X4571429Y9877143D01*
X4571429Y9734286D01*
X4428572Y9591429D01*
X4142857Y9591429D01*
X4000000Y9734286D01*
D10*
X390000Y19215000D02*
X1440000Y19215000D01*
D10*
X390000Y21715000D02*
X390000Y19215000D01*
D10*
X1440000Y19215000D02*
X1440000Y18225000D01*
D10*
X1560000Y23685000D02*
X4440000Y23685000D01*
D10*
X5610000Y19215000D02*
X4560000Y19215000D01*
D10*
X5610000Y21715000D02*
X5610000Y19215000D01*
D11*
X2000000Y17448571D02*
X2000000Y16734286D01*
X1857143Y16591429D01*
X1571429Y16591429D01*
X1428572Y16734286D01*
D11*
X2857143Y17305714D02*
X2714286Y17448571D01*
X2428572Y17448571D01*
X2285714Y17305714D01*
X2285714Y17162857D01*
X2428572Y17020000D01*
X2714286Y17020000D01*
X2857143Y16877143D01*
X2857143Y16734286D01*
X2714286Y16591429D01*
X2428572Y16591429D01*
X2285714Y16734286D01*
D11*
X3142857Y17448571D02*
X3714286Y17448571D01*
D11*
X3428572Y17448571D02*
X3428572Y16591429D01*
D11*
X4428572Y16591429D02*
X4428572Y17448571D01*
X4000000Y16877143D01*
X4571429Y16877143D01*
D10*
X390000Y26215000D02*
X1440000Y26215000D01*
D10*
X390000Y28715000D02*
X390000Y26215000D01*
D10*
X1440000Y26215000D02*
X1440000Y25225000D01*
D10*
X1560000Y30685000D02*
X4440000Y30685000D01*
D10*
X5610000Y26215000D02*
X4560000Y26215000D01*
D10*
X5610000Y28715000D02*
X5610000Y26215000D01*
D11*
X2000000Y24448571D02*
X2000000Y23734286D01*
X1857143Y23591429D01*
X1571429Y23591429D01*
X1428572Y23734286D01*
D11*
X2857143Y24305714D02*
X2714286Y24448571D01*
X2428572Y24448571D01*
X2285714Y24305714D01*
X2285714Y24162857D01*
X2428572Y24020000D01*
X2714286Y24020000D01*
X2857143Y23877143D01*
X2857143Y23734286D01*
X2714286Y23591429D01*
X2428572Y23591429D01*
X2285714Y23734286D01*
D11*
X3142857Y24448571D02*
X3714286Y24448571D01*
D11*
X3428572Y24448571D02*
X3428572Y23591429D01*
D11*
X4571429Y24448571D02*
X4000000Y24448571D01*
X4000000Y24020000D01*
X4428572Y24020000D01*
X4571429Y23877143D01*
X4571429Y23734286D01*
X4428572Y23591429D01*
X4142857Y23591429D01*
X4000000Y23734286D01*
D10*
X390000Y33215000D02*
X1440000Y33215000D01*
D10*
X390000Y35715000D02*
X390000Y33215000D01*
D10*
X1440000Y33215000D02*
X1440000Y32225000D01*
D10*
X1560000Y37685000D02*
X4440000Y37685000D01*
D10*
X5610000Y33215000D02*
X4560000Y33215000D01*
D10*
X5610000Y35715000D02*
X5610000Y33215000D01*
D11*
X2000000Y31448571D02*
X2000000Y30734286D01*
X1857143Y30591429D01*
X1571429Y30591429D01*
X1428572Y30734286D01*
D11*
X2857143Y31305714D02*
X2714286Y31448571D01*
X2428572Y31448571D01*
X2285714Y31305714D01*
X2285714Y31162857D01*
X2428572Y31020000D01*
X2714286Y31020000D01*
X2857143Y30877143D01*
X2857143Y30734286D01*
X2714286Y30591429D01*
X2428572Y30591429D01*
X2285714Y30734286D01*
D11*
X3142857Y31448571D02*
X3714286Y31448571D01*
D11*
X3428572Y31448571D02*
X3428572Y30591429D01*
D11*
X4571429Y31305714D02*
X4428572Y31448571D01*
X4142857Y31448571D01*
X4000000Y31305714D01*
X4000000Y30734286D01*
X4142857Y30591429D01*
X4428572Y30591429D01*
X4571429Y30734286D01*
X4571429Y30877143D01*
X4428572Y31020000D01*
X4000000Y31020000D01*
D10*
X50390000Y5215000D02*
X51440000Y5215000D01*
D10*
X50390000Y7715000D02*
X50390000Y5215000D01*
D10*
X51440000Y5215000D02*
X51440000Y4225000D01*
D10*
X51560000Y9685000D02*
X54440000Y9685000D01*
D10*
X55610000Y5215000D02*
X54560000Y5215000D01*
D10*
X55610000Y7715000D02*
X55610000Y5215000D01*
D11*
X52000000Y3448571D02*
X52000000Y2734286D01*
X51857143Y2591429D01*
X51571429Y2591429D01*
X51428572Y2734286D01*
D11*
X52857143Y3305714D02*
X52714286Y3448571D01*
X52428572Y3448571D01*
X52285714Y3305714D01*
X52285714Y3162857D01*
X52428572Y3020000D01*
X52714286Y3020000D01*
X52857143Y2877143D01*
X52857143Y2734286D01*
X52714286Y2591429D01*
X52428572Y2591429D01*
X52285714Y2734286D01*
D11*
X53142857Y3448571D02*
X53714286Y3448571D01*
D11*
X53428572Y3448571D02*
X53428572Y2591429D01*
D11*
X54000000Y3448571D02*
X54571429Y3448571D01*
X54142857Y2591429D01*
D10*
X50390000Y12215000D02*
X51440000Y12215000D01*
D10*
X50390000Y14715000D02*
X50390000Y12215000D01*
D10*
X51440000Y12215000D02*
X51440000Y11225000D01*
D10*
X51560000Y16685000D02*
X54440000Y16685000D01*
D10*
X55610000Y12215000D02*
X54560000Y12215000D01*
D10*
X55610000Y14715000D02*
X55610000Y12215000D01*
D11*
X52000000Y10448571D02*
X52000000Y9734286D01*
X51857143Y9591429D01*
X51571429Y9591429D01*
X51428572Y9734286D01*
D11*
X52857143Y10305714D02*
X52714286Y10448571D01*
X52428572Y10448571D01*
X52285714Y10305714D01*
X52285714Y10162857D01*
X52428572Y10020000D01*
X52714286Y10020000D01*
X52857143Y9877143D01*
X52857143Y9734286D01*
X52714286Y9591429D01*
X52428572Y9591429D01*
X52285714Y9734286D01*
D11*
X53142857Y10448571D02*
X53714286Y10448571D01*
D11*
X53428572Y10448571D02*
X53428572Y9591429D01*
D11*
X54142857Y10020000D02*
X54000000Y10162857D01*
X54000000Y10305714D01*
X54142857Y10448571D01*
X54428572Y10448571D01*
X54571429Y10305714D01*
X54571429Y10162857D01*
X54428572Y10020000D01*
X54142857Y10020000D01*
D11*
X54428572Y10020000D02*
X54571429Y9877143D01*
X54571429Y9734286D01*
X54428572Y9591429D01*
X54142857Y9591429D01*
X54000000Y9734286D01*
X54000000Y9877143D01*
X54142857Y10020000D01*
D10*
X50390000Y19215000D02*
X51440000Y19215000D01*
D10*
X50390000Y21715000D02*
X50390000Y19215000D01*
D10*
X51440000Y19215000D02*
X51440000Y18225000D01*
D10*
X51560000Y23685000D02*
X54440000Y23685000D01*
D10*
X55610000Y19215000D02*
X54560000Y19215000D01*
D10*
X55610000Y21715000D02*
X55610000Y19215000D01*
D11*
X52000000Y17448571D02*
X52000000Y16734286D01*
X51857143Y16591429D01*
X51571429Y16591429D01*
X51428572Y16734286D01*
D11*
X52857143Y17305714D02*
X52714286Y17448571D01*
X52428572Y17448571D01*
X52285714Y17305714D01*
X52285714Y17162857D01*
X52428572Y17020000D01*
X52714286Y17020000D01*
X52857143Y16877143D01*
X52857143Y16734286D01*
X52714286Y16591429D01*
X52428572Y16591429D01*
X52285714Y16734286D01*
D11*
X53142857Y17448571D02*
X53714286Y17448571D01*
D11*
X53428572Y17448571D02*
X53428572Y16591429D01*
D11*
X54571429Y17162857D02*
X54428572Y17020000D01*
X54142857Y17020000D01*
X54000000Y17162857D01*
X54000000Y17305714D01*
X54142857Y17448571D01*
X54428572Y17448571D01*
X54571429Y17305714D01*
X54571429Y17162857D01*
D11*
X54571429Y17162857D02*
X54571429Y16734286D01*
X54428572Y16591429D01*
X54142857Y16591429D01*
D10*
X50390000Y26215000D02*
X51440000Y26215000D01*
D10*
X50390000Y28715000D02*
X50390000Y26215000D01*
D10*
X51440000Y26215000D02*
X51440000Y25225000D01*
D10*
X51560000Y30685000D02*
X54440000Y30685000D01*
D10*
X55610000Y26215000D02*
X54560000Y26215000D01*
D10*
X55610000Y28715000D02*
X55610000Y26215000D01*
D11*
X51571428Y24448571D02*
X51571428Y23734286D01*
X51428571Y23591429D01*
X51142857Y23591429D01*
X51000000Y23734286D01*
D11*
X52428571Y24305714D02*
X52285714Y24448571D01*
X52000000Y24448571D01*
X51857142Y24305714D01*
X51857142Y24162857D01*
X52000000Y24020000D01*
X52285714Y24020000D01*
X52428571Y23877143D01*
X52428571Y23734286D01*
X52285714Y23591429D01*
X52000000Y23591429D01*
X51857142Y23734286D01*
D11*
X52714285Y24448571D02*
X53285714Y24448571D01*
D11*
X53000000Y24448571D02*
X53000000Y23591429D01*
D11*
X53714285Y24305714D02*
X53857142Y24448571D01*
X53857142Y23591429D01*
D11*
X53714285Y23591429D02*
X54000000Y23591429D01*
D11*
X54571428Y23591429D02*
X54428571Y23734286D01*
X54428571Y24305714D01*
X54571428Y24448571D01*
X54857142Y24448571D01*
X55000000Y24305714D01*
X55000000Y23734286D01*
X54857142Y23591429D01*
X54571428Y23591429D01*
D11*
X54571428Y23734286D02*
X54857142Y24305714D01*
D10*
X21000000Y12900000D02*
X23000000Y12900000D01*
D10*
X21000000Y15100000D02*
X23000000Y15100000D01*
D11*
X21357143Y12428571D02*
X21357143Y11571429D01*
X21928571Y11571429D01*
D11*
X22357143Y12285714D02*
X22500000Y12428571D01*
X22500000Y11571429D01*
D11*
X22357143Y11571429D02*
X22642857Y11571429D01*
D10*
X23846359Y17620000D02*
X24153641Y17620000D01*
D10*
X23846359Y18380000D02*
X24153641Y18380000D01*
D11*
X23357143Y16401429D02*
X23357143Y17258571D01*
X23785714Y17258571D01*
X23928571Y17115714D01*
X23928571Y16972857D01*
X23785714Y16830000D01*
X23357143Y16830000D01*
D11*
X23642857Y16830000D02*
X23928571Y16401429D01*
D11*
X24357143Y17115714D02*
X24500000Y17258571D01*
X24500000Y16401429D01*
D11*
X24357143Y16401429D02*
X24642857Y16401429D01*
D10*
X43846359Y33620000D02*
X44153641Y33620000D01*
D10*
X43846359Y34380000D02*
X44153641Y34380000D01*
D11*
X43285715Y32401429D02*
X43285715Y33258571D01*
X43714286Y33258571D01*
X43857143Y33115714D01*
X43857143Y32972857D01*
X43714286Y32830000D01*
X43285715Y32830000D01*
D11*
X43571429Y32830000D02*
X43857143Y32401429D01*
D11*
X44142857Y33115714D02*
X44285715Y33258571D01*
X44571429Y33258571D01*
X44714286Y33115714D01*
X44714286Y32972857D01*
X44142857Y32401429D01*
X44714286Y32401429D01*
D10*
X21846359Y4620000D02*
X22153641Y4620000D01*
D10*
X21846359Y5380000D02*
X22153641Y5380000D01*
D11*
X21285715Y3401429D02*
X21285715Y4258571D01*
X21714286Y4258571D01*
X21857143Y4115714D01*
X21857143Y3972857D01*
X21714286Y3830000D01*
X21285715Y3830000D01*
D11*
X21571429Y3830000D02*
X21857143Y3401429D01*
D11*
X22142857Y4258571D02*
X22714286Y4258571D01*
X22428572Y3830000D01*
X22714286Y3687143D01*
X22714286Y3544286D01*
X22571429Y3401429D01*
X22285715Y3401429D01*
X22142857Y3544286D01*
D10*
X33846359Y4620000D02*
X34153641Y4620000D01*
D10*
X33846359Y5380000D02*
X34153641Y5380000D01*
D11*
X33285715Y3401429D02*
X33285715Y4258571D01*
X33714286Y4258571D01*
X33857143Y4115714D01*
X33857143Y3972857D01*
X33714286Y3830000D01*
X33285715Y3830000D01*
D11*
X33571429Y3830000D02*
X33857143Y3401429D01*
D11*
X34571429Y3401429D02*
X34571429Y4258571D01*
X34142857Y3687143D01*
X34714286Y3687143D01*
D10*
X30846359Y7620000D02*
X31153641Y7620000D01*
D10*
X30846359Y8380000D02*
X31153641Y8380000D01*
D11*
X30285715Y6401429D02*
X30285715Y7258571D01*
X30714286Y7258571D01*
X30857143Y7115714D01*
X30857143Y6972857D01*
X30714286Y6830000D01*
X30285715Y6830000D01*
D11*
X30571429Y6830000D02*
X30857143Y6401429D01*
D11*
X31714286Y7258571D02*
X31142857Y7258571D01*
X31142857Y6830000D01*
X31571429Y6830000D01*
X31714286Y6687143D01*
X31714286Y6544286D01*
X31571429Y6401429D01*
X31285715Y6401429D01*
X31142857Y6544286D01*
D10*
X24846359Y7620000D02*
X25153641Y7620000D01*
D10*
X24846359Y8380000D02*
X25153641Y8380000D01*
D11*
X24285715Y6401429D02*
X24285715Y7258571D01*
X24714286Y7258571D01*
X24857143Y7115714D01*
X24857143Y6972857D01*
X24714286Y6830000D01*
X24285715Y6830000D01*
D11*
X24571429Y6830000D02*
X24857143Y6401429D01*
D11*
X25714286Y7115714D02*
X25571429Y7258571D01*
X25285715Y7258571D01*
X25142857Y7115714D01*
X25142857Y6544286D01*
X25285715Y6401429D01*
X25571429Y6401429D01*
X25714286Y6544286D01*
X25714286Y6687143D01*
X25571429Y6830000D01*
X25142857Y6830000D01*
D10*
X15846359Y26620000D02*
X16153641Y26620000D01*
D10*
X15846359Y27380000D02*
X16153641Y27380000D01*
D11*
X15285715Y25401429D02*
X15285715Y26258571D01*
X15714286Y26258571D01*
X15857143Y26115714D01*
X15857143Y25972857D01*
X15714286Y25830000D01*
X15285715Y25830000D01*
D11*
X15571429Y25830000D02*
X15857143Y25401429D01*
D11*
X16142857Y26258571D02*
X16714286Y26258571D01*
X16285715Y25401429D01*
G36*
X37400000Y36600000D02*
X42600000Y36600000D01*
X42600000Y39600000D01*
X37400000Y39600000D01*
X37400000Y36600000D01*
G37*
G36*
X39100000Y40200000D02*
X40900000Y40200000D01*
X40900000Y39600000D01*
X39100000Y39600000D01*
X39100000Y40200000D01*
G37*
D11*
X38642857Y35528571D02*
X38071429Y35528571D01*
X38071429Y34671429D01*
X38642857Y34671429D01*
D11*
X38071429Y35100000D02*
X38500000Y35100000D01*
D11*
X38928571Y35528571D02*
X39214286Y34671429D01*
X39500000Y35528571D01*
D11*
X39928571Y34671429D02*
X39785714Y34814286D01*
X39785714Y35385714D01*
X39928571Y35528571D01*
X40214286Y35528571D01*
X40357143Y35385714D01*
X40357143Y34814286D01*
X40214286Y34671429D01*
X39928571Y34671429D01*
D11*
X40071429Y34957143D02*
X40357143Y34671429D01*
D11*
X40642857Y34671429D02*
X40642857Y35528571D01*
X41071429Y35528571D01*
X41214286Y35385714D01*
X41214286Y35242857D01*
X41071429Y35100000D01*
X40642857Y35100000D01*
D11*
X41642857Y35385714D02*
X41785714Y35528571D01*
X41785714Y34671429D01*
D11*
X41642857Y34671429D02*
X41928571Y34671429D01*
G36*
X13400000Y36600000D02*
X18600000Y36600000D01*
X18600000Y39600000D01*
X13400000Y39600000D01*
X13400000Y36600000D01*
G37*
G36*
X15100000Y40200000D02*
X16900000Y40200000D01*
X16900000Y39600000D01*
X15100000Y39600000D01*
X15100000Y40200000D01*
G37*
D11*
X14571428Y35528571D02*
X14000000Y35528571D01*
X14000000Y34671429D01*
X14571428Y34671429D01*
D11*
X14000000Y35100000D02*
X14428571Y35100000D01*
D11*
X14857142Y35528571D02*
X15142857Y34671429D01*
X15428571Y35528571D01*
D11*
X15857142Y34671429D02*
X15714285Y34814286D01*
X15714285Y35385714D01*
X15857142Y35528571D01*
X16142857Y35528571D01*
X16285714Y35385714D01*
X16285714Y34814286D01*
X16142857Y34671429D01*
X15857142Y34671429D01*
D11*
X16000000Y34957143D02*
X16285714Y34671429D01*
D11*
X16571428Y34671429D02*
X16571428Y35528571D01*
X17000000Y35528571D01*
X17142857Y35385714D01*
X17142857Y35242857D01*
X17000000Y35100000D01*
X16571428Y35100000D01*
D11*
X17428571Y35385714D02*
X17571428Y35528571D01*
X17857142Y35528571D01*
X18000000Y35385714D01*
X18000000Y35242857D01*
X17428571Y34671429D01*
X18000000Y34671429D01*
D10*
X24390000Y20390000D02*
X24840000Y20390000D01*
D10*
X24390000Y20840000D02*
X24390000Y20390000D01*
D10*
X24390000Y27610000D02*
X24390000Y27160000D01*
D10*
X24840000Y27610000D02*
X24390000Y27610000D01*
D10*
X31160000Y20390000D02*
X31610000Y20390000D01*
D10*
X31610000Y20390000D02*
X31610000Y20840000D01*
D10*
X31610000Y27160000D02*
X31610000Y27610000D01*
D10*
X31610000Y27610000D02*
X31160000Y27610000D01*
G36*
X23890000Y21200000D02*
X23560000Y21440000D01*
X23560000Y20960000D01*
X23890000Y21200000D01*
G37*
D11*
X26642857Y18771429D02*
X26500000Y18914286D01*
X26500000Y19485714D01*
X26642857Y19628571D01*
X26928571Y19628571D01*
X27071428Y19485714D01*
X27071428Y18914286D01*
X26928571Y18771429D01*
X26642857Y18771429D01*
D11*
X26785714Y19057143D02*
X27071428Y18771429D01*
D11*
X27928571Y19628571D02*
X27357142Y19628571D01*
X27357142Y18771429D01*
D11*
X27357142Y19200000D02*
X27785714Y19200000D01*
D11*
X28214285Y18771429D02*
X28214285Y19628571D01*
X28785714Y18771429D01*
X28785714Y19628571D01*
D11*
X29214285Y19485714D02*
X29357142Y19628571D01*
X29357142Y18771429D01*
D11*
X29214285Y18771429D02*
X29500000Y18771429D01*
D10*
X35940000Y27440000D02*
X40060000Y27440000D01*
D10*
X35940000Y27535000D02*
X35940000Y27440000D01*
D10*
X35940000Y32560000D02*
X35940000Y32465000D01*
D10*
X40060000Y27440000D02*
X40060000Y27535000D01*
D10*
X40060000Y32465000D02*
X40060000Y32560000D01*
D10*
X40060000Y32560000D02*
X35940000Y32560000D01*
G36*
X35400000Y27530000D02*
X35160000Y27200000D01*
X35640000Y27200000D01*
X35400000Y27530000D01*
G37*
D11*
X36642857Y26885714D02*
X36500000Y27028571D01*
X36214286Y27028571D01*
X36071429Y26885714D01*
X36071429Y26742857D01*
X36214286Y26600000D01*
X36500000Y26600000D01*
X36642857Y26457143D01*
X36642857Y26314286D01*
X36500000Y26171429D01*
X36214286Y26171429D01*
X36071429Y26314286D01*
D11*
X37071429Y26171429D02*
X36928571Y26314286D01*
X36928571Y26885714D01*
X37071429Y27028571D01*
X37357143Y27028571D01*
X37500000Y26885714D01*
X37500000Y26314286D01*
X37357143Y26171429D01*
X37071429Y26171429D01*
D11*
X37785714Y27028571D02*
X38357143Y27028571D01*
D11*
X38071429Y27028571D02*
X38071429Y26171429D01*
D11*
X37785714Y26171429D02*
X38357143Y26171429D01*
D11*
X39214286Y26885714D02*
X39071429Y27028571D01*
X38785714Y27028571D01*
X38642857Y26885714D01*
X38642857Y26314286D01*
X38785714Y26171429D01*
X39071429Y26171429D01*
X39214286Y26314286D01*
D11*
X39642857Y26885714D02*
X39785714Y27028571D01*
X39785714Y26171429D01*
D11*
X39642857Y26171429D02*
X39928571Y26171429D01*
D10*
X13090000Y12440000D02*
X14910000Y12440000D01*
D10*
X13090000Y12490000D02*
X13090000Y12440000D01*
D10*
X13090000Y15560000D02*
X13090000Y15510000D01*
D10*
X14910000Y12440000D02*
X14910000Y12490000D01*
D10*
X14910000Y13610000D02*
X14910000Y14390000D01*
D10*
X14910000Y15510000D02*
X14910000Y15560000D01*
D10*
X14910000Y15560000D02*
X13090000Y15560000D01*
G36*
X12550000Y12490000D02*
X12310000Y12160000D01*
X12790000Y12160000D01*
X12550000Y12490000D01*
G37*
D11*
X13071428Y11885714D02*
X12928571Y12028571D01*
X12642857Y12028571D01*
X12500000Y11885714D01*
X12500000Y11742857D01*
X12642857Y11600000D01*
X12928571Y11600000D01*
X13071428Y11457143D01*
X13071428Y11314286D01*
X12928571Y11171429D01*
X12642857Y11171429D01*
X12500000Y11314286D01*
D11*
X13500000Y11171429D02*
X13357142Y11314286D01*
X13357142Y11885714D01*
X13500000Y12028571D01*
X13785714Y12028571D01*
X13928571Y11885714D01*
X13928571Y11314286D01*
X13785714Y11171429D01*
X13500000Y11171429D01*
D11*
X14214285Y12028571D02*
X14785714Y12028571D01*
D11*
X14500000Y12028571D02*
X14500000Y11171429D01*
D11*
X15214285Y11885714D02*
X15357142Y12028571D01*
X15357142Y11171429D01*
D11*
X15214285Y11171429D02*
X15500000Y11171429D01*
D10*
X15940000Y28290000D02*
X15940000Y31710000D01*
D10*
X15940000Y31710000D02*
X20060000Y31710000D01*
D11*
X15357143Y27835714D02*
X15214286Y27978571D01*
X14928572Y27978571D01*
X14785715Y27835714D01*
X14785715Y27264286D01*
X14928572Y27121429D01*
X15214286Y27121429D01*
X15357143Y27264286D01*
D11*
X15642857Y27121429D02*
X15642857Y27978571D01*
X16071429Y27978571D01*
X16214286Y27835714D01*
X16214286Y27692857D01*
X16071429Y27550000D01*
X15642857Y27550000D01*
D11*
X15928572Y27550000D02*
X16214286Y27121429D01*
D11*
X16500000Y27978571D02*
X16785715Y27550000D01*
X17071429Y27978571D01*
D11*
X16785715Y27550000D02*
X16785715Y27121429D01*
D11*
X17928572Y27835714D02*
X17785715Y27978571D01*
X17500000Y27978571D01*
X17357143Y27835714D01*
X17357143Y27692857D01*
X17500000Y27550000D01*
X17785715Y27550000D01*
X17928572Y27407143D01*
X17928572Y27264286D01*
X17785715Y27121429D01*
X17500000Y27121429D01*
X17357143Y27264286D01*
D11*
X18214286Y27978571D02*
X18785715Y27978571D01*
D11*
X18500000Y27978571D02*
X18500000Y27121429D01*
D11*
X19071429Y27121429D02*
X19357143Y27978571D01*
X19642857Y27121429D01*
D11*
X19214286Y27550000D02*
X19500000Y27550000D01*
D11*
X19928572Y27978571D02*
X19928572Y27121429D01*
X20500000Y27121429D01*
D11*
X20928572Y27835714D02*
X21071429Y27978571D01*
X21071429Y27121429D01*
D11*
X20928572Y27121429D02*
X21214286Y27121429D01*
M02*
