G04 B_Cu *
%FSLAX46Y46*%
%MOMM*%
%ADD10C,0.150000*%
%ADD11C,0.300000*%
%ADD12C,0.500000*%
%ADD13O,1.000000X2.100000*%
G01*
D10*
X23850000Y20700000D02*
X23850000Y27900000D01*
X23400000Y27900000D01*
X23400000Y29250000D01*
X30150000Y29250000D01*
X30150000Y28350000D01*
X30326493Y28510000D01*
D10*
X30150000Y28350000D02*
X30150000Y27900000D01*
X31500000Y27900000D01*
X31500000Y27450000D01*
X31950000Y27450000D01*
X31950000Y22950000D01*
X33750000Y22950000D01*
X33931737Y23122389D01*
D10*
X23850000Y20700000D02*
X22500000Y20700000D01*
X22500000Y13950000D01*
X22675000Y14000000D01*
D10*
X27900000Y29250000D02*
X27900000Y27900000D01*
X28350000Y27900000D01*
X28350000Y27450000D01*
X28000000Y27450000D01*
D10*
X31950000Y23400000D02*
X31500000Y23400000D01*
X31450000Y23600000D01*
D10*
X22500000Y18900000D02*
X28350000Y18900000D01*
X28350000Y19800000D01*
X29250000Y19800000D01*
X29250000Y20250000D01*
X29200000Y20550000D01*
D10*
X31500000Y23400000D02*
X25200000Y23400000D01*
X24550000Y23200000D01*
D10*
X22950000Y17100000D02*
X22950000Y18450000D01*
X28800000Y18450000D01*
X28800000Y19350000D01*
D11*
X23850000Y20700000D03*
D11*
X22950000Y17100000D03*
D11*
X28800000Y19350000D03*
D13*
X23680000Y-130000D03*
D12*
X26550000Y22550000D03*
M02*
