G04 B_Cu *
%FSLAX46Y46*%
%MOMM*%
%ADD10C,0.150000*%
%ADD11C,0.300000*%
%ADD12C,0.500000*%
%ADD13R,0.200000X0.800000*%
%ADD14R,0.300000X1.450000*%
%ADD15R,0.540000X0.640000*%
%ADD16R,0.560000X0.620000*%
%ADD17R,0.600000X1.450000*%
%ADD18R,0.600000X1.550000*%
%ADD19R,0.650000X2.000000*%
%ADD20R,0.700000X0.700000*%
%ADD21R,0.800000X0.200000*%
%ADD22R,1.200000X1.800000*%
%ADD23R,1.325000X0.600000*%
%ADD24R,1.400000X1.050000*%
%ADD25R,1.400000X1.200000*%
%ADD26R,1.950000X0.600000*%
%ADD27O,1.000000X2.100000*%
G01*
D10*
X28800000Y26550000D02*
X28800000Y27000000D01*
X28350000Y27000000D01*
X28350000Y27900000D01*
X30600000Y27900000D01*
X30511412Y27223165D01*
D10*
X30600000Y27900000D02*
X31950000Y27900000D01*
X31950000Y22950000D01*
X33750000Y22950000D01*
X33963868Y23408288D01*
D10*
X28350000Y27900000D02*
X25650000Y27900000D01*
X25650000Y28350000D01*
X22500000Y28350000D01*
X22500000Y13950000D01*
X22675000Y14000000D01*
D10*
X28350000Y27450000D02*
X28000000Y27450000D01*
D10*
X31950000Y23400000D02*
X31500000Y23400000D01*
X31450000Y23600000D01*
D10*
X26550000Y23400000D02*
X25200000Y23400000D01*
X24550000Y23200000D01*
D10*
X22500000Y19800000D02*
X29250000Y19800000D01*
X29250000Y20250000D01*
X29200000Y20550000D01*
D10*
X23400000Y21600000D02*
X24550000Y21600000D01*
D10*
X33300000Y19800000D02*
X35100000Y19800000D01*
X35100000Y20250000D01*
X35550000Y20250000D01*
X35550000Y22050000D01*
X25200000Y22050000D01*
X25200000Y22500000D01*
X24550000Y22000000D01*
D10*
X4050000Y13500000D02*
X23400000Y13500000D01*
X23400000Y17550000D01*
X25200000Y17550000D01*
X25200000Y19350000D01*
X35550000Y19350000D01*
X35550000Y19800000D01*
X36000000Y19800000D01*
X36000000Y22500000D01*
X28800000Y22500000D01*
X28800000Y23400000D01*
X28350000Y23400000D01*
X28350000Y23850000D01*
X25200000Y23850000D01*
D10*
X4050000Y12600000D02*
X15750000Y12600000D01*
X15750000Y13050000D01*
X23850000Y13050000D01*
X23850000Y17100000D01*
X25650000Y17100000D01*
X25650000Y18900000D01*
X36000000Y18900000D01*
X36000000Y19350000D01*
X36450000Y19350000D01*
X36450000Y22950000D01*
X35550000Y22950000D01*
X35550000Y24300000D01*
X32400000Y24300000D01*
X32400000Y23400000D01*
D10*
X28800000Y23850000D02*
X28800000Y24300000D01*
X25650000Y24300000D01*
D10*
X27000000Y0D02*
X28800000Y0D01*
X28750000Y-1045000D01*
D10*
X27000000Y0D02*
X25650000Y0D01*
X25650000Y8100000D01*
X25510000Y8000000D01*
D10*
X41400000Y26100000D02*
X32400000Y26100000D01*
X32400000Y28350000D01*
X29700000Y28350000D01*
D10*
X41400000Y26550000D02*
X32850000Y26550000D01*
X32850000Y27450000D01*
D10*
X22950000Y22050000D02*
X22950000Y20250000D01*
X25200000Y20250000D01*
X25200000Y20550000D01*
D10*
X36000000Y29700000D02*
X36000000Y28800000D01*
X35550000Y28800000D01*
X35550000Y27900000D01*
X35525000Y28095000D01*
D10*
X23850000Y19350000D02*
X22950000Y19350000D01*
D10*
X22050000Y20700000D02*
X22050000Y29250000D01*
X35550000Y29250000D01*
X35525000Y29365000D01*
D10*
X23850000Y28800000D02*
X26100000Y28800000D01*
X26100000Y28350000D01*
D10*
X14850000Y13950000D02*
X16200000Y13950000D01*
D10*
X27900000Y450000D02*
X29250000Y450000D01*
X29250000Y0D01*
X30600000Y0D01*
X30450000Y-1045000D01*
D10*
X30600000Y0D02*
X30450000Y-1045000D01*
D10*
X18450000Y30150000D02*
X17550000Y30150000D01*
X17550000Y28350000D01*
X16650000Y28350000D01*
X16650000Y27000000D01*
X16510000Y27000000D01*
D10*
X17550000Y29250000D02*
X18900000Y29250000D01*
X19100000Y29150000D01*
D11*
X28800000Y26550000D03*
D11*
X26550000Y23400000D03*
D11*
X23400000Y21600000D03*
D11*
X33300000Y19800000D03*
D11*
X4050000Y13500000D03*
D11*
X25200000Y23850000D03*
D11*
X4050000Y12600000D03*
D11*
X32400000Y23400000D03*
D11*
X28800000Y23850000D03*
D11*
X25650000Y24300000D03*
D11*
X27000000Y0D03*
D11*
X41400000Y26100000D03*
D11*
X29700000Y28350000D03*
D11*
X41400000Y26550000D03*
D11*
X32850000Y27450000D03*
D11*
X22950000Y22050000D03*
D11*
X36000000Y29700000D03*
D11*
X23850000Y19350000D03*
D11*
X22950000Y19350000D03*
D11*
X22050000Y20700000D03*
D11*
X23850000Y28800000D03*
D11*
X26100000Y28350000D03*
D11*
X14850000Y13950000D03*
D11*
X16200000Y13950000D03*
D11*
X27900000Y450000D03*
D11*
X18450000Y30150000D03*
D16*
X27059722Y20951881D03*
D16*
X28019722Y20951881D03*
D16*
X27056572Y24916475D03*
D16*
X28016572Y24916475D03*
D16*
X27063630Y23004608D03*
D16*
X28023630Y23004608D03*
D16*
X30511412Y27223165D03*
D16*
X31471412Y27223165D03*
D16*
X33963868Y23408288D03*
D16*
X34923868Y23408288D03*
D16*
X33315604Y20387659D03*
D16*
X34275604Y20387659D03*
D16*
X29304971Y27150083D03*
D16*
X30264971Y27150083D03*
D16*
X33305605Y27156465D03*
D16*
X34265605Y27156465D03*
D16*
X33959677Y23751335D03*
D16*
X34919677Y23751335D03*
D16*
X33962465Y20987505D03*
D16*
X34922465Y20987505D03*
D16*
X30113530Y20353082D03*
D16*
X31073530Y20353082D03*
D16*
X30513909Y20358929D03*
D16*
X31473909Y20358929D03*
D16*
X33963538Y21403195D03*
D16*
X34923538Y21403195D03*
D16*
X32114548Y20369219D03*
D16*
X33074548Y20369219D03*
D16*
X9520000Y18000000D03*
D16*
X10480000Y18000000D03*
D16*
X17520000Y18000000D03*
D16*
X18480000Y18000000D03*
D16*
X14520000Y33000000D03*
D16*
X15480000Y33000000D03*
D16*
X20520000Y33000000D03*
D16*
X21480000Y33000000D03*
D20*
X39085000Y13450000D03*
D20*
X39085000Y14550000D03*
D20*
X40915000Y14550000D03*
D20*
X40915000Y13450000D03*
D18*
X2000000Y5000000D03*
D18*
X3000000Y5000000D03*
D18*
X4000000Y5000000D03*
D22*
X700000Y8875000D03*
D18*
X52000000Y33000000D03*
D18*
X53000000Y33000000D03*
D18*
X54000000Y33000000D03*
D22*
X50700000Y36875000D03*
D17*
X24750000Y-1045000D03*
D17*
X25550000Y-1045000D03*
D14*
X26750000Y-1045000D03*
D14*
X27750000Y-1045000D03*
D14*
X28250000Y-1045000D03*
D14*
X29250000Y-1045000D03*
D17*
X30450000Y-1045000D03*
D17*
X31250000Y-1045000D03*
D17*
X31250000Y-1045000D03*
D17*
X30450000Y-1045000D03*
D14*
X29750000Y-1045000D03*
D14*
X28750000Y-1045000D03*
D14*
X27250000Y-1045000D03*
D14*
X26250000Y-1045000D03*
D17*
X25550000Y-1045000D03*
D17*
X24750000Y-1045000D03*
D27*
X23680000Y-130000D03*
D18*
X2000000Y12000000D03*
D18*
X3000000Y12000000D03*
D18*
X4000000Y12000000D03*
D22*
X700000Y15875000D03*
D18*
X2000000Y19000000D03*
D18*
X3000000Y19000000D03*
D18*
X4000000Y19000000D03*
D22*
X700000Y22875000D03*
D18*
X2000000Y26000000D03*
D18*
X3000000Y26000000D03*
D18*
X4000000Y26000000D03*
D22*
X700000Y29875000D03*
D18*
X2000000Y33000000D03*
D18*
X3000000Y33000000D03*
D18*
X4000000Y33000000D03*
D22*
X700000Y36875000D03*
D18*
X52000000Y5000000D03*
D18*
X53000000Y5000000D03*
D18*
X54000000Y5000000D03*
D22*
X50700000Y8875000D03*
D18*
X52000000Y12000000D03*
D18*
X53000000Y12000000D03*
D18*
X54000000Y12000000D03*
D22*
X50700000Y15875000D03*
D18*
X52000000Y19000000D03*
D18*
X53000000Y19000000D03*
D18*
X54000000Y19000000D03*
D22*
X50700000Y22875000D03*
D18*
X52000000Y26000000D03*
D18*
X53000000Y26000000D03*
D18*
X54000000Y26000000D03*
D22*
X50700000Y29875000D03*
D19*
X21325000Y14000000D03*
D19*
X22675000Y14000000D03*
D15*
X23490000Y18000000D03*
D15*
X24510000Y18000000D03*
D15*
X43490000Y34000000D03*
D15*
X44510000Y34000000D03*
D15*
X21490000Y5000000D03*
D15*
X22510000Y5000000D03*
D15*
X33490000Y5000000D03*
D15*
X34510000Y5000000D03*
D15*
X30490000Y8000000D03*
D15*
X31510000Y8000000D03*
D15*
X24490000Y8000000D03*
D15*
X25510000Y8000000D03*
D15*
X15490000Y27000000D03*
D15*
X16510000Y27000000D03*
D24*
X41800000Y37275000D03*
D24*
X38200000Y38725000D03*
D24*
X17800000Y37275000D03*
D24*
X14200000Y38725000D03*
D21*
X24550000Y21200000D03*
D21*
X24550000Y21600000D03*
D21*
X24550000Y22000000D03*
D21*
X24550000Y22400000D03*
D21*
X24550000Y22800000D03*
D21*
X24550000Y23200000D03*
D21*
X24550000Y23600000D03*
D21*
X24550000Y24000000D03*
D21*
X24550000Y24400000D03*
D21*
X24550000Y24800000D03*
D21*
X24550000Y25200000D03*
D21*
X24550000Y25600000D03*
D21*
X24550000Y26000000D03*
D21*
X24550000Y26400000D03*
D21*
X24550000Y26800000D03*
D13*
X25200000Y27450000D03*
D13*
X25600000Y27450000D03*
D13*
X26000000Y27450000D03*
D13*
X26400000Y27450000D03*
D13*
X26800000Y27450000D03*
D13*
X27200000Y27450000D03*
D13*
X27600000Y27450000D03*
D13*
X28000000Y27450000D03*
D13*
X28400000Y27450000D03*
D13*
X28800000Y27450000D03*
D13*
X29200000Y27450000D03*
D13*
X29600000Y27450000D03*
D13*
X30000000Y27450000D03*
D13*
X30400000Y27450000D03*
D13*
X30800000Y27450000D03*
D21*
X31450000Y26800000D03*
D21*
X31450000Y26400000D03*
D21*
X31450000Y26000000D03*
D21*
X31450000Y25600000D03*
D21*
X31450000Y25200000D03*
D21*
X31450000Y24800000D03*
D21*
X31450000Y24400000D03*
D21*
X31450000Y24000000D03*
D21*
X31450000Y23600000D03*
D21*
X31450000Y23200000D03*
D21*
X31450000Y22800000D03*
D21*
X31450000Y22400000D03*
D21*
X31450000Y22000000D03*
D21*
X31450000Y21600000D03*
D21*
X31450000Y21200000D03*
D13*
X30800000Y20550000D03*
D13*
X30400000Y20550000D03*
D13*
X30000000Y20550000D03*
D13*
X29600000Y20550000D03*
D13*
X29200000Y20550000D03*
D13*
X28800000Y20550000D03*
D13*
X28400000Y20550000D03*
D13*
X28000000Y20550000D03*
D13*
X27600000Y20550000D03*
D13*
X27200000Y20550000D03*
D13*
X26800000Y20550000D03*
D13*
X26400000Y20550000D03*
D13*
X26000000Y20550000D03*
D13*
X25600000Y20550000D03*
D13*
X25200000Y20550000D03*
D12*
X26550000Y22550000D03*
D26*
X35525000Y28095000D03*
D26*
X35525000Y29365000D03*
D26*
X35525000Y30635000D03*
D26*
X35525000Y31905000D03*
D26*
X40475000Y31905000D03*
D26*
X40475000Y30635000D03*
D26*
X40475000Y29365000D03*
D26*
X40475000Y28095000D03*
D23*
X12862500Y13050000D03*
D23*
X12862500Y14000000D03*
D23*
X12862500Y14950000D03*
D23*
X15137500Y14950000D03*
D23*
X15137500Y13050000D03*
D25*
X16900000Y30850000D03*
D25*
X19100000Y30850000D03*
D25*
X19100000Y29150000D03*
D25*
X16900000Y29150000D03*
M02*
