G04 F_Fab *
%FSLAX46Y46*%
%MOMM*%
%ADD10C,0.031250*%
%ADD11C,0.032500*%
%ADD12C,0.062500*%
%ADD13C,0.090000*%
%ADD14C,0.100000*%
%ADD15C,0.125000*%
G01*
G36*
X26484222Y19196557D02*
X27484222Y19196557D01*
X27484222Y19696557D01*
X26484222Y19696557D01*
X26484222Y19196557D01*
G37*
D15*
X25055651Y20892271D02*
X25198508Y21035128D01*
X25198508Y20177986D01*
D15*
X25055651Y20177986D02*
X25341365Y20177986D01*
D15*
X25912794Y20177986D02*
X25769936Y20320843D01*
X25769936Y20892271D01*
X25912794Y21035128D01*
X26198508Y21035128D01*
X26341365Y20892271D01*
X26341365Y20320843D01*
X26198508Y20177986D01*
X25912794Y20177986D01*
D15*
X25912794Y20320843D02*
X26198508Y20892271D01*
D15*
X26769936Y20177986D02*
X26627079Y20320843D01*
X26627079Y20892271D01*
X26769936Y21035128D01*
X27055651Y21035128D01*
X27198508Y20892271D01*
X27198508Y20320843D01*
X27055651Y20177986D01*
X26769936Y20177986D01*
D15*
X26769936Y20320843D02*
X27055651Y20892271D01*
D15*
X27484222Y20177986D02*
X27484222Y21035128D01*
X28055651Y20177986D01*
X28055651Y21035128D01*
D15*
X28912794Y21035128D02*
X28341365Y21035128D01*
X28341365Y20177986D01*
D15*
X28341365Y20606557D02*
X28769936Y20606557D01*
D10*
X26966365Y19517986D02*
X26930650Y19553700D01*
X26859222Y19553700D01*
X26823508Y19517986D01*
X26823508Y19375129D01*
X26859222Y19339415D01*
X26930650Y19339415D01*
X26966365Y19375129D01*
D10*
X27073508Y19517986D02*
X27109222Y19553700D01*
X27109222Y19339415D01*
D10*
X27073508Y19339415D02*
X27144936Y19339415D01*
G36*
X24050009Y28260000D02*
X25050009Y28260000D01*
X25050009Y28760000D01*
X24050009Y28760000D01*
X24050009Y28260000D01*
G37*
D15*
X22621438Y29955714D02*
X22764295Y30098571D01*
X22764295Y29241429D01*
D15*
X22621438Y29241429D02*
X22907152Y29241429D01*
D15*
X23478581Y29241429D02*
X23335723Y29384286D01*
X23335723Y29955714D01*
X23478581Y30098571D01*
X23764295Y30098571D01*
X23907152Y29955714D01*
X23907152Y29384286D01*
X23764295Y29241429D01*
X23478581Y29241429D01*
D15*
X23478581Y29384286D02*
X23764295Y29955714D01*
D15*
X24335723Y29241429D02*
X24192866Y29384286D01*
X24192866Y29955714D01*
X24335723Y30098571D01*
X24621438Y30098571D01*
X24764295Y29955714D01*
X24764295Y29384286D01*
X24621438Y29241429D01*
X24335723Y29241429D01*
D15*
X24335723Y29384286D02*
X24621438Y29955714D01*
D15*
X25050009Y29241429D02*
X25050009Y30098571D01*
X25621438Y29241429D01*
X25621438Y30098571D01*
D15*
X26478581Y30098571D02*
X25907152Y30098571D01*
X25907152Y29241429D01*
D15*
X25907152Y29670000D02*
X26335723Y29670000D01*
D10*
X24514295Y28581429D02*
X24478580Y28617143D01*
X24407152Y28617143D01*
X24371438Y28581429D01*
X24371438Y28438572D01*
X24407152Y28402858D01*
X24478580Y28402858D01*
X24514295Y28438572D01*
D10*
X24585723Y28581429D02*
X24621438Y28617143D01*
X24692866Y28617143D01*
X24728580Y28581429D01*
X24728580Y28545715D01*
X24585723Y28402858D01*
X24728580Y28402858D01*
G36*
X24050000Y19240000D02*
X25050000Y19240000D01*
X25050000Y19740000D01*
X24050000Y19740000D01*
X24050000Y19240000D01*
G37*
D15*
X22621429Y20935714D02*
X22764286Y21078571D01*
X22764286Y20221429D01*
D15*
X22621429Y20221429D02*
X22907143Y20221429D01*
D15*
X23478572Y20221429D02*
X23335714Y20364286D01*
X23335714Y20935714D01*
X23478572Y21078571D01*
X23764286Y21078571D01*
X23907143Y20935714D01*
X23907143Y20364286D01*
X23764286Y20221429D01*
X23478572Y20221429D01*
D15*
X23478572Y20364286D02*
X23764286Y20935714D01*
D15*
X24335714Y20221429D02*
X24192857Y20364286D01*
X24192857Y20935714D01*
X24335714Y21078571D01*
X24621429Y21078571D01*
X24764286Y20935714D01*
X24764286Y20364286D01*
X24621429Y20221429D01*
X24335714Y20221429D01*
D15*
X24335714Y20364286D02*
X24621429Y20935714D01*
D15*
X25050000Y20221429D02*
X25050000Y21078571D01*
X25621429Y20221429D01*
X25621429Y21078571D01*
D15*
X26478572Y21078571D02*
X25907143Y21078571D01*
X25907143Y20221429D01*
D15*
X25907143Y20650000D02*
X26335714Y20650000D01*
D10*
X24514286Y19561429D02*
X24478571Y19597143D01*
X24407143Y19597143D01*
X24371429Y19561429D01*
X24371429Y19418572D01*
X24407143Y19382858D01*
X24478571Y19382858D01*
X24514286Y19418572D01*
D10*
X24585714Y19597143D02*
X24728571Y19597143D01*
X24657143Y19490000D01*
X24728571Y19454286D01*
X24728571Y19418572D01*
X24692857Y19382858D01*
X24621429Y19382858D01*
X24585714Y19418572D01*
G36*
X30306493Y28260000D02*
X31306493Y28260000D01*
X31306493Y28760000D01*
X30306493Y28760000D01*
X30306493Y28260000D01*
G37*
D15*
X28877922Y29955714D02*
X29020779Y30098571D01*
X29020779Y29241429D01*
D15*
X28877922Y29241429D02*
X29163636Y29241429D01*
D15*
X29735065Y29241429D02*
X29592207Y29384286D01*
X29592207Y29955714D01*
X29735065Y30098571D01*
X30020779Y30098571D01*
X30163636Y29955714D01*
X30163636Y29384286D01*
X30020779Y29241429D01*
X29735065Y29241429D01*
D15*
X29735065Y29384286D02*
X30020779Y29955714D01*
D15*
X30592207Y29241429D02*
X30449350Y29384286D01*
X30449350Y29955714D01*
X30592207Y30098571D01*
X30877922Y30098571D01*
X31020779Y29955714D01*
X31020779Y29384286D01*
X30877922Y29241429D01*
X30592207Y29241429D01*
D15*
X30592207Y29384286D02*
X30877922Y29955714D01*
D15*
X31306493Y29241429D02*
X31306493Y30098571D01*
X31877922Y29241429D01*
X31877922Y30098571D01*
D15*
X32735065Y30098571D02*
X32163636Y30098571D01*
X32163636Y29241429D01*
D15*
X32163636Y29670000D02*
X32592207Y29670000D01*
D10*
X30770779Y28581429D02*
X30735064Y28617143D01*
X30663636Y28617143D01*
X30627922Y28581429D01*
X30627922Y28438572D01*
X30663636Y28402858D01*
X30735064Y28402858D01*
X30770779Y28438572D01*
D10*
X30949350Y28402858D02*
X30949350Y28617143D01*
X30842207Y28474286D01*
X30985064Y28474286D01*
G36*
X33911737Y22872389D02*
X34911737Y22872389D01*
X34911737Y23372389D01*
X33911737Y23372389D01*
X33911737Y22872389D01*
G37*
D15*
X32483166Y24568103D02*
X32626023Y24710960D01*
X32626023Y23853818D01*
D15*
X32483166Y23853818D02*
X32768880Y23853818D01*
D15*
X33340309Y23853818D02*
X33197451Y23996675D01*
X33197451Y24568103D01*
X33340309Y24710960D01*
X33626023Y24710960D01*
X33768880Y24568103D01*
X33768880Y23996675D01*
X33626023Y23853818D01*
X33340309Y23853818D01*
D15*
X33340309Y23996675D02*
X33626023Y24568103D01*
D15*
X34197451Y23853818D02*
X34054594Y23996675D01*
X34054594Y24568103D01*
X34197451Y24710960D01*
X34483166Y24710960D01*
X34626023Y24568103D01*
X34626023Y23996675D01*
X34483166Y23853818D01*
X34197451Y23853818D01*
D15*
X34197451Y23996675D02*
X34483166Y24568103D01*
D15*
X34911737Y23853818D02*
X34911737Y24710960D01*
X35483166Y23853818D01*
X35483166Y24710960D01*
D15*
X36340309Y24710960D02*
X35768880Y24710960D01*
X35768880Y23853818D01*
D15*
X35768880Y24282389D02*
X36197451Y24282389D01*
D10*
X34376023Y23193818D02*
X34340308Y23229532D01*
X34268880Y23229532D01*
X34233166Y23193818D01*
X34233166Y23050961D01*
X34268880Y23015247D01*
X34340308Y23015247D01*
X34376023Y23050961D01*
D10*
X34590308Y23229532D02*
X34447451Y23229532D01*
X34447451Y23122389D01*
X34554594Y23122389D01*
X34590308Y23086675D01*
X34590308Y23050961D01*
X34554594Y23015247D01*
X34483166Y23015247D01*
X34447451Y23050961D01*
G36*
X33268505Y19866432D02*
X34268505Y19866432D01*
X34268505Y20366432D01*
X33268505Y20366432D01*
X33268505Y19866432D01*
G37*
D15*
X31839934Y21562146D02*
X31982791Y21705003D01*
X31982791Y20847861D01*
D15*
X31839934Y20847861D02*
X32125648Y20847861D01*
D15*
X32697077Y20847861D02*
X32554219Y20990718D01*
X32554219Y21562146D01*
X32697077Y21705003D01*
X32982791Y21705003D01*
X33125648Y21562146D01*
X33125648Y20990718D01*
X32982791Y20847861D01*
X32697077Y20847861D01*
D15*
X32697077Y20990718D02*
X32982791Y21562146D01*
D15*
X33554219Y20847861D02*
X33411362Y20990718D01*
X33411362Y21562146D01*
X33554219Y21705003D01*
X33839934Y21705003D01*
X33982791Y21562146D01*
X33982791Y20990718D01*
X33839934Y20847861D01*
X33554219Y20847861D01*
D15*
X33554219Y20990718D02*
X33839934Y21562146D01*
D15*
X34268505Y20847861D02*
X34268505Y21705003D01*
X34839934Y20847861D01*
X34839934Y21705003D01*
D15*
X35697077Y21705003D02*
X35125648Y21705003D01*
X35125648Y20847861D01*
D15*
X35125648Y21276432D02*
X35554219Y21276432D01*
D10*
X33732791Y20187861D02*
X33697076Y20223575D01*
X33625648Y20223575D01*
X33589934Y20187861D01*
X33589934Y20045004D01*
X33625648Y20009290D01*
X33697076Y20009290D01*
X33732791Y20045004D01*
D10*
X33947076Y20187861D02*
X33911362Y20223575D01*
X33839934Y20223575D01*
X33804219Y20187861D01*
X33804219Y20045004D01*
X33839934Y20009290D01*
X33911362Y20009290D01*
X33947076Y20045004D01*
X33947076Y20080718D01*
X33911362Y20116432D01*
X33804219Y20116432D01*
G36*
X28486493Y28260000D02*
X29486493Y28260000D01*
X29486493Y28760000D01*
X28486493Y28760000D01*
X28486493Y28260000D01*
G37*
D15*
X27057922Y29955714D02*
X27200779Y30098571D01*
X27200779Y29241429D01*
D15*
X27057922Y29241429D02*
X27343636Y29241429D01*
D15*
X27915065Y29241429D02*
X27772207Y29384286D01*
X27772207Y29955714D01*
X27915065Y30098571D01*
X28200779Y30098571D01*
X28343636Y29955714D01*
X28343636Y29384286D01*
X28200779Y29241429D01*
X27915065Y29241429D01*
D15*
X27915065Y29384286D02*
X28200779Y29955714D01*
D15*
X28772207Y29241429D02*
X28629350Y29384286D01*
X28629350Y29955714D01*
X28772207Y30098571D01*
X29057922Y30098571D01*
X29200779Y29955714D01*
X29200779Y29384286D01*
X29057922Y29241429D01*
X28772207Y29241429D01*
D15*
X28772207Y29384286D02*
X29057922Y29955714D01*
D15*
X29486493Y29241429D02*
X29486493Y30098571D01*
X30057922Y29241429D01*
X30057922Y30098571D01*
D15*
X30915065Y30098571D02*
X30343636Y30098571D01*
X30343636Y29241429D01*
D15*
X30343636Y29670000D02*
X30772207Y29670000D01*
D10*
X28950779Y28581429D02*
X28915064Y28617143D01*
X28843636Y28617143D01*
X28807922Y28581429D01*
X28807922Y28438572D01*
X28843636Y28402858D01*
X28915064Y28402858D01*
X28950779Y28438572D01*
D10*
X29022207Y28617143D02*
X29165064Y28617143D01*
X29057922Y28402858D01*
G36*
X33285605Y26906465D02*
X34285605Y26906465D01*
X34285605Y27406465D01*
X33285605Y27406465D01*
X33285605Y26906465D01*
G37*
D15*
X31857034Y28602179D02*
X31999891Y28745036D01*
X31999891Y27887894D01*
D15*
X31857034Y27887894D02*
X32142748Y27887894D01*
D15*
X32714177Y27887894D02*
X32571319Y28030751D01*
X32571319Y28602179D01*
X32714177Y28745036D01*
X32999891Y28745036D01*
X33142748Y28602179D01*
X33142748Y28030751D01*
X32999891Y27887894D01*
X32714177Y27887894D01*
D15*
X32714177Y28030751D02*
X32999891Y28602179D01*
D15*
X33571319Y27887894D02*
X33428462Y28030751D01*
X33428462Y28602179D01*
X33571319Y28745036D01*
X33857034Y28745036D01*
X33999891Y28602179D01*
X33999891Y28030751D01*
X33857034Y27887894D01*
X33571319Y27887894D01*
D15*
X33571319Y28030751D02*
X33857034Y28602179D01*
D15*
X34285605Y27887894D02*
X34285605Y28745036D01*
X34857034Y27887894D01*
X34857034Y28745036D01*
D15*
X35714177Y28745036D02*
X35142748Y28745036D01*
X35142748Y27887894D01*
D15*
X35142748Y28316465D02*
X35571319Y28316465D01*
D10*
X33749891Y27227894D02*
X33714176Y27263608D01*
X33642748Y27263608D01*
X33607034Y27227894D01*
X33607034Y27085037D01*
X33642748Y27049323D01*
X33714176Y27049323D01*
X33749891Y27085037D01*
D10*
X33857034Y27156465D02*
X33821319Y27192180D01*
X33821319Y27227894D01*
X33857034Y27263608D01*
X33928462Y27263608D01*
X33964176Y27227894D01*
X33964176Y27192180D01*
X33928462Y27156465D01*
X33857034Y27156465D01*
D10*
X33928462Y27156465D02*
X33964176Y27120751D01*
X33964176Y27085037D01*
X33928462Y27049323D01*
X33857034Y27049323D01*
X33821319Y27085037D01*
X33821319Y27120751D01*
X33857034Y27156465D01*
G36*
X33939677Y23792389D02*
X34939677Y23792389D01*
X34939677Y24292389D01*
X33939677Y24292389D01*
X33939677Y23792389D01*
G37*
D15*
X32511106Y25488103D02*
X32653963Y25630960D01*
X32653963Y24773818D01*
D15*
X32511106Y24773818D02*
X32796820Y24773818D01*
D15*
X33368249Y24773818D02*
X33225391Y24916675D01*
X33225391Y25488103D01*
X33368249Y25630960D01*
X33653963Y25630960D01*
X33796820Y25488103D01*
X33796820Y24916675D01*
X33653963Y24773818D01*
X33368249Y24773818D01*
D15*
X33368249Y24916675D02*
X33653963Y25488103D01*
D15*
X34225391Y24773818D02*
X34082534Y24916675D01*
X34082534Y25488103D01*
X34225391Y25630960D01*
X34511106Y25630960D01*
X34653963Y25488103D01*
X34653963Y24916675D01*
X34511106Y24773818D01*
X34225391Y24773818D01*
D15*
X34225391Y24916675D02*
X34511106Y25488103D01*
D15*
X34939677Y24773818D02*
X34939677Y25630960D01*
X35511106Y24773818D01*
X35511106Y25630960D01*
D15*
X36368249Y25630960D02*
X35796820Y25630960D01*
X35796820Y24773818D01*
D15*
X35796820Y25202389D02*
X36225391Y25202389D01*
D10*
X34403963Y24113818D02*
X34368248Y24149532D01*
X34296820Y24149532D01*
X34261106Y24113818D01*
X34261106Y23970961D01*
X34296820Y23935247D01*
X34368248Y23935247D01*
X34403963Y23970961D01*
D10*
X34618248Y24078104D02*
X34582534Y24042389D01*
X34511106Y24042389D01*
X34475391Y24078104D01*
X34475391Y24113818D01*
X34511106Y24149532D01*
X34582534Y24149532D01*
X34618248Y24113818D01*
X34618248Y24078104D01*
D10*
X34618248Y24078104D02*
X34618248Y23970961D01*
X34582534Y23935247D01*
X34511106Y23935247D01*
G36*
X33925524Y20786432D02*
X34925524Y20786432D01*
X34925524Y21286432D01*
X33925524Y21286432D01*
X33925524Y20786432D01*
G37*
D15*
X32496953Y22482146D02*
X32639810Y22625003D01*
X32639810Y21767861D01*
D15*
X32496953Y21767861D02*
X32782667Y21767861D01*
D15*
X33354096Y21767861D02*
X33211238Y21910718D01*
X33211238Y22482146D01*
X33354096Y22625003D01*
X33639810Y22625003D01*
X33782667Y22482146D01*
X33782667Y21910718D01*
X33639810Y21767861D01*
X33354096Y21767861D01*
D15*
X33354096Y21910718D02*
X33639810Y22482146D01*
D15*
X34211238Y21767861D02*
X34068381Y21910718D01*
X34068381Y22482146D01*
X34211238Y22625003D01*
X34496953Y22625003D01*
X34639810Y22482146D01*
X34639810Y21910718D01*
X34496953Y21767861D01*
X34211238Y21767861D01*
D15*
X34211238Y21910718D02*
X34496953Y22482146D01*
D15*
X34925524Y21767861D02*
X34925524Y22625003D01*
X35496953Y21767861D01*
X35496953Y22625003D01*
D15*
X36354096Y22625003D02*
X35782667Y22625003D01*
X35782667Y21767861D01*
D15*
X35782667Y22196432D02*
X36211238Y22196432D01*
D10*
X34282667Y21107861D02*
X34246952Y21143575D01*
X34175524Y21143575D01*
X34139810Y21107861D01*
X34139810Y20965004D01*
X34175524Y20929290D01*
X34246952Y20929290D01*
X34282667Y20965004D01*
D10*
X34389810Y21107861D02*
X34425524Y21143575D01*
X34425524Y20929290D01*
D10*
X34389810Y20929290D02*
X34461238Y20929290D01*
D10*
X34604095Y20929290D02*
X34568381Y20965004D01*
X34568381Y21107861D01*
X34604095Y21143575D01*
X34675524Y21143575D01*
X34711238Y21107861D01*
X34711238Y20965004D01*
X34675524Y20929290D01*
X34604095Y20929290D01*
D10*
X34604095Y20965004D02*
X34675524Y21107861D01*
G36*
X29353797Y18320000D02*
X30353797Y18320000D01*
X30353797Y18820000D01*
X29353797Y18820000D01*
X29353797Y18320000D01*
G37*
D15*
X27925226Y20015714D02*
X28068083Y20158571D01*
X28068083Y19301429D01*
D15*
X27925226Y19301429D02*
X28210940Y19301429D01*
D15*
X28782369Y19301429D02*
X28639511Y19444286D01*
X28639511Y20015714D01*
X28782369Y20158571D01*
X29068083Y20158571D01*
X29210940Y20015714D01*
X29210940Y19444286D01*
X29068083Y19301429D01*
X28782369Y19301429D01*
D15*
X28782369Y19444286D02*
X29068083Y20015714D01*
D15*
X29639511Y19301429D02*
X29496654Y19444286D01*
X29496654Y20015714D01*
X29639511Y20158571D01*
X29925226Y20158571D01*
X30068083Y20015714D01*
X30068083Y19444286D01*
X29925226Y19301429D01*
X29639511Y19301429D01*
D15*
X29639511Y19444286D02*
X29925226Y20015714D01*
D15*
X30353797Y19301429D02*
X30353797Y20158571D01*
X30925226Y19301429D01*
X30925226Y20158571D01*
D15*
X31782369Y20158571D02*
X31210940Y20158571D01*
X31210940Y19301429D01*
D15*
X31210940Y19730000D02*
X31639511Y19730000D01*
D10*
X29728797Y18641429D02*
X29693082Y18677143D01*
X29621654Y18677143D01*
X29585940Y18641429D01*
X29585940Y18498572D01*
X29621654Y18462858D01*
X29693082Y18462858D01*
X29728797Y18498572D01*
D10*
X29835940Y18641429D02*
X29871654Y18677143D01*
X29871654Y18462858D01*
D10*
X29835940Y18462858D02*
X29907368Y18462858D01*
D10*
X30050225Y18641429D02*
X30085940Y18677143D01*
X30085940Y18462858D01*
D10*
X30050225Y18462858D02*
X30121654Y18462858D01*
G36*
X29628505Y19240000D02*
X30628505Y19240000D01*
X30628505Y19740000D01*
X29628505Y19740000D01*
X29628505Y19240000D01*
G37*
D15*
X28199934Y20935714D02*
X28342791Y21078571D01*
X28342791Y20221429D01*
D15*
X28199934Y20221429D02*
X28485648Y20221429D01*
D15*
X29057077Y20221429D02*
X28914219Y20364286D01*
X28914219Y20935714D01*
X29057077Y21078571D01*
X29342791Y21078571D01*
X29485648Y20935714D01*
X29485648Y20364286D01*
X29342791Y20221429D01*
X29057077Y20221429D01*
D15*
X29057077Y20364286D02*
X29342791Y20935714D01*
D15*
X29914219Y20221429D02*
X29771362Y20364286D01*
X29771362Y20935714D01*
X29914219Y21078571D01*
X30199934Y21078571D01*
X30342791Y20935714D01*
X30342791Y20364286D01*
X30199934Y20221429D01*
X29914219Y20221429D01*
D15*
X29914219Y20364286D02*
X30199934Y20935714D01*
D15*
X30628505Y20221429D02*
X30628505Y21078571D01*
X31199934Y20221429D01*
X31199934Y21078571D01*
D15*
X32057077Y21078571D02*
X31485648Y21078571D01*
X31485648Y20221429D01*
D15*
X31485648Y20650000D02*
X31914219Y20650000D01*
D10*
X29985648Y19561429D02*
X29949933Y19597143D01*
X29878505Y19597143D01*
X29842791Y19561429D01*
X29842791Y19418572D01*
X29878505Y19382858D01*
X29949933Y19382858D01*
X29985648Y19418572D01*
D10*
X30092791Y19561429D02*
X30128505Y19597143D01*
X30128505Y19382858D01*
D10*
X30092791Y19382858D02*
X30164219Y19382858D01*
D10*
X30271362Y19561429D02*
X30307076Y19597143D01*
X30378505Y19597143D01*
X30414219Y19561429D01*
X30414219Y19525715D01*
X30271362Y19382858D01*
X30414219Y19382858D01*
G36*
X33928751Y21706432D02*
X34928751Y21706432D01*
X34928751Y22206432D01*
X33928751Y22206432D01*
X33928751Y21706432D01*
G37*
D15*
X32500180Y23402146D02*
X32643037Y23545003D01*
X32643037Y22687861D01*
D15*
X32500180Y22687861D02*
X32785894Y22687861D01*
D15*
X33357323Y22687861D02*
X33214465Y22830718D01*
X33214465Y23402146D01*
X33357323Y23545003D01*
X33643037Y23545003D01*
X33785894Y23402146D01*
X33785894Y22830718D01*
X33643037Y22687861D01*
X33357323Y22687861D01*
D15*
X33357323Y22830718D02*
X33643037Y23402146D01*
D15*
X34214465Y22687861D02*
X34071608Y22830718D01*
X34071608Y23402146D01*
X34214465Y23545003D01*
X34500180Y23545003D01*
X34643037Y23402146D01*
X34643037Y22830718D01*
X34500180Y22687861D01*
X34214465Y22687861D01*
D15*
X34214465Y22830718D02*
X34500180Y23402146D01*
D15*
X34928751Y22687861D02*
X34928751Y23545003D01*
X35500180Y22687861D01*
X35500180Y23545003D01*
D15*
X36357323Y23545003D02*
X35785894Y23545003D01*
X35785894Y22687861D01*
D15*
X35785894Y23116432D02*
X36214465Y23116432D01*
D10*
X34285894Y22027861D02*
X34250179Y22063575D01*
X34178751Y22063575D01*
X34143037Y22027861D01*
X34143037Y21885004D01*
X34178751Y21849290D01*
X34250179Y21849290D01*
X34285894Y21885004D01*
D10*
X34393037Y22027861D02*
X34428751Y22063575D01*
X34428751Y21849290D01*
D10*
X34393037Y21849290D02*
X34464465Y21849290D01*
D10*
X34571608Y22063575D02*
X34714465Y22063575D01*
X34643037Y21956432D01*
X34714465Y21920718D01*
X34714465Y21885004D01*
X34678751Y21849290D01*
X34607322Y21849290D01*
X34571608Y21885004D01*
G36*
X31448505Y19324951D02*
X32448505Y19324951D01*
X32448505Y19824951D01*
X31448505Y19824951D01*
X31448505Y19324951D01*
G37*
D15*
X30019934Y21020665D02*
X30162791Y21163522D01*
X30162791Y20306380D01*
D15*
X30019934Y20306380D02*
X30305648Y20306380D01*
D15*
X30877077Y20306380D02*
X30734219Y20449237D01*
X30734219Y21020665D01*
X30877077Y21163522D01*
X31162791Y21163522D01*
X31305648Y21020665D01*
X31305648Y20449237D01*
X31162791Y20306380D01*
X30877077Y20306380D01*
D15*
X30877077Y20449237D02*
X31162791Y21020665D01*
D15*
X31734219Y20306380D02*
X31591362Y20449237D01*
X31591362Y21020665D01*
X31734219Y21163522D01*
X32019934Y21163522D01*
X32162791Y21020665D01*
X32162791Y20449237D01*
X32019934Y20306380D01*
X31734219Y20306380D01*
D15*
X31734219Y20449237D02*
X32019934Y21020665D01*
D15*
X32448505Y20306380D02*
X32448505Y21163522D01*
X33019934Y20306380D01*
X33019934Y21163522D01*
D15*
X33877077Y21163522D02*
X33305648Y21163522D01*
X33305648Y20306380D01*
D15*
X33305648Y20734951D02*
X33734219Y20734951D01*
D10*
X31805648Y19646380D02*
X31769933Y19682094D01*
X31698505Y19682094D01*
X31662791Y19646380D01*
X31662791Y19503523D01*
X31698505Y19467809D01*
X31769933Y19467809D01*
X31805648Y19503523D01*
D10*
X31912791Y19646380D02*
X31948505Y19682094D01*
X31948505Y19467809D01*
D10*
X31912791Y19467809D02*
X31984219Y19467809D01*
D10*
X32198505Y19467809D02*
X32198505Y19682094D01*
X32091362Y19539237D01*
X32234219Y19539237D01*
G36*
X9500000Y17750000D02*
X10500000Y17750000D01*
X10500000Y18250000D01*
X9500000Y18250000D01*
X9500000Y17750000D01*
G37*
D15*
X8928572Y19445714D02*
X9071429Y19588571D01*
X9071429Y18731429D01*
D15*
X8928572Y18731429D02*
X9214286Y18731429D01*
D15*
X9642857Y19588571D02*
X9642857Y18874286D01*
X9785715Y18731429D01*
X10071429Y18731429D01*
X10214286Y18874286D01*
X10214286Y19588571D01*
D15*
X11071429Y19588571D02*
X10500000Y19588571D01*
X10500000Y18731429D01*
D15*
X10500000Y19160000D02*
X10928572Y19160000D01*
D10*
X9857143Y18071429D02*
X9821428Y18107143D01*
X9750000Y18107143D01*
X9714286Y18071429D01*
X9714286Y17928572D01*
X9750000Y17892858D01*
X9821428Y17892858D01*
X9857143Y17928572D01*
D10*
X9964286Y18071429D02*
X10000000Y18107143D01*
X10000000Y17892858D01*
D10*
X9964286Y17892858D02*
X10035714Y17892858D01*
D10*
X10285714Y18107143D02*
X10142857Y18107143D01*
X10142857Y18000000D01*
X10250000Y18000000D01*
X10285714Y17964286D01*
X10285714Y17928572D01*
X10250000Y17892858D01*
X10178571Y17892858D01*
X10142857Y17928572D01*
G36*
X17500000Y17750000D02*
X18500000Y17750000D01*
X18500000Y18250000D01*
X17500000Y18250000D01*
X17500000Y17750000D01*
G37*
D15*
X16928572Y19445714D02*
X17071429Y19588571D01*
X17071429Y18731429D01*
D15*
X16928572Y18731429D02*
X17214286Y18731429D01*
D15*
X17642857Y19588571D02*
X17642857Y18874286D01*
X17785715Y18731429D01*
X18071429Y18731429D01*
X18214286Y18874286D01*
X18214286Y19588571D01*
D15*
X19071429Y19588571D02*
X18500000Y19588571D01*
X18500000Y18731429D01*
D15*
X18500000Y19160000D02*
X18928572Y19160000D01*
D10*
X17857143Y18071429D02*
X17821428Y18107143D01*
X17750000Y18107143D01*
X17714286Y18071429D01*
X17714286Y17928572D01*
X17750000Y17892858D01*
X17821428Y17892858D01*
X17857143Y17928572D01*
D10*
X17964286Y18071429D02*
X18000000Y18107143D01*
X18000000Y17892858D01*
D10*
X17964286Y17892858D02*
X18035714Y17892858D01*
D10*
X18285714Y18071429D02*
X18250000Y18107143D01*
X18178571Y18107143D01*
X18142857Y18071429D01*
X18142857Y17928572D01*
X18178571Y17892858D01*
X18250000Y17892858D01*
X18285714Y17928572D01*
X18285714Y17964286D01*
X18250000Y18000000D01*
X18142857Y18000000D01*
G36*
X14500000Y32750000D02*
X15500000Y32750000D01*
X15500000Y33250000D01*
X14500000Y33250000D01*
X14500000Y32750000D01*
G37*
D15*
X13500000Y34445714D02*
X13642857Y34588571D01*
X13642857Y33731429D01*
D15*
X13500000Y33731429D02*
X13785714Y33731429D01*
D15*
X14785714Y34588571D02*
X14214285Y34588571D01*
X14214285Y34160000D01*
X14642857Y34160000D01*
X14785714Y34017143D01*
X14785714Y33874286D01*
X14642857Y33731429D01*
X14357143Y33731429D01*
X14214285Y33874286D01*
D15*
X15071428Y33731429D02*
X15071428Y34588571D01*
X15500000Y34588571D01*
X15642857Y34445714D01*
X15642857Y34302857D01*
X15500000Y34160000D01*
X15071428Y34160000D01*
D15*
X16500000Y34588571D02*
X15928571Y34588571D01*
X15928571Y33731429D01*
D15*
X15928571Y34160000D02*
X16357143Y34160000D01*
D10*
X14857143Y33071429D02*
X14821428Y33107143D01*
X14750000Y33107143D01*
X14714286Y33071429D01*
X14714286Y32928572D01*
X14750000Y32892858D01*
X14821428Y32892858D01*
X14857143Y32928572D01*
D10*
X14964286Y33071429D02*
X15000000Y33107143D01*
X15000000Y32892858D01*
D10*
X14964286Y32892858D02*
X15035714Y32892858D01*
D10*
X15142857Y33107143D02*
X15285714Y33107143D01*
X15178571Y32892858D01*
G36*
X20500000Y32750000D02*
X21500000Y32750000D01*
X21500000Y33250000D01*
X20500000Y33250000D01*
X20500000Y32750000D01*
G37*
D15*
X19500000Y34445714D02*
X19642857Y34588571D01*
X19642857Y33731429D01*
D15*
X19500000Y33731429D02*
X19785714Y33731429D01*
D15*
X20785714Y34588571D02*
X20214285Y34588571D01*
X20214285Y34160000D01*
X20642857Y34160000D01*
X20785714Y34017143D01*
X20785714Y33874286D01*
X20642857Y33731429D01*
X20357143Y33731429D01*
X20214285Y33874286D01*
D15*
X21071428Y33731429D02*
X21071428Y34588571D01*
X21500000Y34588571D01*
X21642857Y34445714D01*
X21642857Y34302857D01*
X21500000Y34160000D01*
X21071428Y34160000D01*
D15*
X22500000Y34588571D02*
X21928571Y34588571D01*
X21928571Y33731429D01*
D15*
X21928571Y34160000D02*
X22357143Y34160000D01*
D10*
X20857143Y33071429D02*
X20821428Y33107143D01*
X20750000Y33107143D01*
X20714286Y33071429D01*
X20714286Y32928572D01*
X20750000Y32892858D01*
X20821428Y32892858D01*
X20857143Y32928572D01*
D10*
X20964286Y33071429D02*
X21000000Y33107143D01*
X21000000Y32892858D01*
D10*
X20964286Y32892858D02*
X21035714Y32892858D01*
D10*
X21178571Y33000000D02*
X21142857Y33035715D01*
X21142857Y33071429D01*
X21178571Y33107143D01*
X21250000Y33107143D01*
X21285714Y33071429D01*
X21285714Y33035715D01*
X21250000Y33000000D01*
X21178571Y33000000D01*
D10*
X21250000Y33000000D02*
X21285714Y32964286D01*
X21285714Y32928572D01*
X21250000Y32892858D01*
X21178571Y32892858D01*
X21142857Y32928572D01*
X21142857Y32964286D01*
X21178571Y33000000D01*
D14*
X38900000Y13550000D02*
X38900000Y15000000D01*
D14*
X38900000Y15000000D02*
X41100000Y15000000D01*
D14*
X39450000Y13000000D02*
X38900000Y13550000D01*
D14*
X41100000Y13000000D02*
X39450000Y13000000D01*
D14*
X41100000Y13000000D02*
X41100000Y15000000D01*
G36*
X39500000Y13000000D02*
X39950000Y13000000D01*
X39950000Y13550000D01*
X39500000Y13550000D01*
X39500000Y13000000D01*
G37*
G36*
X39500000Y14400000D02*
X39950000Y14400000D01*
X39950000Y15000000D01*
X39500000Y15000000D01*
X39500000Y14400000D01*
G37*
D15*
X53571428Y15771429D02*
X53571428Y16628571D01*
X53000000Y16628571D01*
D15*
X52142857Y15771429D02*
X52714286Y15771429D01*
X52714286Y16628571D01*
X52142857Y16628571D01*
D15*
X52714286Y16200000D02*
X52285714Y16200000D01*
D15*
X51857143Y16628571D02*
X51857143Y15771429D01*
X51571428Y15771429D01*
X51285714Y16057143D01*
X51285714Y16342857D01*
X51571428Y16628571D01*
X51857143Y16628571D01*
D15*
X51000000Y16628571D02*
X50428571Y16628571D01*
D15*
X50142857Y15771429D02*
X50000000Y16628571D01*
X49857143Y16200000D01*
X49714286Y16628571D01*
X49571428Y15771429D01*
D15*
X48714286Y15914286D02*
X48857143Y15771429D01*
X49142857Y15771429D01*
X49285714Y15914286D01*
X49285714Y16057143D01*
X49142857Y16200000D01*
X48857143Y16200000D01*
X48714286Y16342857D01*
X48714286Y16485714D01*
X48857143Y16628571D01*
X49142857Y16628571D01*
X49285714Y16485714D01*
D15*
X48428571Y15914286D02*
X48285714Y15771429D01*
X48000000Y15771429D01*
X47857143Y15914286D01*
X47857143Y16057143D01*
X48428571Y16628571D01*
X47857143Y16628571D01*
D15*
X47428571Y16200000D02*
X47571428Y16057143D01*
X47571428Y15914286D01*
X47428571Y15771429D01*
X47142857Y15771429D01*
X47000000Y15914286D01*
X47000000Y16057143D01*
X47142857Y16200000D01*
X47428571Y16200000D01*
D15*
X47142857Y16200000D02*
X47000000Y16342857D01*
X47000000Y16485714D01*
X47142857Y16628571D01*
X47428571Y16628571D01*
X47571428Y16485714D01*
X47571428Y16342857D01*
X47428571Y16200000D01*
D15*
X46571428Y15914286D02*
X46428571Y15771429D01*
X46428571Y16628571D01*
D15*
X46571428Y16628571D02*
X46285714Y16628571D01*
D15*
X45857143Y15914286D02*
X45714286Y15771429D01*
X45428571Y15771429D01*
X45285714Y15914286D01*
X45285714Y16057143D01*
X45857143Y16628571D01*
X45285714Y16628571D01*
D15*
X45000000Y16628571D02*
X45000000Y15771429D01*
X44571428Y15771429D01*
X44428571Y15914286D01*
X44428571Y16057143D01*
X44571428Y16200000D01*
X45000000Y16200000D01*
D15*
X44571428Y16200000D02*
X44428571Y16342857D01*
X44428571Y16485714D01*
X44571428Y16628571D01*
X45000000Y16628571D01*
D15*
X44000000Y16200000D02*
X43714286Y16200000D01*
D15*
X43285714Y15914286D02*
X43142857Y15771429D01*
X42857143Y15771429D01*
X42714286Y15914286D01*
X42714286Y16057143D01*
X43285714Y16628571D01*
X42714286Y16628571D01*
D15*
X42285714Y16628571D02*
X42428571Y16485714D01*
X42428571Y15914286D01*
X42285714Y15771429D01*
X42000000Y15771429D01*
X41857143Y15914286D01*
X41857143Y16485714D01*
X42000000Y16628571D01*
X42285714Y16628571D01*
D15*
X42285714Y16485714D02*
X42000000Y15914286D01*
D15*
X41571428Y15914286D02*
X41428571Y15771429D01*
X41142857Y15771429D01*
X41000000Y15914286D01*
X41000000Y16057143D01*
X41571428Y16628571D01*
X41000000Y16628571D01*
D15*
X40571428Y16628571D02*
X40714286Y16485714D01*
X40714286Y15914286D01*
X40571428Y15771429D01*
X40285714Y15771429D01*
X40142857Y15914286D01*
X40142857Y16485714D01*
X40285714Y16628571D01*
X40571428Y16628571D01*
D15*
X40571428Y16485714D02*
X40285714Y15914286D01*
D15*
X39857143Y16628571D02*
X39285714Y16628571D01*
D15*
X39000000Y16628571D02*
X39000000Y15771429D01*
X38571428Y15771429D01*
X38428571Y15914286D01*
X38428571Y16057143D01*
X38571428Y16200000D01*
X39000000Y16200000D01*
D15*
X38142857Y15771429D02*
X38142857Y16628571D01*
X37571428Y16628571D01*
D15*
X36714286Y15914286D02*
X36857143Y15771429D01*
X37142857Y15771429D01*
X37285714Y15914286D01*
X37285714Y16485714D01*
X37142857Y16628571D01*
X36857143Y16628571D01*
X36714286Y16485714D01*
D15*
X35857143Y15914286D02*
X36000000Y15771429D01*
X36285714Y15771429D01*
X36428571Y15914286D01*
X36428571Y16485714D01*
X36285714Y16628571D01*
X36000000Y16628571D01*
X35857143Y16485714D01*
D15*
X35142857Y16628571D02*
X35142857Y15771429D01*
X35571428Y16342857D01*
X35000000Y16342857D01*
D15*
X34714286Y16628571D02*
X34142857Y16628571D01*
D15*
X33857143Y15914286D02*
X33714286Y15771429D01*
X33428571Y15771429D01*
X33285714Y15914286D01*
X33285714Y16057143D01*
X33857143Y16628571D01*
X33285714Y16628571D01*
D15*
X32714286Y16628571D02*
D15*
X32000000Y16628571D02*
X32142857Y16485714D01*
X32142857Y15914286D01*
X32000000Y15771429D01*
X31714286Y15771429D01*
X31571428Y15914286D01*
X31571428Y16485714D01*
X31714286Y16628571D01*
X32000000Y16628571D01*
D15*
X32000000Y16485714D02*
X31714286Y15914286D01*
D15*
X31285714Y16628571D02*
X30714286Y15771429D01*
D15*
X31285714Y15771429D02*
X30714286Y16628571D01*
D15*
X30428571Y15914286D02*
X30285714Y15771429D01*
X30000000Y15771429D01*
X29857143Y15914286D01*
X29857143Y16057143D01*
X30428571Y16628571D01*
X29857143Y16628571D01*
D15*
X29285714Y16628571D02*
D15*
X28571428Y16628571D02*
X28714286Y16485714D01*
X28714286Y15914286D01*
X28571428Y15771429D01*
X28285714Y15771429D01*
X28142857Y15914286D01*
X28142857Y16485714D01*
X28285714Y16628571D01*
X28571428Y16628571D01*
D15*
X28571428Y16485714D02*
X28285714Y15914286D01*
D15*
X27857143Y16628571D02*
X27857143Y15771429D01*
X27571428Y16200000D01*
X27285714Y15771429D01*
X27285714Y16628571D01*
D15*
X27000000Y16628571D02*
X27000000Y15771429D01*
X26714286Y16200000D01*
X26428571Y15771429D01*
X26428571Y16628571D01*
D12*
X40750000Y13785714D02*
X40750000Y14214285D01*
X40464286Y14214285D01*
D12*
X40035715Y13785714D02*
X40321429Y13785714D01*
X40321429Y14214285D01*
X40035715Y14214285D01*
D12*
X40321429Y14000000D02*
X40107143Y14000000D01*
D12*
X39892858Y14214285D02*
X39892858Y13785714D01*
X39750000Y13785714D01*
X39607143Y13928571D01*
X39607143Y14071428D01*
X39750000Y14214285D01*
X39892858Y14214285D01*
D12*
X39392858Y13857143D02*
X39321429Y13785714D01*
X39321429Y14214285D01*
D12*
X39392858Y14214285D02*
X39250000Y14214285D01*
D14*
X500000Y5325000D02*
X500000Y9575000D01*
D14*
X500000Y5325000D02*
X5500000Y5325000D01*
D14*
X500000Y9575000D02*
X5500000Y9575000D01*
D14*
X1500000Y5325000D02*
X2000000Y6032107D01*
D14*
X2000000Y6032107D02*
X2500000Y5325000D01*
D14*
X5500000Y5325000D02*
X5500000Y9575000D01*
D15*
X-16857143Y11408571D02*
X-16857143Y10694286D01*
X-17000000Y10551429D01*
X-17285714Y10551429D01*
X-17428571Y10694286D01*
D15*
X-16000000Y11265714D02*
X-16142857Y11408571D01*
X-16428571Y11408571D01*
X-16571429Y11265714D01*
X-16571429Y11122857D01*
X-16428571Y10980000D01*
X-16142857Y10980000D01*
X-16000000Y10837143D01*
X-16000000Y10694286D01*
X-16142857Y10551429D01*
X-16428571Y10551429D01*
X-16571429Y10694286D01*
D15*
X-15714286Y11408571D02*
X-15142857Y11408571D01*
D15*
X-15428571Y11408571D02*
X-15428571Y10551429D01*
D15*
X-14857143Y10551429D02*
X-14285714Y10551429D01*
D15*
X-13428571Y11265714D02*
X-13571429Y11408571D01*
X-13857143Y11408571D01*
X-14000000Y11265714D01*
X-14000000Y11122857D01*
X-13857143Y10980000D01*
X-13571429Y10980000D01*
X-13428571Y10837143D01*
X-13428571Y10694286D01*
X-13571429Y10551429D01*
X-13857143Y10551429D01*
X-14000000Y10694286D01*
D15*
X-13142857Y10551429D02*
X-13142857Y11408571D01*
D15*
X-12571429Y10551429D02*
X-12571429Y11408571D01*
D15*
X-13142857Y10980000D02*
X-12571429Y10980000D01*
D15*
X-12285714Y10551429D02*
X-11714286Y10551429D01*
D15*
X-10857143Y11265714D02*
X-11000000Y11408571D01*
X-11285714Y11408571D01*
X-11428571Y11265714D01*
X-11428571Y11122857D01*
X-11285714Y10980000D01*
X-11000000Y10980000D01*
X-10857143Y10837143D01*
X-10857143Y10694286D01*
X-11000000Y10551429D01*
X-11285714Y10551429D01*
X-11428571Y10694286D01*
D15*
X-10571429Y10551429D02*
X-10571429Y11408571D01*
X-10285714Y10980000D01*
X-10000000Y11408571D01*
X-10000000Y10551429D01*
D15*
X-9571429Y10551429D02*
X-9714286Y10694286D01*
X-9714286Y11265714D01*
X-9571429Y11408571D01*
X-9285714Y11408571D01*
X-9142857Y11265714D01*
X-9142857Y10694286D01*
X-9285714Y10551429D01*
X-9571429Y10551429D01*
D15*
X-9571429Y10694286D02*
X-9285714Y11265714D01*
D15*
X-8857143Y11408571D02*
X-8285714Y11408571D01*
X-8571429Y10980000D01*
X-8285714Y10837143D01*
X-8285714Y10694286D01*
X-8428571Y10551429D01*
X-8714286Y10551429D01*
X-8857143Y10694286D01*
D15*
X-8000000Y10551429D02*
X-8000000Y11408571D01*
X-7571429Y11408571D01*
X-7428571Y11265714D01*
X-7428571Y11122857D01*
X-7571429Y10980000D01*
X-8000000Y10980000D01*
D15*
X-7571429Y10980000D02*
X-7428571Y10837143D01*
X-7428571Y10694286D01*
X-7571429Y10551429D01*
X-8000000Y10551429D01*
D15*
X-7000000Y10980000D02*
X-6714286Y10980000D01*
D15*
X-5714286Y11265714D02*
X-5857143Y11408571D01*
X-6142857Y11408571D01*
X-6285714Y11265714D01*
X-6285714Y11122857D01*
X-6142857Y10980000D01*
X-5857143Y10980000D01*
X-5714286Y10837143D01*
X-5714286Y10694286D01*
X-5857143Y10551429D01*
X-6142857Y10551429D01*
X-6285714Y10694286D01*
D15*
X-5428571Y10551429D02*
X-5428571Y11408571D01*
X-5000000Y11408571D01*
X-4857143Y11265714D01*
X-4857143Y11122857D01*
X-5000000Y10980000D01*
X-5428571Y10980000D01*
D15*
X-5142857Y10980000D02*
X-4857143Y10551429D01*
D15*
X-4000000Y11265714D02*
X-4142857Y11408571D01*
X-4428571Y11408571D01*
X-4571429Y11265714D01*
X-4571429Y11122857D01*
X-4428571Y10980000D01*
X-4142857Y10980000D01*
X-4000000Y10837143D01*
X-4000000Y10694286D01*
X-4142857Y10551429D01*
X-4428571Y10551429D01*
X-4571429Y10694286D01*
D15*
X-3142857Y11265714D02*
X-3285714Y11408571D01*
X-3571429Y11408571D01*
X-3714286Y11265714D01*
X-3714286Y11122857D01*
X-3571429Y10980000D01*
X-3285714Y10980000D01*
X-3142857Y10837143D01*
X-3142857Y10694286D01*
X-3285714Y10551429D01*
X-3571429Y10551429D01*
X-3714286Y10694286D01*
D15*
X-2714286Y10980000D02*
X-2428571Y10980000D01*
D15*
X-2000000Y11408571D02*
X-1428571Y11408571D01*
D15*
X-1714286Y11408571D02*
X-1714286Y10551429D01*
D15*
X-1142857Y10551429D02*
X-1142857Y11408571D01*
X-714286Y11408571D01*
X-571429Y11265714D01*
X-571429Y11122857D01*
X-714286Y10980000D01*
X-1142857Y10980000D01*
D15*
X-714286Y10980000D02*
X-571429Y10837143D01*
X-571429Y10694286D01*
X-714286Y10551429D01*
X-1142857Y10551429D01*
D15*
X-285714Y10551429D02*
X285714Y10551429D01*
D15*
X714286Y11265714D02*
X857143Y11408571D01*
X857143Y10551429D01*
D15*
X714286Y10551429D02*
X1000000Y10551429D01*
D15*
X1428571Y10551429D02*
X2000000Y11408571D01*
D15*
X1428571Y11408571D02*
X2000000Y10551429D01*
D15*
X2428571Y10551429D02*
X2285714Y10694286D01*
X2285714Y11265714D01*
X2428571Y11408571D01*
X2714286Y11408571D01*
X2857143Y11265714D01*
X2857143Y10694286D01*
X2714286Y10551429D01*
X2428571Y10551429D01*
D15*
X2428571Y10694286D02*
X2714286Y11265714D01*
D15*
X3142857Y11408571D02*
X3714286Y11408571D01*
X3428571Y10980000D01*
X3714286Y10837143D01*
X3714286Y10694286D01*
X3571429Y10551429D01*
X3285714Y10551429D01*
X3142857Y10694286D01*
D15*
X4142857Y10980000D02*
X4428571Y10980000D01*
D15*
X5000000Y11265714D02*
X5142857Y11408571D01*
X5142857Y10551429D01*
D15*
X5000000Y10551429D02*
X5285714Y10551429D01*
D15*
X5714286Y10551429D02*
X5714286Y11408571D01*
X6000000Y10980000D01*
X6285714Y11408571D01*
X6285714Y10551429D01*
D15*
X6571429Y10551429D02*
X6571429Y11408571D01*
X7000000Y11408571D01*
X7142857Y11265714D01*
X7142857Y11122857D01*
X7000000Y10980000D01*
X6571429Y10980000D01*
D15*
X7428571Y10551429D02*
X8000000Y10551429D01*
D15*
X8285714Y10551429D02*
X8285714Y11408571D01*
X8714286Y11408571D01*
X8857143Y11265714D01*
X8857143Y11122857D01*
X8714286Y10980000D01*
X8285714Y10980000D01*
D15*
X9285714Y11265714D02*
X9428571Y11408571D01*
X9428571Y10551429D01*
D15*
X9285714Y10551429D02*
X9571429Y10551429D01*
D15*
X10285714Y10551429D02*
D15*
X11000000Y10551429D02*
X10857143Y10694286D01*
X10857143Y11265714D01*
X11000000Y11408571D01*
X11285714Y11408571D01*
X11428571Y11265714D01*
X11428571Y10694286D01*
X11285714Y10551429D01*
X11000000Y10551429D01*
D15*
X11000000Y10694286D02*
X11285714Y11265714D01*
D15*
X11857143Y10551429D02*
X11714286Y10694286D01*
X11714286Y11265714D01*
X11857143Y11408571D01*
X12142857Y11408571D01*
X12285714Y11265714D01*
X12285714Y10694286D01*
X12142857Y10551429D01*
X11857143Y10551429D01*
D15*
X11857143Y10694286D02*
X12142857Y11265714D01*
D15*
X12571429Y10551429D02*
X12571429Y11408571D01*
X12857143Y10980000D01*
X13142857Y11408571D01*
X13142857Y10551429D01*
D15*
X13428571Y10551429D02*
X13428571Y11408571D01*
X13714286Y10980000D01*
X14000000Y11408571D01*
X14000000Y10551429D01*
D15*
X14285714Y10551429D02*
X14857143Y10551429D01*
D15*
X15142857Y10551429D02*
X15142857Y11408571D01*
D15*
X15714286Y10551429D02*
X15714286Y11408571D01*
D15*
X15142857Y10980000D02*
X15714286Y10980000D01*
D15*
X16142857Y10551429D02*
X16000000Y10694286D01*
X16000000Y11265714D01*
X16142857Y11408571D01*
X16428571Y11408571D01*
X16571429Y11265714D01*
X16571429Y10694286D01*
X16428571Y10551429D01*
X16142857Y10551429D01*
D15*
X16857143Y10551429D02*
X16857143Y11408571D01*
X17285714Y11408571D01*
X17428571Y11265714D01*
X17428571Y11122857D01*
X17285714Y10980000D01*
X16857143Y10980000D01*
D15*
X17142857Y10980000D02*
X17428571Y10551429D01*
D15*
X17714286Y11408571D02*
X18285714Y11408571D01*
D15*
X18000000Y11408571D02*
X18000000Y10551429D01*
D15*
X17714286Y10551429D02*
X18285714Y10551429D01*
D15*
X18571429Y11408571D02*
X19142857Y11408571D01*
X18571429Y10551429D01*
X19142857Y10551429D01*
D15*
X19571429Y10551429D02*
X19428571Y10694286D01*
X19428571Y11265714D01*
X19571429Y11408571D01*
X19857143Y11408571D01*
X20000000Y11265714D01*
X20000000Y10694286D01*
X19857143Y10551429D01*
X19571429Y10551429D01*
D15*
X20285714Y10551429D02*
X20285714Y11408571D01*
X20857143Y10551429D01*
X20857143Y11408571D01*
D15*
X21142857Y11408571D02*
X21714286Y11408571D01*
D15*
X21428571Y11408571D02*
X21428571Y10551429D01*
D15*
X22000000Y10551429D02*
X22285714Y11408571D01*
X22571429Y10551429D01*
D15*
X22142857Y10980000D02*
X22428571Y10980000D01*
D15*
X22857143Y11408571D02*
X22857143Y10551429D01*
X23428571Y10551429D01*
D15*
X2071428Y7428571D02*
X2071428Y6714286D01*
X1928571Y6571429D01*
X1642857Y6571429D01*
X1500000Y6714286D01*
D15*
X2928571Y7285714D02*
X2785714Y7428571D01*
X2500000Y7428571D01*
X2357142Y7285714D01*
X2357142Y7142857D01*
X2500000Y7000000D01*
X2785714Y7000000D01*
X2928571Y6857143D01*
X2928571Y6714286D01*
X2785714Y6571429D01*
X2500000Y6571429D01*
X2357142Y6714286D01*
D15*
X3214285Y7428571D02*
X3785714Y7428571D01*
D15*
X3500000Y7428571D02*
X3500000Y6571429D01*
D15*
X4214285Y7285714D02*
X4357142Y7428571D01*
X4357142Y6571429D01*
D15*
X4214285Y6571429D02*
X4500000Y6571429D01*
D14*
X50500000Y33325000D02*
X50500000Y37575000D01*
D14*
X50500000Y33325000D02*
X55500000Y33325000D01*
D14*
X50500000Y37575000D02*
X55500000Y37575000D01*
D14*
X51500000Y33325000D02*
X52000000Y34032107D01*
D14*
X52000000Y34032107D02*
X52500000Y33325000D01*
D14*
X55500000Y33325000D02*
X55500000Y37575000D01*
D15*
X33142857Y39408571D02*
X33142857Y38694286D01*
X33000000Y38551429D01*
X32714286Y38551429D01*
X32571429Y38694286D01*
D15*
X34000000Y39265714D02*
X33857143Y39408571D01*
X33571429Y39408571D01*
X33428571Y39265714D01*
X33428571Y39122857D01*
X33571429Y38980000D01*
X33857143Y38980000D01*
X34000000Y38837143D01*
X34000000Y38694286D01*
X33857143Y38551429D01*
X33571429Y38551429D01*
X33428571Y38694286D01*
D15*
X34285714Y39408571D02*
X34857143Y39408571D01*
D15*
X34571429Y39408571D02*
X34571429Y38551429D01*
D15*
X35142857Y38551429D02*
X35714286Y38551429D01*
D15*
X36571429Y39265714D02*
X36428571Y39408571D01*
X36142857Y39408571D01*
X36000000Y39265714D01*
X36000000Y39122857D01*
X36142857Y38980000D01*
X36428571Y38980000D01*
X36571429Y38837143D01*
X36571429Y38694286D01*
X36428571Y38551429D01*
X36142857Y38551429D01*
X36000000Y38694286D01*
D15*
X36857143Y38551429D02*
X36857143Y39408571D01*
D15*
X37428571Y38551429D02*
X37428571Y39408571D01*
D15*
X36857143Y38980000D02*
X37428571Y38980000D01*
D15*
X37714286Y38551429D02*
X38285714Y38551429D01*
D15*
X39142857Y39265714D02*
X39000000Y39408571D01*
X38714286Y39408571D01*
X38571429Y39265714D01*
X38571429Y39122857D01*
X38714286Y38980000D01*
X39000000Y38980000D01*
X39142857Y38837143D01*
X39142857Y38694286D01*
X39000000Y38551429D01*
X38714286Y38551429D01*
X38571429Y38694286D01*
D15*
X39428571Y38551429D02*
X39428571Y39408571D01*
X39714286Y38980000D01*
X40000000Y39408571D01*
X40000000Y38551429D01*
D15*
X40428571Y38551429D02*
X40285714Y38694286D01*
X40285714Y39265714D01*
X40428571Y39408571D01*
X40714286Y39408571D01*
X40857143Y39265714D01*
X40857143Y38694286D01*
X40714286Y38551429D01*
X40428571Y38551429D01*
D15*
X40428571Y38694286D02*
X40714286Y39265714D01*
D15*
X41142857Y39408571D02*
X41714286Y39408571D01*
X41428571Y38980000D01*
X41714286Y38837143D01*
X41714286Y38694286D01*
X41571429Y38551429D01*
X41285714Y38551429D01*
X41142857Y38694286D01*
D15*
X42000000Y38551429D02*
X42000000Y39408571D01*
X42428571Y39408571D01*
X42571429Y39265714D01*
X42571429Y39122857D01*
X42428571Y38980000D01*
X42000000Y38980000D01*
D15*
X42428571Y38980000D02*
X42571429Y38837143D01*
X42571429Y38694286D01*
X42428571Y38551429D01*
X42000000Y38551429D01*
D15*
X43000000Y38980000D02*
X43285714Y38980000D01*
D15*
X44285714Y39265714D02*
X44142857Y39408571D01*
X43857143Y39408571D01*
X43714286Y39265714D01*
X43714286Y39122857D01*
X43857143Y38980000D01*
X44142857Y38980000D01*
X44285714Y38837143D01*
X44285714Y38694286D01*
X44142857Y38551429D01*
X43857143Y38551429D01*
X43714286Y38694286D01*
D15*
X44571429Y38551429D02*
X44571429Y39408571D01*
X45000000Y39408571D01*
X45142857Y39265714D01*
X45142857Y39122857D01*
X45000000Y38980000D01*
X44571429Y38980000D01*
D15*
X44857143Y38980000D02*
X45142857Y38551429D01*
D15*
X46000000Y39265714D02*
X45857143Y39408571D01*
X45571429Y39408571D01*
X45428571Y39265714D01*
X45428571Y39122857D01*
X45571429Y38980000D01*
X45857143Y38980000D01*
X46000000Y38837143D01*
X46000000Y38694286D01*
X45857143Y38551429D01*
X45571429Y38551429D01*
X45428571Y38694286D01*
D15*
X46857143Y39265714D02*
X46714286Y39408571D01*
X46428571Y39408571D01*
X46285714Y39265714D01*
X46285714Y39122857D01*
X46428571Y38980000D01*
X46714286Y38980000D01*
X46857143Y38837143D01*
X46857143Y38694286D01*
X46714286Y38551429D01*
X46428571Y38551429D01*
X46285714Y38694286D01*
D15*
X47285714Y38980000D02*
X47571429Y38980000D01*
D15*
X48000000Y39408571D02*
X48571429Y39408571D01*
D15*
X48285714Y39408571D02*
X48285714Y38551429D01*
D15*
X48857143Y38551429D02*
X48857143Y39408571D01*
X49285714Y39408571D01*
X49428571Y39265714D01*
X49428571Y39122857D01*
X49285714Y38980000D01*
X48857143Y38980000D01*
D15*
X49285714Y38980000D02*
X49428571Y38837143D01*
X49428571Y38694286D01*
X49285714Y38551429D01*
X48857143Y38551429D01*
D15*
X49714286Y38551429D02*
X50285714Y38551429D01*
D15*
X50714286Y39265714D02*
X50857143Y39408571D01*
X50857143Y38551429D01*
D15*
X50714286Y38551429D02*
X51000000Y38551429D01*
D15*
X51428571Y38551429D02*
X52000000Y39408571D01*
D15*
X51428571Y39408571D02*
X52000000Y38551429D01*
D15*
X52428571Y38551429D02*
X52285714Y38694286D01*
X52285714Y39265714D01*
X52428571Y39408571D01*
X52714286Y39408571D01*
X52857143Y39265714D01*
X52857143Y38694286D01*
X52714286Y38551429D01*
X52428571Y38551429D01*
D15*
X52428571Y38694286D02*
X52714286Y39265714D01*
D15*
X53142857Y39408571D02*
X53714286Y39408571D01*
X53428571Y38980000D01*
X53714286Y38837143D01*
X53714286Y38694286D01*
X53571429Y38551429D01*
X53285714Y38551429D01*
X53142857Y38694286D01*
D15*
X54142857Y38980000D02*
X54428571Y38980000D01*
D15*
X55000000Y39265714D02*
X55142857Y39408571D01*
X55142857Y38551429D01*
D15*
X55000000Y38551429D02*
X55285714Y38551429D01*
D15*
X55714286Y38551429D02*
X55714286Y39408571D01*
X56000000Y38980000D01*
X56285714Y39408571D01*
X56285714Y38551429D01*
D15*
X56571429Y38551429D02*
X56571429Y39408571D01*
X57000000Y39408571D01*
X57142857Y39265714D01*
X57142857Y39122857D01*
X57000000Y38980000D01*
X56571429Y38980000D01*
D15*
X57428571Y38551429D02*
X58000000Y38551429D01*
D15*
X58285714Y38551429D02*
X58285714Y39408571D01*
X58714286Y39408571D01*
X58857143Y39265714D01*
X58857143Y39122857D01*
X58714286Y38980000D01*
X58285714Y38980000D01*
D15*
X59285714Y39265714D02*
X59428571Y39408571D01*
X59428571Y38551429D01*
D15*
X59285714Y38551429D02*
X59571429Y38551429D01*
D15*
X60285714Y38551429D02*
D15*
X61000000Y38551429D02*
X60857143Y38694286D01*
X60857143Y39265714D01*
X61000000Y39408571D01*
X61285714Y39408571D01*
X61428571Y39265714D01*
X61428571Y38694286D01*
X61285714Y38551429D01*
X61000000Y38551429D01*
D15*
X61000000Y38694286D02*
X61285714Y39265714D01*
D15*
X61857143Y38551429D02*
X61714286Y38694286D01*
X61714286Y39265714D01*
X61857143Y39408571D01*
X62142857Y39408571D01*
X62285714Y39265714D01*
X62285714Y38694286D01*
X62142857Y38551429D01*
X61857143Y38551429D01*
D15*
X61857143Y38694286D02*
X62142857Y39265714D01*
D15*
X62571429Y38551429D02*
X62571429Y39408571D01*
X62857143Y38980000D01*
X63142857Y39408571D01*
X63142857Y38551429D01*
D15*
X63428571Y38551429D02*
X63428571Y39408571D01*
X63714286Y38980000D01*
X64000000Y39408571D01*
X64000000Y38551429D01*
D15*
X64285714Y38551429D02*
X64857143Y38551429D01*
D15*
X65142857Y38551429D02*
X65142857Y39408571D01*
D15*
X65714286Y38551429D02*
X65714286Y39408571D01*
D15*
X65142857Y38980000D02*
X65714286Y38980000D01*
D15*
X66142857Y38551429D02*
X66000000Y38694286D01*
X66000000Y39265714D01*
X66142857Y39408571D01*
X66428571Y39408571D01*
X66571429Y39265714D01*
X66571429Y38694286D01*
X66428571Y38551429D01*
X66142857Y38551429D01*
D15*
X66857143Y38551429D02*
X66857143Y39408571D01*
X67285714Y39408571D01*
X67428571Y39265714D01*
X67428571Y39122857D01*
X67285714Y38980000D01*
X66857143Y38980000D01*
D15*
X67142857Y38980000D02*
X67428571Y38551429D01*
D15*
X67714286Y39408571D02*
X68285714Y39408571D01*
D15*
X68000000Y39408571D02*
X68000000Y38551429D01*
D15*
X67714286Y38551429D02*
X68285714Y38551429D01*
D15*
X68571429Y39408571D02*
X69142857Y39408571D01*
X68571429Y38551429D01*
X69142857Y38551429D01*
D15*
X69571429Y38551429D02*
X69428571Y38694286D01*
X69428571Y39265714D01*
X69571429Y39408571D01*
X69857143Y39408571D01*
X70000000Y39265714D01*
X70000000Y38694286D01*
X69857143Y38551429D01*
X69571429Y38551429D01*
D15*
X70285714Y38551429D02*
X70285714Y39408571D01*
X70857143Y38551429D01*
X70857143Y39408571D01*
D15*
X71142857Y39408571D02*
X71714286Y39408571D01*
D15*
X71428571Y39408571D02*
X71428571Y38551429D01*
D15*
X72000000Y38551429D02*
X72285714Y39408571D01*
X72571429Y38551429D01*
D15*
X72142857Y38980000D02*
X72428571Y38980000D01*
D15*
X72857143Y39408571D02*
X72857143Y38551429D01*
X73428571Y38551429D01*
D15*
X52000000Y35428571D02*
X52000000Y34714286D01*
X51857143Y34571429D01*
X51571429Y34571429D01*
X51428572Y34714286D01*
D15*
X52857143Y35285714D02*
X52714286Y35428571D01*
X52428572Y35428571D01*
X52285714Y35285714D01*
X52285714Y35142857D01*
X52428572Y35000000D01*
X52714286Y35000000D01*
X52857143Y34857143D01*
X52857143Y34714286D01*
X52714286Y34571429D01*
X52428572Y34571429D01*
X52285714Y34714286D01*
D15*
X53142857Y35428571D02*
X53714286Y35428571D01*
D15*
X53428572Y35428571D02*
X53428572Y34571429D01*
D15*
X54000000Y35285714D02*
X54142857Y35428571D01*
X54428572Y35428571D01*
X54571429Y35285714D01*
X54571429Y35142857D01*
X54000000Y34571429D01*
X54571429Y34571429D01*
D14*
X23530000Y-650000D02*
X23530000Y6650000D01*
D14*
X23530000Y-650000D02*
X32470000Y-650000D01*
D14*
X23530000Y6650000D02*
X32470000Y6650000D01*
D14*
X32470000Y-650000D02*
X32470000Y6650000D01*
D15*
X13142858Y8528571D02*
X13142858Y7814286D01*
X13285715Y7671429D01*
X13571429Y7671429D01*
X13714286Y7814286D01*
X13714286Y8528571D01*
D15*
X14571429Y8385714D02*
X14428572Y8528571D01*
X14142858Y8528571D01*
X14000000Y8385714D01*
X14000000Y8242857D01*
X14142858Y8100000D01*
X14428572Y8100000D01*
X14571429Y7957143D01*
X14571429Y7814286D01*
X14428572Y7671429D01*
X14142858Y7671429D01*
X14000000Y7814286D01*
D15*
X14857143Y7671429D02*
X14857143Y8528571D01*
X15285715Y8528571D01*
X15428572Y8385714D01*
X15428572Y8242857D01*
X15285715Y8100000D01*
X14857143Y8100000D01*
D15*
X15285715Y8100000D02*
X15428572Y7957143D01*
X15428572Y7814286D01*
X15285715Y7671429D01*
X14857143Y7671429D01*
D15*
X15714286Y7671429D02*
X16285715Y7671429D01*
D15*
X17142858Y8385714D02*
X17000000Y8528571D01*
X16714286Y8528571D01*
X16571429Y8385714D01*
X16571429Y7814286D01*
X16714286Y7671429D01*
X17000000Y7671429D01*
X17142858Y7814286D01*
D15*
X17428572Y7671429D02*
X18000000Y7671429D01*
D15*
X18285715Y7671429D02*
X18285715Y8528571D01*
X18714286Y8528571D01*
X18857143Y8385714D01*
X18857143Y8242857D01*
X18714286Y8100000D01*
X18285715Y8100000D01*
D15*
X18571429Y8100000D02*
X18857143Y7671429D01*
D15*
X19714286Y8528571D02*
X19142858Y8528571D01*
X19142858Y7671429D01*
X19714286Y7671429D01*
D15*
X19142858Y8100000D02*
X19571429Y8100000D01*
D15*
X20571429Y8385714D02*
X20428572Y8528571D01*
X20142858Y8528571D01*
X20000000Y8385714D01*
X20000000Y7814286D01*
X20142858Y7671429D01*
X20428572Y7671429D01*
X20571429Y7814286D01*
D15*
X21428572Y8528571D02*
X20857143Y8528571D01*
X20857143Y7671429D01*
X21428572Y7671429D01*
D15*
X20857143Y8100000D02*
X21285715Y8100000D01*
D15*
X21714286Y7671429D02*
X21714286Y8528571D01*
X22142858Y8528571D01*
X22285715Y8385714D01*
X22285715Y8242857D01*
X22142858Y8100000D01*
X21714286Y8100000D01*
D15*
X22571429Y8528571D02*
X23142858Y8528571D01*
D15*
X22857143Y8528571D02*
X22857143Y7671429D01*
D15*
X23428572Y7671429D02*
X23714286Y8528571D01*
X24000000Y7671429D01*
D15*
X23571429Y8100000D02*
X23857143Y8100000D01*
D15*
X24857143Y8385714D02*
X24714286Y8528571D01*
X24428572Y8528571D01*
X24285715Y8385714D01*
X24285715Y7814286D01*
X24428572Y7671429D01*
X24714286Y7671429D01*
X24857143Y7814286D01*
D15*
X25142858Y8528571D02*
X25142858Y7671429D01*
X25714286Y7671429D01*
D15*
X26571429Y8528571D02*
X26000000Y8528571D01*
X26000000Y7671429D01*
X26571429Y7671429D01*
D15*
X26000000Y8100000D02*
X26428572Y8100000D01*
D15*
X26857143Y7671429D02*
X27428572Y7671429D01*
D15*
X27714286Y7671429D02*
X27714286Y8528571D01*
D15*
X28285715Y7671429D02*
X28285715Y8528571D01*
D15*
X27714286Y8100000D02*
X28285715Y8100000D01*
D15*
X28571429Y7671429D02*
X28571429Y8528571D01*
X29000000Y8528571D01*
X29142858Y8385714D01*
X29142858Y8242857D01*
X29000000Y8100000D01*
X28571429Y8100000D01*
D15*
X28857143Y8100000D02*
X29142858Y7671429D01*
D15*
X29571429Y7671429D02*
X29428572Y7814286D01*
X29428572Y8385714D01*
X29571429Y8528571D01*
X29857143Y8528571D01*
X30000000Y8385714D01*
X30000000Y7814286D01*
X29857143Y7671429D01*
X29571429Y7671429D01*
D15*
X30285715Y7671429D02*
X30857143Y7671429D01*
D15*
X31142858Y8528571D02*
X31714286Y8528571D01*
D15*
X31428572Y8528571D02*
X31428572Y7671429D01*
D15*
X32000000Y8528571D02*
X32285715Y8100000D01*
X32571429Y8528571D01*
D15*
X32285715Y8100000D02*
X32285715Y7671429D01*
D15*
X32857143Y7671429D02*
X32857143Y8528571D01*
X33285715Y8528571D01*
X33428572Y8385714D01*
X33428572Y8242857D01*
X33285715Y8100000D01*
X32857143Y8100000D01*
D15*
X34285715Y8528571D02*
X33714286Y8528571D01*
X33714286Y7671429D01*
X34285715Y7671429D01*
D15*
X33714286Y8100000D02*
X34142858Y8100000D01*
D15*
X34714286Y8100000D02*
X35000000Y8100000D01*
D15*
X36000000Y8385714D02*
X35857143Y8528571D01*
X35571429Y8528571D01*
X35428572Y8385714D01*
X35428572Y7814286D01*
X35571429Y7671429D01*
X35857143Y7671429D01*
X36000000Y7814286D01*
D15*
X36428572Y8100000D02*
X36714286Y8100000D01*
D15*
X37142858Y8528571D02*
X37714286Y8528571D01*
X37428572Y8100000D01*
X37714286Y7957143D01*
X37714286Y7814286D01*
X37571429Y7671429D01*
X37285715Y7671429D01*
X37142858Y7814286D01*
D15*
X38142858Y8385714D02*
X38285715Y8528571D01*
X38285715Y7671429D01*
D15*
X38142858Y7671429D02*
X38428572Y7671429D01*
D15*
X39000000Y8100000D02*
X39285715Y8100000D01*
D15*
X39714286Y7671429D02*
X39714286Y8528571D01*
X40000000Y8100000D01*
X40285715Y8528571D01*
X40285715Y7671429D01*
D15*
X40714286Y8100000D02*
X41000000Y8100000D01*
D15*
X41571429Y8385714D02*
X41714286Y8528571D01*
X41714286Y7671429D01*
D15*
X41571429Y7671429D02*
X41857143Y7671429D01*
D15*
X42285715Y8385714D02*
X42428572Y8528571D01*
X42714286Y8528571D01*
X42857143Y8385714D01*
X42857143Y8242857D01*
X42285715Y7671429D01*
X42857143Y7671429D01*
D15*
X26500000Y3428571D02*
X26500000Y2714286D01*
X26642857Y2571429D01*
X26928571Y2571429D01*
X27071428Y2714286D01*
X27071428Y3428571D01*
D15*
X27928571Y3285714D02*
X27785714Y3428571D01*
X27500000Y3428571D01*
X27357142Y3285714D01*
X27357142Y3142857D01*
X27500000Y3000000D01*
X27785714Y3000000D01*
X27928571Y2857143D01*
X27928571Y2714286D01*
X27785714Y2571429D01*
X27500000Y2571429D01*
X27357142Y2714286D01*
D15*
X28214285Y2571429D02*
X28214285Y3428571D01*
X28642857Y3428571D01*
X28785714Y3285714D01*
X28785714Y3142857D01*
X28642857Y3000000D01*
X28214285Y3000000D01*
D15*
X28642857Y3000000D02*
X28785714Y2857143D01*
X28785714Y2714286D01*
X28642857Y2571429D01*
X28214285Y2571429D01*
D15*
X29214285Y3285714D02*
X29357142Y3428571D01*
X29357142Y2571429D01*
D15*
X29214285Y2571429D02*
X29500000Y2571429D01*
D14*
X500000Y12325000D02*
X500000Y16575000D01*
D14*
X500000Y12325000D02*
X5500000Y12325000D01*
D14*
X500000Y16575000D02*
X5500000Y16575000D01*
D14*
X1500000Y12325000D02*
X2000000Y13032107D01*
D14*
X2000000Y13032107D02*
X2500000Y12325000D01*
D14*
X5500000Y12325000D02*
X5500000Y16575000D01*
D15*
X-16857143Y18408571D02*
X-16857143Y17694286D01*
X-17000000Y17551429D01*
X-17285714Y17551429D01*
X-17428571Y17694286D01*
D15*
X-16000000Y18265714D02*
X-16142857Y18408571D01*
X-16428571Y18408571D01*
X-16571429Y18265714D01*
X-16571429Y18122857D01*
X-16428571Y17980000D01*
X-16142857Y17980000D01*
X-16000000Y17837143D01*
X-16000000Y17694286D01*
X-16142857Y17551429D01*
X-16428571Y17551429D01*
X-16571429Y17694286D01*
D15*
X-15714286Y18408571D02*
X-15142857Y18408571D01*
D15*
X-15428571Y18408571D02*
X-15428571Y17551429D01*
D15*
X-14857143Y17551429D02*
X-14285714Y17551429D01*
D15*
X-13428571Y18265714D02*
X-13571429Y18408571D01*
X-13857143Y18408571D01*
X-14000000Y18265714D01*
X-14000000Y18122857D01*
X-13857143Y17980000D01*
X-13571429Y17980000D01*
X-13428571Y17837143D01*
X-13428571Y17694286D01*
X-13571429Y17551429D01*
X-13857143Y17551429D01*
X-14000000Y17694286D01*
D15*
X-13142857Y17551429D02*
X-13142857Y18408571D01*
D15*
X-12571429Y17551429D02*
X-12571429Y18408571D01*
D15*
X-13142857Y17980000D02*
X-12571429Y17980000D01*
D15*
X-12285714Y17551429D02*
X-11714286Y17551429D01*
D15*
X-10857143Y18265714D02*
X-11000000Y18408571D01*
X-11285714Y18408571D01*
X-11428571Y18265714D01*
X-11428571Y18122857D01*
X-11285714Y17980000D01*
X-11000000Y17980000D01*
X-10857143Y17837143D01*
X-10857143Y17694286D01*
X-11000000Y17551429D01*
X-11285714Y17551429D01*
X-11428571Y17694286D01*
D15*
X-10571429Y17551429D02*
X-10571429Y18408571D01*
X-10285714Y17980000D01*
X-10000000Y18408571D01*
X-10000000Y17551429D01*
D15*
X-9571429Y17551429D02*
X-9714286Y17694286D01*
X-9714286Y18265714D01*
X-9571429Y18408571D01*
X-9285714Y18408571D01*
X-9142857Y18265714D01*
X-9142857Y17694286D01*
X-9285714Y17551429D01*
X-9571429Y17551429D01*
D15*
X-9571429Y17694286D02*
X-9285714Y18265714D01*
D15*
X-8857143Y18408571D02*
X-8285714Y18408571D01*
X-8571429Y17980000D01*
X-8285714Y17837143D01*
X-8285714Y17694286D01*
X-8428571Y17551429D01*
X-8714286Y17551429D01*
X-8857143Y17694286D01*
D15*
X-8000000Y17551429D02*
X-8000000Y18408571D01*
X-7571429Y18408571D01*
X-7428571Y18265714D01*
X-7428571Y18122857D01*
X-7571429Y17980000D01*
X-8000000Y17980000D01*
D15*
X-7571429Y17980000D02*
X-7428571Y17837143D01*
X-7428571Y17694286D01*
X-7571429Y17551429D01*
X-8000000Y17551429D01*
D15*
X-7000000Y17980000D02*
X-6714286Y17980000D01*
D15*
X-5714286Y18265714D02*
X-5857143Y18408571D01*
X-6142857Y18408571D01*
X-6285714Y18265714D01*
X-6285714Y18122857D01*
X-6142857Y17980000D01*
X-5857143Y17980000D01*
X-5714286Y17837143D01*
X-5714286Y17694286D01*
X-5857143Y17551429D01*
X-6142857Y17551429D01*
X-6285714Y17694286D01*
D15*
X-5428571Y17551429D02*
X-5428571Y18408571D01*
X-5000000Y18408571D01*
X-4857143Y18265714D01*
X-4857143Y18122857D01*
X-5000000Y17980000D01*
X-5428571Y17980000D01*
D15*
X-5142857Y17980000D02*
X-4857143Y17551429D01*
D15*
X-4000000Y18265714D02*
X-4142857Y18408571D01*
X-4428571Y18408571D01*
X-4571429Y18265714D01*
X-4571429Y18122857D01*
X-4428571Y17980000D01*
X-4142857Y17980000D01*
X-4000000Y17837143D01*
X-4000000Y17694286D01*
X-4142857Y17551429D01*
X-4428571Y17551429D01*
X-4571429Y17694286D01*
D15*
X-3142857Y18265714D02*
X-3285714Y18408571D01*
X-3571429Y18408571D01*
X-3714286Y18265714D01*
X-3714286Y18122857D01*
X-3571429Y17980000D01*
X-3285714Y17980000D01*
X-3142857Y17837143D01*
X-3142857Y17694286D01*
X-3285714Y17551429D01*
X-3571429Y17551429D01*
X-3714286Y17694286D01*
D15*
X-2714286Y17980000D02*
X-2428571Y17980000D01*
D15*
X-2000000Y18408571D02*
X-1428571Y18408571D01*
D15*
X-1714286Y18408571D02*
X-1714286Y17551429D01*
D15*
X-1142857Y17551429D02*
X-1142857Y18408571D01*
X-714286Y18408571D01*
X-571429Y18265714D01*
X-571429Y18122857D01*
X-714286Y17980000D01*
X-1142857Y17980000D01*
D15*
X-714286Y17980000D02*
X-571429Y17837143D01*
X-571429Y17694286D01*
X-714286Y17551429D01*
X-1142857Y17551429D01*
D15*
X-285714Y17551429D02*
X285714Y17551429D01*
D15*
X714286Y18265714D02*
X857143Y18408571D01*
X857143Y17551429D01*
D15*
X714286Y17551429D02*
X1000000Y17551429D01*
D15*
X1428571Y17551429D02*
X2000000Y18408571D01*
D15*
X1428571Y18408571D02*
X2000000Y17551429D01*
D15*
X2428571Y17551429D02*
X2285714Y17694286D01*
X2285714Y18265714D01*
X2428571Y18408571D01*
X2714286Y18408571D01*
X2857143Y18265714D01*
X2857143Y17694286D01*
X2714286Y17551429D01*
X2428571Y17551429D01*
D15*
X2428571Y17694286D02*
X2714286Y18265714D01*
D15*
X3142857Y18408571D02*
X3714286Y18408571D01*
X3428571Y17980000D01*
X3714286Y17837143D01*
X3714286Y17694286D01*
X3571429Y17551429D01*
X3285714Y17551429D01*
X3142857Y17694286D01*
D15*
X4142857Y17980000D02*
X4428571Y17980000D01*
D15*
X5000000Y18265714D02*
X5142857Y18408571D01*
X5142857Y17551429D01*
D15*
X5000000Y17551429D02*
X5285714Y17551429D01*
D15*
X5714286Y17551429D02*
X5714286Y18408571D01*
X6000000Y17980000D01*
X6285714Y18408571D01*
X6285714Y17551429D01*
D15*
X6571429Y17551429D02*
X6571429Y18408571D01*
X7000000Y18408571D01*
X7142857Y18265714D01*
X7142857Y18122857D01*
X7000000Y17980000D01*
X6571429Y17980000D01*
D15*
X7428571Y17551429D02*
X8000000Y17551429D01*
D15*
X8285714Y17551429D02*
X8285714Y18408571D01*
X8714286Y18408571D01*
X8857143Y18265714D01*
X8857143Y18122857D01*
X8714286Y17980000D01*
X8285714Y17980000D01*
D15*
X9285714Y18265714D02*
X9428571Y18408571D01*
X9428571Y17551429D01*
D15*
X9285714Y17551429D02*
X9571429Y17551429D01*
D15*
X10285714Y17551429D02*
D15*
X11000000Y17551429D02*
X10857143Y17694286D01*
X10857143Y18265714D01*
X11000000Y18408571D01*
X11285714Y18408571D01*
X11428571Y18265714D01*
X11428571Y17694286D01*
X11285714Y17551429D01*
X11000000Y17551429D01*
D15*
X11000000Y17694286D02*
X11285714Y18265714D01*
D15*
X11857143Y17551429D02*
X11714286Y17694286D01*
X11714286Y18265714D01*
X11857143Y18408571D01*
X12142857Y18408571D01*
X12285714Y18265714D01*
X12285714Y17694286D01*
X12142857Y17551429D01*
X11857143Y17551429D01*
D15*
X11857143Y17694286D02*
X12142857Y18265714D01*
D15*
X12571429Y17551429D02*
X12571429Y18408571D01*
X12857143Y17980000D01*
X13142857Y18408571D01*
X13142857Y17551429D01*
D15*
X13428571Y17551429D02*
X13428571Y18408571D01*
X13714286Y17980000D01*
X14000000Y18408571D01*
X14000000Y17551429D01*
D15*
X14285714Y17551429D02*
X14857143Y17551429D01*
D15*
X15142857Y17551429D02*
X15142857Y18408571D01*
D15*
X15714286Y17551429D02*
X15714286Y18408571D01*
D15*
X15142857Y17980000D02*
X15714286Y17980000D01*
D15*
X16142857Y17551429D02*
X16000000Y17694286D01*
X16000000Y18265714D01*
X16142857Y18408571D01*
X16428571Y18408571D01*
X16571429Y18265714D01*
X16571429Y17694286D01*
X16428571Y17551429D01*
X16142857Y17551429D01*
D15*
X16857143Y17551429D02*
X16857143Y18408571D01*
X17285714Y18408571D01*
X17428571Y18265714D01*
X17428571Y18122857D01*
X17285714Y17980000D01*
X16857143Y17980000D01*
D15*
X17142857Y17980000D02*
X17428571Y17551429D01*
D15*
X17714286Y18408571D02*
X18285714Y18408571D01*
D15*
X18000000Y18408571D02*
X18000000Y17551429D01*
D15*
X17714286Y17551429D02*
X18285714Y17551429D01*
D15*
X18571429Y18408571D02*
X19142857Y18408571D01*
X18571429Y17551429D01*
X19142857Y17551429D01*
D15*
X19571429Y17551429D02*
X19428571Y17694286D01*
X19428571Y18265714D01*
X19571429Y18408571D01*
X19857143Y18408571D01*
X20000000Y18265714D01*
X20000000Y17694286D01*
X19857143Y17551429D01*
X19571429Y17551429D01*
D15*
X20285714Y17551429D02*
X20285714Y18408571D01*
X20857143Y17551429D01*
X20857143Y18408571D01*
D15*
X21142857Y18408571D02*
X21714286Y18408571D01*
D15*
X21428571Y18408571D02*
X21428571Y17551429D01*
D15*
X22000000Y17551429D02*
X22285714Y18408571D01*
X22571429Y17551429D01*
D15*
X22142857Y17980000D02*
X22428571Y17980000D01*
D15*
X22857143Y18408571D02*
X22857143Y17551429D01*
X23428571Y17551429D01*
D15*
X2000000Y14428571D02*
X2000000Y13714286D01*
X1857143Y13571429D01*
X1571429Y13571429D01*
X1428572Y13714286D01*
D15*
X2857143Y14285714D02*
X2714286Y14428571D01*
X2428572Y14428571D01*
X2285714Y14285714D01*
X2285714Y14142857D01*
X2428572Y14000000D01*
X2714286Y14000000D01*
X2857143Y13857143D01*
X2857143Y13714286D01*
X2714286Y13571429D01*
X2428572Y13571429D01*
X2285714Y13714286D01*
D15*
X3142857Y14428571D02*
X3714286Y14428571D01*
D15*
X3428572Y14428571D02*
X3428572Y13571429D01*
D15*
X4000000Y14428571D02*
X4571429Y14428571D01*
X4285714Y14000000D01*
X4571429Y13857143D01*
X4571429Y13714286D01*
X4428572Y13571429D01*
X4142857Y13571429D01*
X4000000Y13714286D01*
D14*
X500000Y19325000D02*
X500000Y23575000D01*
D14*
X500000Y19325000D02*
X5500000Y19325000D01*
D14*
X500000Y23575000D02*
X5500000Y23575000D01*
D14*
X1500000Y19325000D02*
X2000000Y20032107D01*
D14*
X2000000Y20032107D02*
X2500000Y19325000D01*
D14*
X5500000Y19325000D02*
X5500000Y23575000D01*
D15*
X-16857143Y25408571D02*
X-16857143Y24694286D01*
X-17000000Y24551429D01*
X-17285714Y24551429D01*
X-17428571Y24694286D01*
D15*
X-16000000Y25265714D02*
X-16142857Y25408571D01*
X-16428571Y25408571D01*
X-16571429Y25265714D01*
X-16571429Y25122857D01*
X-16428571Y24980000D01*
X-16142857Y24980000D01*
X-16000000Y24837143D01*
X-16000000Y24694286D01*
X-16142857Y24551429D01*
X-16428571Y24551429D01*
X-16571429Y24694286D01*
D15*
X-15714286Y25408571D02*
X-15142857Y25408571D01*
D15*
X-15428571Y25408571D02*
X-15428571Y24551429D01*
D15*
X-14857143Y24551429D02*
X-14285714Y24551429D01*
D15*
X-13428571Y25265714D02*
X-13571429Y25408571D01*
X-13857143Y25408571D01*
X-14000000Y25265714D01*
X-14000000Y25122857D01*
X-13857143Y24980000D01*
X-13571429Y24980000D01*
X-13428571Y24837143D01*
X-13428571Y24694286D01*
X-13571429Y24551429D01*
X-13857143Y24551429D01*
X-14000000Y24694286D01*
D15*
X-13142857Y24551429D02*
X-13142857Y25408571D01*
D15*
X-12571429Y24551429D02*
X-12571429Y25408571D01*
D15*
X-13142857Y24980000D02*
X-12571429Y24980000D01*
D15*
X-12285714Y24551429D02*
X-11714286Y24551429D01*
D15*
X-10857143Y25265714D02*
X-11000000Y25408571D01*
X-11285714Y25408571D01*
X-11428571Y25265714D01*
X-11428571Y25122857D01*
X-11285714Y24980000D01*
X-11000000Y24980000D01*
X-10857143Y24837143D01*
X-10857143Y24694286D01*
X-11000000Y24551429D01*
X-11285714Y24551429D01*
X-11428571Y24694286D01*
D15*
X-10571429Y24551429D02*
X-10571429Y25408571D01*
X-10285714Y24980000D01*
X-10000000Y25408571D01*
X-10000000Y24551429D01*
D15*
X-9571429Y24551429D02*
X-9714286Y24694286D01*
X-9714286Y25265714D01*
X-9571429Y25408571D01*
X-9285714Y25408571D01*
X-9142857Y25265714D01*
X-9142857Y24694286D01*
X-9285714Y24551429D01*
X-9571429Y24551429D01*
D15*
X-9571429Y24694286D02*
X-9285714Y25265714D01*
D15*
X-8857143Y25408571D02*
X-8285714Y25408571D01*
X-8571429Y24980000D01*
X-8285714Y24837143D01*
X-8285714Y24694286D01*
X-8428571Y24551429D01*
X-8714286Y24551429D01*
X-8857143Y24694286D01*
D15*
X-8000000Y24551429D02*
X-8000000Y25408571D01*
X-7571429Y25408571D01*
X-7428571Y25265714D01*
X-7428571Y25122857D01*
X-7571429Y24980000D01*
X-8000000Y24980000D01*
D15*
X-7571429Y24980000D02*
X-7428571Y24837143D01*
X-7428571Y24694286D01*
X-7571429Y24551429D01*
X-8000000Y24551429D01*
D15*
X-7000000Y24980000D02*
X-6714286Y24980000D01*
D15*
X-5714286Y25265714D02*
X-5857143Y25408571D01*
X-6142857Y25408571D01*
X-6285714Y25265714D01*
X-6285714Y25122857D01*
X-6142857Y24980000D01*
X-5857143Y24980000D01*
X-5714286Y24837143D01*
X-5714286Y24694286D01*
X-5857143Y24551429D01*
X-6142857Y24551429D01*
X-6285714Y24694286D01*
D15*
X-5428571Y24551429D02*
X-5428571Y25408571D01*
X-5000000Y25408571D01*
X-4857143Y25265714D01*
X-4857143Y25122857D01*
X-5000000Y24980000D01*
X-5428571Y24980000D01*
D15*
X-5142857Y24980000D02*
X-4857143Y24551429D01*
D15*
X-4000000Y25265714D02*
X-4142857Y25408571D01*
X-4428571Y25408571D01*
X-4571429Y25265714D01*
X-4571429Y25122857D01*
X-4428571Y24980000D01*
X-4142857Y24980000D01*
X-4000000Y24837143D01*
X-4000000Y24694286D01*
X-4142857Y24551429D01*
X-4428571Y24551429D01*
X-4571429Y24694286D01*
D15*
X-3142857Y25265714D02*
X-3285714Y25408571D01*
X-3571429Y25408571D01*
X-3714286Y25265714D01*
X-3714286Y25122857D01*
X-3571429Y24980000D01*
X-3285714Y24980000D01*
X-3142857Y24837143D01*
X-3142857Y24694286D01*
X-3285714Y24551429D01*
X-3571429Y24551429D01*
X-3714286Y24694286D01*
D15*
X-2714286Y24980000D02*
X-2428571Y24980000D01*
D15*
X-2000000Y25408571D02*
X-1428571Y25408571D01*
D15*
X-1714286Y25408571D02*
X-1714286Y24551429D01*
D15*
X-1142857Y24551429D02*
X-1142857Y25408571D01*
X-714286Y25408571D01*
X-571429Y25265714D01*
X-571429Y25122857D01*
X-714286Y24980000D01*
X-1142857Y24980000D01*
D15*
X-714286Y24980000D02*
X-571429Y24837143D01*
X-571429Y24694286D01*
X-714286Y24551429D01*
X-1142857Y24551429D01*
D15*
X-285714Y24551429D02*
X285714Y24551429D01*
D15*
X714286Y25265714D02*
X857143Y25408571D01*
X857143Y24551429D01*
D15*
X714286Y24551429D02*
X1000000Y24551429D01*
D15*
X1428571Y24551429D02*
X2000000Y25408571D01*
D15*
X1428571Y25408571D02*
X2000000Y24551429D01*
D15*
X2428571Y24551429D02*
X2285714Y24694286D01*
X2285714Y25265714D01*
X2428571Y25408571D01*
X2714286Y25408571D01*
X2857143Y25265714D01*
X2857143Y24694286D01*
X2714286Y24551429D01*
X2428571Y24551429D01*
D15*
X2428571Y24694286D02*
X2714286Y25265714D01*
D15*
X3142857Y25408571D02*
X3714286Y25408571D01*
X3428571Y24980000D01*
X3714286Y24837143D01*
X3714286Y24694286D01*
X3571429Y24551429D01*
X3285714Y24551429D01*
X3142857Y24694286D01*
D15*
X4142857Y24980000D02*
X4428571Y24980000D01*
D15*
X5000000Y25265714D02*
X5142857Y25408571D01*
X5142857Y24551429D01*
D15*
X5000000Y24551429D02*
X5285714Y24551429D01*
D15*
X5714286Y24551429D02*
X5714286Y25408571D01*
X6000000Y24980000D01*
X6285714Y25408571D01*
X6285714Y24551429D01*
D15*
X6571429Y24551429D02*
X6571429Y25408571D01*
X7000000Y25408571D01*
X7142857Y25265714D01*
X7142857Y25122857D01*
X7000000Y24980000D01*
X6571429Y24980000D01*
D15*
X7428571Y24551429D02*
X8000000Y24551429D01*
D15*
X8285714Y24551429D02*
X8285714Y25408571D01*
X8714286Y25408571D01*
X8857143Y25265714D01*
X8857143Y25122857D01*
X8714286Y24980000D01*
X8285714Y24980000D01*
D15*
X9285714Y25265714D02*
X9428571Y25408571D01*
X9428571Y24551429D01*
D15*
X9285714Y24551429D02*
X9571429Y24551429D01*
D15*
X10285714Y24551429D02*
D15*
X11000000Y24551429D02*
X10857143Y24694286D01*
X10857143Y25265714D01*
X11000000Y25408571D01*
X11285714Y25408571D01*
X11428571Y25265714D01*
X11428571Y24694286D01*
X11285714Y24551429D01*
X11000000Y24551429D01*
D15*
X11000000Y24694286D02*
X11285714Y25265714D01*
D15*
X11857143Y24551429D02*
X11714286Y24694286D01*
X11714286Y25265714D01*
X11857143Y25408571D01*
X12142857Y25408571D01*
X12285714Y25265714D01*
X12285714Y24694286D01*
X12142857Y24551429D01*
X11857143Y24551429D01*
D15*
X11857143Y24694286D02*
X12142857Y25265714D01*
D15*
X12571429Y24551429D02*
X12571429Y25408571D01*
X12857143Y24980000D01*
X13142857Y25408571D01*
X13142857Y24551429D01*
D15*
X13428571Y24551429D02*
X13428571Y25408571D01*
X13714286Y24980000D01*
X14000000Y25408571D01*
X14000000Y24551429D01*
D15*
X14285714Y24551429D02*
X14857143Y24551429D01*
D15*
X15142857Y24551429D02*
X15142857Y25408571D01*
D15*
X15714286Y24551429D02*
X15714286Y25408571D01*
D15*
X15142857Y24980000D02*
X15714286Y24980000D01*
D15*
X16142857Y24551429D02*
X16000000Y24694286D01*
X16000000Y25265714D01*
X16142857Y25408571D01*
X16428571Y25408571D01*
X16571429Y25265714D01*
X16571429Y24694286D01*
X16428571Y24551429D01*
X16142857Y24551429D01*
D15*
X16857143Y24551429D02*
X16857143Y25408571D01*
X17285714Y25408571D01*
X17428571Y25265714D01*
X17428571Y25122857D01*
X17285714Y24980000D01*
X16857143Y24980000D01*
D15*
X17142857Y24980000D02*
X17428571Y24551429D01*
D15*
X17714286Y25408571D02*
X18285714Y25408571D01*
D15*
X18000000Y25408571D02*
X18000000Y24551429D01*
D15*
X17714286Y24551429D02*
X18285714Y24551429D01*
D15*
X18571429Y25408571D02*
X19142857Y25408571D01*
X18571429Y24551429D01*
X19142857Y24551429D01*
D15*
X19571429Y24551429D02*
X19428571Y24694286D01*
X19428571Y25265714D01*
X19571429Y25408571D01*
X19857143Y25408571D01*
X20000000Y25265714D01*
X20000000Y24694286D01*
X19857143Y24551429D01*
X19571429Y24551429D01*
D15*
X20285714Y24551429D02*
X20285714Y25408571D01*
X20857143Y24551429D01*
X20857143Y25408571D01*
D15*
X21142857Y25408571D02*
X21714286Y25408571D01*
D15*
X21428571Y25408571D02*
X21428571Y24551429D01*
D15*
X22000000Y24551429D02*
X22285714Y25408571D01*
X22571429Y24551429D01*
D15*
X22142857Y24980000D02*
X22428571Y24980000D01*
D15*
X22857143Y25408571D02*
X22857143Y24551429D01*
X23428571Y24551429D01*
D15*
X2000000Y21428571D02*
X2000000Y20714286D01*
X1857143Y20571429D01*
X1571429Y20571429D01*
X1428572Y20714286D01*
D15*
X2857143Y21285714D02*
X2714286Y21428571D01*
X2428572Y21428571D01*
X2285714Y21285714D01*
X2285714Y21142857D01*
X2428572Y21000000D01*
X2714286Y21000000D01*
X2857143Y20857143D01*
X2857143Y20714286D01*
X2714286Y20571429D01*
X2428572Y20571429D01*
X2285714Y20714286D01*
D15*
X3142857Y21428571D02*
X3714286Y21428571D01*
D15*
X3428572Y21428571D02*
X3428572Y20571429D01*
D15*
X4428572Y20571429D02*
X4428572Y21428571D01*
X4000000Y20857143D01*
X4571429Y20857143D01*
D14*
X500000Y26325000D02*
X500000Y30575000D01*
D14*
X500000Y26325000D02*
X5500000Y26325000D01*
D14*
X500000Y30575000D02*
X5500000Y30575000D01*
D14*
X1500000Y26325000D02*
X2000000Y27032107D01*
D14*
X2000000Y27032107D02*
X2500000Y26325000D01*
D14*
X5500000Y26325000D02*
X5500000Y30575000D01*
D15*
X-16857143Y32408571D02*
X-16857143Y31694286D01*
X-17000000Y31551429D01*
X-17285714Y31551429D01*
X-17428571Y31694286D01*
D15*
X-16000000Y32265714D02*
X-16142857Y32408571D01*
X-16428571Y32408571D01*
X-16571429Y32265714D01*
X-16571429Y32122857D01*
X-16428571Y31980000D01*
X-16142857Y31980000D01*
X-16000000Y31837143D01*
X-16000000Y31694286D01*
X-16142857Y31551429D01*
X-16428571Y31551429D01*
X-16571429Y31694286D01*
D15*
X-15714286Y32408571D02*
X-15142857Y32408571D01*
D15*
X-15428571Y32408571D02*
X-15428571Y31551429D01*
D15*
X-14857143Y31551429D02*
X-14285714Y31551429D01*
D15*
X-13428571Y32265714D02*
X-13571429Y32408571D01*
X-13857143Y32408571D01*
X-14000000Y32265714D01*
X-14000000Y32122857D01*
X-13857143Y31980000D01*
X-13571429Y31980000D01*
X-13428571Y31837143D01*
X-13428571Y31694286D01*
X-13571429Y31551429D01*
X-13857143Y31551429D01*
X-14000000Y31694286D01*
D15*
X-13142857Y31551429D02*
X-13142857Y32408571D01*
D15*
X-12571429Y31551429D02*
X-12571429Y32408571D01*
D15*
X-13142857Y31980000D02*
X-12571429Y31980000D01*
D15*
X-12285714Y31551429D02*
X-11714286Y31551429D01*
D15*
X-10857143Y32265714D02*
X-11000000Y32408571D01*
X-11285714Y32408571D01*
X-11428571Y32265714D01*
X-11428571Y32122857D01*
X-11285714Y31980000D01*
X-11000000Y31980000D01*
X-10857143Y31837143D01*
X-10857143Y31694286D01*
X-11000000Y31551429D01*
X-11285714Y31551429D01*
X-11428571Y31694286D01*
D15*
X-10571429Y31551429D02*
X-10571429Y32408571D01*
X-10285714Y31980000D01*
X-10000000Y32408571D01*
X-10000000Y31551429D01*
D15*
X-9571429Y31551429D02*
X-9714286Y31694286D01*
X-9714286Y32265714D01*
X-9571429Y32408571D01*
X-9285714Y32408571D01*
X-9142857Y32265714D01*
X-9142857Y31694286D01*
X-9285714Y31551429D01*
X-9571429Y31551429D01*
D15*
X-9571429Y31694286D02*
X-9285714Y32265714D01*
D15*
X-8857143Y32408571D02*
X-8285714Y32408571D01*
X-8571429Y31980000D01*
X-8285714Y31837143D01*
X-8285714Y31694286D01*
X-8428571Y31551429D01*
X-8714286Y31551429D01*
X-8857143Y31694286D01*
D15*
X-8000000Y31551429D02*
X-8000000Y32408571D01*
X-7571429Y32408571D01*
X-7428571Y32265714D01*
X-7428571Y32122857D01*
X-7571429Y31980000D01*
X-8000000Y31980000D01*
D15*
X-7571429Y31980000D02*
X-7428571Y31837143D01*
X-7428571Y31694286D01*
X-7571429Y31551429D01*
X-8000000Y31551429D01*
D15*
X-7000000Y31980000D02*
X-6714286Y31980000D01*
D15*
X-5714286Y32265714D02*
X-5857143Y32408571D01*
X-6142857Y32408571D01*
X-6285714Y32265714D01*
X-6285714Y32122857D01*
X-6142857Y31980000D01*
X-5857143Y31980000D01*
X-5714286Y31837143D01*
X-5714286Y31694286D01*
X-5857143Y31551429D01*
X-6142857Y31551429D01*
X-6285714Y31694286D01*
D15*
X-5428571Y31551429D02*
X-5428571Y32408571D01*
X-5000000Y32408571D01*
X-4857143Y32265714D01*
X-4857143Y32122857D01*
X-5000000Y31980000D01*
X-5428571Y31980000D01*
D15*
X-5142857Y31980000D02*
X-4857143Y31551429D01*
D15*
X-4000000Y32265714D02*
X-4142857Y32408571D01*
X-4428571Y32408571D01*
X-4571429Y32265714D01*
X-4571429Y32122857D01*
X-4428571Y31980000D01*
X-4142857Y31980000D01*
X-4000000Y31837143D01*
X-4000000Y31694286D01*
X-4142857Y31551429D01*
X-4428571Y31551429D01*
X-4571429Y31694286D01*
D15*
X-3142857Y32265714D02*
X-3285714Y32408571D01*
X-3571429Y32408571D01*
X-3714286Y32265714D01*
X-3714286Y32122857D01*
X-3571429Y31980000D01*
X-3285714Y31980000D01*
X-3142857Y31837143D01*
X-3142857Y31694286D01*
X-3285714Y31551429D01*
X-3571429Y31551429D01*
X-3714286Y31694286D01*
D15*
X-2714286Y31980000D02*
X-2428571Y31980000D01*
D15*
X-2000000Y32408571D02*
X-1428571Y32408571D01*
D15*
X-1714286Y32408571D02*
X-1714286Y31551429D01*
D15*
X-1142857Y31551429D02*
X-1142857Y32408571D01*
X-714286Y32408571D01*
X-571429Y32265714D01*
X-571429Y32122857D01*
X-714286Y31980000D01*
X-1142857Y31980000D01*
D15*
X-714286Y31980000D02*
X-571429Y31837143D01*
X-571429Y31694286D01*
X-714286Y31551429D01*
X-1142857Y31551429D01*
D15*
X-285714Y31551429D02*
X285714Y31551429D01*
D15*
X714286Y32265714D02*
X857143Y32408571D01*
X857143Y31551429D01*
D15*
X714286Y31551429D02*
X1000000Y31551429D01*
D15*
X1428571Y31551429D02*
X2000000Y32408571D01*
D15*
X1428571Y32408571D02*
X2000000Y31551429D01*
D15*
X2428571Y31551429D02*
X2285714Y31694286D01*
X2285714Y32265714D01*
X2428571Y32408571D01*
X2714286Y32408571D01*
X2857143Y32265714D01*
X2857143Y31694286D01*
X2714286Y31551429D01*
X2428571Y31551429D01*
D15*
X2428571Y31694286D02*
X2714286Y32265714D01*
D15*
X3142857Y32408571D02*
X3714286Y32408571D01*
X3428571Y31980000D01*
X3714286Y31837143D01*
X3714286Y31694286D01*
X3571429Y31551429D01*
X3285714Y31551429D01*
X3142857Y31694286D01*
D15*
X4142857Y31980000D02*
X4428571Y31980000D01*
D15*
X5000000Y32265714D02*
X5142857Y32408571D01*
X5142857Y31551429D01*
D15*
X5000000Y31551429D02*
X5285714Y31551429D01*
D15*
X5714286Y31551429D02*
X5714286Y32408571D01*
X6000000Y31980000D01*
X6285714Y32408571D01*
X6285714Y31551429D01*
D15*
X6571429Y31551429D02*
X6571429Y32408571D01*
X7000000Y32408571D01*
X7142857Y32265714D01*
X7142857Y32122857D01*
X7000000Y31980000D01*
X6571429Y31980000D01*
D15*
X7428571Y31551429D02*
X8000000Y31551429D01*
D15*
X8285714Y31551429D02*
X8285714Y32408571D01*
X8714286Y32408571D01*
X8857143Y32265714D01*
X8857143Y32122857D01*
X8714286Y31980000D01*
X8285714Y31980000D01*
D15*
X9285714Y32265714D02*
X9428571Y32408571D01*
X9428571Y31551429D01*
D15*
X9285714Y31551429D02*
X9571429Y31551429D01*
D15*
X10285714Y31551429D02*
D15*
X11000000Y31551429D02*
X10857143Y31694286D01*
X10857143Y32265714D01*
X11000000Y32408571D01*
X11285714Y32408571D01*
X11428571Y32265714D01*
X11428571Y31694286D01*
X11285714Y31551429D01*
X11000000Y31551429D01*
D15*
X11000000Y31694286D02*
X11285714Y32265714D01*
D15*
X11857143Y31551429D02*
X11714286Y31694286D01*
X11714286Y32265714D01*
X11857143Y32408571D01*
X12142857Y32408571D01*
X12285714Y32265714D01*
X12285714Y31694286D01*
X12142857Y31551429D01*
X11857143Y31551429D01*
D15*
X11857143Y31694286D02*
X12142857Y32265714D01*
D15*
X12571429Y31551429D02*
X12571429Y32408571D01*
X12857143Y31980000D01*
X13142857Y32408571D01*
X13142857Y31551429D01*
D15*
X13428571Y31551429D02*
X13428571Y32408571D01*
X13714286Y31980000D01*
X14000000Y32408571D01*
X14000000Y31551429D01*
D15*
X14285714Y31551429D02*
X14857143Y31551429D01*
D15*
X15142857Y31551429D02*
X15142857Y32408571D01*
D15*
X15714286Y31551429D02*
X15714286Y32408571D01*
D15*
X15142857Y31980000D02*
X15714286Y31980000D01*
D15*
X16142857Y31551429D02*
X16000000Y31694286D01*
X16000000Y32265714D01*
X16142857Y32408571D01*
X16428571Y32408571D01*
X16571429Y32265714D01*
X16571429Y31694286D01*
X16428571Y31551429D01*
X16142857Y31551429D01*
D15*
X16857143Y31551429D02*
X16857143Y32408571D01*
X17285714Y32408571D01*
X17428571Y32265714D01*
X17428571Y32122857D01*
X17285714Y31980000D01*
X16857143Y31980000D01*
D15*
X17142857Y31980000D02*
X17428571Y31551429D01*
D15*
X17714286Y32408571D02*
X18285714Y32408571D01*
D15*
X18000000Y32408571D02*
X18000000Y31551429D01*
D15*
X17714286Y31551429D02*
X18285714Y31551429D01*
D15*
X18571429Y32408571D02*
X19142857Y32408571D01*
X18571429Y31551429D01*
X19142857Y31551429D01*
D15*
X19571429Y31551429D02*
X19428571Y31694286D01*
X19428571Y32265714D01*
X19571429Y32408571D01*
X19857143Y32408571D01*
X20000000Y32265714D01*
X20000000Y31694286D01*
X19857143Y31551429D01*
X19571429Y31551429D01*
D15*
X20285714Y31551429D02*
X20285714Y32408571D01*
X20857143Y31551429D01*
X20857143Y32408571D01*
D15*
X21142857Y32408571D02*
X21714286Y32408571D01*
D15*
X21428571Y32408571D02*
X21428571Y31551429D01*
D15*
X22000000Y31551429D02*
X22285714Y32408571D01*
X22571429Y31551429D01*
D15*
X22142857Y31980000D02*
X22428571Y31980000D01*
D15*
X22857143Y32408571D02*
X22857143Y31551429D01*
X23428571Y31551429D01*
D15*
X2000000Y28428571D02*
X2000000Y27714286D01*
X1857143Y27571429D01*
X1571429Y27571429D01*
X1428572Y27714286D01*
D15*
X2857143Y28285714D02*
X2714286Y28428571D01*
X2428572Y28428571D01*
X2285714Y28285714D01*
X2285714Y28142857D01*
X2428572Y28000000D01*
X2714286Y28000000D01*
X2857143Y27857143D01*
X2857143Y27714286D01*
X2714286Y27571429D01*
X2428572Y27571429D01*
X2285714Y27714286D01*
D15*
X3142857Y28428571D02*
X3714286Y28428571D01*
D15*
X3428572Y28428571D02*
X3428572Y27571429D01*
D15*
X4571429Y28428571D02*
X4000000Y28428571D01*
X4000000Y28000000D01*
X4428572Y28000000D01*
X4571429Y27857143D01*
X4571429Y27714286D01*
X4428572Y27571429D01*
X4142857Y27571429D01*
X4000000Y27714286D01*
D14*
X500000Y33325000D02*
X500000Y37575000D01*
D14*
X500000Y33325000D02*
X5500000Y33325000D01*
D14*
X500000Y37575000D02*
X5500000Y37575000D01*
D14*
X1500000Y33325000D02*
X2000000Y34032107D01*
D14*
X2000000Y34032107D02*
X2500000Y33325000D01*
D14*
X5500000Y33325000D02*
X5500000Y37575000D01*
D15*
X-16857143Y39408571D02*
X-16857143Y38694286D01*
X-17000000Y38551429D01*
X-17285714Y38551429D01*
X-17428571Y38694286D01*
D15*
X-16000000Y39265714D02*
X-16142857Y39408571D01*
X-16428571Y39408571D01*
X-16571429Y39265714D01*
X-16571429Y39122857D01*
X-16428571Y38980000D01*
X-16142857Y38980000D01*
X-16000000Y38837143D01*
X-16000000Y38694286D01*
X-16142857Y38551429D01*
X-16428571Y38551429D01*
X-16571429Y38694286D01*
D15*
X-15714286Y39408571D02*
X-15142857Y39408571D01*
D15*
X-15428571Y39408571D02*
X-15428571Y38551429D01*
D15*
X-14857143Y38551429D02*
X-14285714Y38551429D01*
D15*
X-13428571Y39265714D02*
X-13571429Y39408571D01*
X-13857143Y39408571D01*
X-14000000Y39265714D01*
X-14000000Y39122857D01*
X-13857143Y38980000D01*
X-13571429Y38980000D01*
X-13428571Y38837143D01*
X-13428571Y38694286D01*
X-13571429Y38551429D01*
X-13857143Y38551429D01*
X-14000000Y38694286D01*
D15*
X-13142857Y38551429D02*
X-13142857Y39408571D01*
D15*
X-12571429Y38551429D02*
X-12571429Y39408571D01*
D15*
X-13142857Y38980000D02*
X-12571429Y38980000D01*
D15*
X-12285714Y38551429D02*
X-11714286Y38551429D01*
D15*
X-10857143Y39265714D02*
X-11000000Y39408571D01*
X-11285714Y39408571D01*
X-11428571Y39265714D01*
X-11428571Y39122857D01*
X-11285714Y38980000D01*
X-11000000Y38980000D01*
X-10857143Y38837143D01*
X-10857143Y38694286D01*
X-11000000Y38551429D01*
X-11285714Y38551429D01*
X-11428571Y38694286D01*
D15*
X-10571429Y38551429D02*
X-10571429Y39408571D01*
X-10285714Y38980000D01*
X-10000000Y39408571D01*
X-10000000Y38551429D01*
D15*
X-9571429Y38551429D02*
X-9714286Y38694286D01*
X-9714286Y39265714D01*
X-9571429Y39408571D01*
X-9285714Y39408571D01*
X-9142857Y39265714D01*
X-9142857Y38694286D01*
X-9285714Y38551429D01*
X-9571429Y38551429D01*
D15*
X-9571429Y38694286D02*
X-9285714Y39265714D01*
D15*
X-8857143Y39408571D02*
X-8285714Y39408571D01*
X-8571429Y38980000D01*
X-8285714Y38837143D01*
X-8285714Y38694286D01*
X-8428571Y38551429D01*
X-8714286Y38551429D01*
X-8857143Y38694286D01*
D15*
X-8000000Y38551429D02*
X-8000000Y39408571D01*
X-7571429Y39408571D01*
X-7428571Y39265714D01*
X-7428571Y39122857D01*
X-7571429Y38980000D01*
X-8000000Y38980000D01*
D15*
X-7571429Y38980000D02*
X-7428571Y38837143D01*
X-7428571Y38694286D01*
X-7571429Y38551429D01*
X-8000000Y38551429D01*
D15*
X-7000000Y38980000D02*
X-6714286Y38980000D01*
D15*
X-5714286Y39265714D02*
X-5857143Y39408571D01*
X-6142857Y39408571D01*
X-6285714Y39265714D01*
X-6285714Y39122857D01*
X-6142857Y38980000D01*
X-5857143Y38980000D01*
X-5714286Y38837143D01*
X-5714286Y38694286D01*
X-5857143Y38551429D01*
X-6142857Y38551429D01*
X-6285714Y38694286D01*
D15*
X-5428571Y38551429D02*
X-5428571Y39408571D01*
X-5000000Y39408571D01*
X-4857143Y39265714D01*
X-4857143Y39122857D01*
X-5000000Y38980000D01*
X-5428571Y38980000D01*
D15*
X-5142857Y38980000D02*
X-4857143Y38551429D01*
D15*
X-4000000Y39265714D02*
X-4142857Y39408571D01*
X-4428571Y39408571D01*
X-4571429Y39265714D01*
X-4571429Y39122857D01*
X-4428571Y38980000D01*
X-4142857Y38980000D01*
X-4000000Y38837143D01*
X-4000000Y38694286D01*
X-4142857Y38551429D01*
X-4428571Y38551429D01*
X-4571429Y38694286D01*
D15*
X-3142857Y39265714D02*
X-3285714Y39408571D01*
X-3571429Y39408571D01*
X-3714286Y39265714D01*
X-3714286Y39122857D01*
X-3571429Y38980000D01*
X-3285714Y38980000D01*
X-3142857Y38837143D01*
X-3142857Y38694286D01*
X-3285714Y38551429D01*
X-3571429Y38551429D01*
X-3714286Y38694286D01*
D15*
X-2714286Y38980000D02*
X-2428571Y38980000D01*
D15*
X-2000000Y39408571D02*
X-1428571Y39408571D01*
D15*
X-1714286Y39408571D02*
X-1714286Y38551429D01*
D15*
X-1142857Y38551429D02*
X-1142857Y39408571D01*
X-714286Y39408571D01*
X-571429Y39265714D01*
X-571429Y39122857D01*
X-714286Y38980000D01*
X-1142857Y38980000D01*
D15*
X-714286Y38980000D02*
X-571429Y38837143D01*
X-571429Y38694286D01*
X-714286Y38551429D01*
X-1142857Y38551429D01*
D15*
X-285714Y38551429D02*
X285714Y38551429D01*
D15*
X714286Y39265714D02*
X857143Y39408571D01*
X857143Y38551429D01*
D15*
X714286Y38551429D02*
X1000000Y38551429D01*
D15*
X1428571Y38551429D02*
X2000000Y39408571D01*
D15*
X1428571Y39408571D02*
X2000000Y38551429D01*
D15*
X2428571Y38551429D02*
X2285714Y38694286D01*
X2285714Y39265714D01*
X2428571Y39408571D01*
X2714286Y39408571D01*
X2857143Y39265714D01*
X2857143Y38694286D01*
X2714286Y38551429D01*
X2428571Y38551429D01*
D15*
X2428571Y38694286D02*
X2714286Y39265714D01*
D15*
X3142857Y39408571D02*
X3714286Y39408571D01*
X3428571Y38980000D01*
X3714286Y38837143D01*
X3714286Y38694286D01*
X3571429Y38551429D01*
X3285714Y38551429D01*
X3142857Y38694286D01*
D15*
X4142857Y38980000D02*
X4428571Y38980000D01*
D15*
X5000000Y39265714D02*
X5142857Y39408571D01*
X5142857Y38551429D01*
D15*
X5000000Y38551429D02*
X5285714Y38551429D01*
D15*
X5714286Y38551429D02*
X5714286Y39408571D01*
X6000000Y38980000D01*
X6285714Y39408571D01*
X6285714Y38551429D01*
D15*
X6571429Y38551429D02*
X6571429Y39408571D01*
X7000000Y39408571D01*
X7142857Y39265714D01*
X7142857Y39122857D01*
X7000000Y38980000D01*
X6571429Y38980000D01*
D15*
X7428571Y38551429D02*
X8000000Y38551429D01*
D15*
X8285714Y38551429D02*
X8285714Y39408571D01*
X8714286Y39408571D01*
X8857143Y39265714D01*
X8857143Y39122857D01*
X8714286Y38980000D01*
X8285714Y38980000D01*
D15*
X9285714Y39265714D02*
X9428571Y39408571D01*
X9428571Y38551429D01*
D15*
X9285714Y38551429D02*
X9571429Y38551429D01*
D15*
X10285714Y38551429D02*
D15*
X11000000Y38551429D02*
X10857143Y38694286D01*
X10857143Y39265714D01*
X11000000Y39408571D01*
X11285714Y39408571D01*
X11428571Y39265714D01*
X11428571Y38694286D01*
X11285714Y38551429D01*
X11000000Y38551429D01*
D15*
X11000000Y38694286D02*
X11285714Y39265714D01*
D15*
X11857143Y38551429D02*
X11714286Y38694286D01*
X11714286Y39265714D01*
X11857143Y39408571D01*
X12142857Y39408571D01*
X12285714Y39265714D01*
X12285714Y38694286D01*
X12142857Y38551429D01*
X11857143Y38551429D01*
D15*
X11857143Y38694286D02*
X12142857Y39265714D01*
D15*
X12571429Y38551429D02*
X12571429Y39408571D01*
X12857143Y38980000D01*
X13142857Y39408571D01*
X13142857Y38551429D01*
D15*
X13428571Y38551429D02*
X13428571Y39408571D01*
X13714286Y38980000D01*
X14000000Y39408571D01*
X14000000Y38551429D01*
D15*
X14285714Y38551429D02*
X14857143Y38551429D01*
D15*
X15142857Y38551429D02*
X15142857Y39408571D01*
D15*
X15714286Y38551429D02*
X15714286Y39408571D01*
D15*
X15142857Y38980000D02*
X15714286Y38980000D01*
D15*
X16142857Y38551429D02*
X16000000Y38694286D01*
X16000000Y39265714D01*
X16142857Y39408571D01*
X16428571Y39408571D01*
X16571429Y39265714D01*
X16571429Y38694286D01*
X16428571Y38551429D01*
X16142857Y38551429D01*
D15*
X16857143Y38551429D02*
X16857143Y39408571D01*
X17285714Y39408571D01*
X17428571Y39265714D01*
X17428571Y39122857D01*
X17285714Y38980000D01*
X16857143Y38980000D01*
D15*
X17142857Y38980000D02*
X17428571Y38551429D01*
D15*
X17714286Y39408571D02*
X18285714Y39408571D01*
D15*
X18000000Y39408571D02*
X18000000Y38551429D01*
D15*
X17714286Y38551429D02*
X18285714Y38551429D01*
D15*
X18571429Y39408571D02*
X19142857Y39408571D01*
X18571429Y38551429D01*
X19142857Y38551429D01*
D15*
X19571429Y38551429D02*
X19428571Y38694286D01*
X19428571Y39265714D01*
X19571429Y39408571D01*
X19857143Y39408571D01*
X20000000Y39265714D01*
X20000000Y38694286D01*
X19857143Y38551429D01*
X19571429Y38551429D01*
D15*
X20285714Y38551429D02*
X20285714Y39408571D01*
X20857143Y38551429D01*
X20857143Y39408571D01*
D15*
X21142857Y39408571D02*
X21714286Y39408571D01*
D15*
X21428571Y39408571D02*
X21428571Y38551429D01*
D15*
X22000000Y38551429D02*
X22285714Y39408571D01*
X22571429Y38551429D01*
D15*
X22142857Y38980000D02*
X22428571Y38980000D01*
D15*
X22857143Y39408571D02*
X22857143Y38551429D01*
X23428571Y38551429D01*
D15*
X2000000Y35428571D02*
X2000000Y34714286D01*
X1857143Y34571429D01*
X1571429Y34571429D01*
X1428572Y34714286D01*
D15*
X2857143Y35285714D02*
X2714286Y35428571D01*
X2428572Y35428571D01*
X2285714Y35285714D01*
X2285714Y35142857D01*
X2428572Y35000000D01*
X2714286Y35000000D01*
X2857143Y34857143D01*
X2857143Y34714286D01*
X2714286Y34571429D01*
X2428572Y34571429D01*
X2285714Y34714286D01*
D15*
X3142857Y35428571D02*
X3714286Y35428571D01*
D15*
X3428572Y35428571D02*
X3428572Y34571429D01*
D15*
X4571429Y35285714D02*
X4428572Y35428571D01*
X4142857Y35428571D01*
X4000000Y35285714D01*
X4000000Y34714286D01*
X4142857Y34571429D01*
X4428572Y34571429D01*
X4571429Y34714286D01*
X4571429Y34857143D01*
X4428572Y35000000D01*
X4000000Y35000000D01*
D14*
X50500000Y5325000D02*
X50500000Y9575000D01*
D14*
X50500000Y5325000D02*
X55500000Y5325000D01*
D14*
X50500000Y9575000D02*
X55500000Y9575000D01*
D14*
X51500000Y5325000D02*
X52000000Y6032107D01*
D14*
X52000000Y6032107D02*
X52500000Y5325000D01*
D14*
X55500000Y5325000D02*
X55500000Y9575000D01*
D15*
X33142857Y11408571D02*
X33142857Y10694286D01*
X33000000Y10551429D01*
X32714286Y10551429D01*
X32571429Y10694286D01*
D15*
X34000000Y11265714D02*
X33857143Y11408571D01*
X33571429Y11408571D01*
X33428571Y11265714D01*
X33428571Y11122857D01*
X33571429Y10980000D01*
X33857143Y10980000D01*
X34000000Y10837143D01*
X34000000Y10694286D01*
X33857143Y10551429D01*
X33571429Y10551429D01*
X33428571Y10694286D01*
D15*
X34285714Y11408571D02*
X34857143Y11408571D01*
D15*
X34571429Y11408571D02*
X34571429Y10551429D01*
D15*
X35142857Y10551429D02*
X35714286Y10551429D01*
D15*
X36571429Y11265714D02*
X36428571Y11408571D01*
X36142857Y11408571D01*
X36000000Y11265714D01*
X36000000Y11122857D01*
X36142857Y10980000D01*
X36428571Y10980000D01*
X36571429Y10837143D01*
X36571429Y10694286D01*
X36428571Y10551429D01*
X36142857Y10551429D01*
X36000000Y10694286D01*
D15*
X36857143Y10551429D02*
X36857143Y11408571D01*
D15*
X37428571Y10551429D02*
X37428571Y11408571D01*
D15*
X36857143Y10980000D02*
X37428571Y10980000D01*
D15*
X37714286Y10551429D02*
X38285714Y10551429D01*
D15*
X39142857Y11265714D02*
X39000000Y11408571D01*
X38714286Y11408571D01*
X38571429Y11265714D01*
X38571429Y11122857D01*
X38714286Y10980000D01*
X39000000Y10980000D01*
X39142857Y10837143D01*
X39142857Y10694286D01*
X39000000Y10551429D01*
X38714286Y10551429D01*
X38571429Y10694286D01*
D15*
X39428571Y10551429D02*
X39428571Y11408571D01*
X39714286Y10980000D01*
X40000000Y11408571D01*
X40000000Y10551429D01*
D15*
X40428571Y10551429D02*
X40285714Y10694286D01*
X40285714Y11265714D01*
X40428571Y11408571D01*
X40714286Y11408571D01*
X40857143Y11265714D01*
X40857143Y10694286D01*
X40714286Y10551429D01*
X40428571Y10551429D01*
D15*
X40428571Y10694286D02*
X40714286Y11265714D01*
D15*
X41142857Y11408571D02*
X41714286Y11408571D01*
X41428571Y10980000D01*
X41714286Y10837143D01*
X41714286Y10694286D01*
X41571429Y10551429D01*
X41285714Y10551429D01*
X41142857Y10694286D01*
D15*
X42000000Y10551429D02*
X42000000Y11408571D01*
X42428571Y11408571D01*
X42571429Y11265714D01*
X42571429Y11122857D01*
X42428571Y10980000D01*
X42000000Y10980000D01*
D15*
X42428571Y10980000D02*
X42571429Y10837143D01*
X42571429Y10694286D01*
X42428571Y10551429D01*
X42000000Y10551429D01*
D15*
X43000000Y10980000D02*
X43285714Y10980000D01*
D15*
X44285714Y11265714D02*
X44142857Y11408571D01*
X43857143Y11408571D01*
X43714286Y11265714D01*
X43714286Y11122857D01*
X43857143Y10980000D01*
X44142857Y10980000D01*
X44285714Y10837143D01*
X44285714Y10694286D01*
X44142857Y10551429D01*
X43857143Y10551429D01*
X43714286Y10694286D01*
D15*
X44571429Y10551429D02*
X44571429Y11408571D01*
X45000000Y11408571D01*
X45142857Y11265714D01*
X45142857Y11122857D01*
X45000000Y10980000D01*
X44571429Y10980000D01*
D15*
X44857143Y10980000D02*
X45142857Y10551429D01*
D15*
X46000000Y11265714D02*
X45857143Y11408571D01*
X45571429Y11408571D01*
X45428571Y11265714D01*
X45428571Y11122857D01*
X45571429Y10980000D01*
X45857143Y10980000D01*
X46000000Y10837143D01*
X46000000Y10694286D01*
X45857143Y10551429D01*
X45571429Y10551429D01*
X45428571Y10694286D01*
D15*
X46857143Y11265714D02*
X46714286Y11408571D01*
X46428571Y11408571D01*
X46285714Y11265714D01*
X46285714Y11122857D01*
X46428571Y10980000D01*
X46714286Y10980000D01*
X46857143Y10837143D01*
X46857143Y10694286D01*
X46714286Y10551429D01*
X46428571Y10551429D01*
X46285714Y10694286D01*
D15*
X47285714Y10980000D02*
X47571429Y10980000D01*
D15*
X48000000Y11408571D02*
X48571429Y11408571D01*
D15*
X48285714Y11408571D02*
X48285714Y10551429D01*
D15*
X48857143Y10551429D02*
X48857143Y11408571D01*
X49285714Y11408571D01*
X49428571Y11265714D01*
X49428571Y11122857D01*
X49285714Y10980000D01*
X48857143Y10980000D01*
D15*
X49285714Y10980000D02*
X49428571Y10837143D01*
X49428571Y10694286D01*
X49285714Y10551429D01*
X48857143Y10551429D01*
D15*
X49714286Y10551429D02*
X50285714Y10551429D01*
D15*
X50714286Y11265714D02*
X50857143Y11408571D01*
X50857143Y10551429D01*
D15*
X50714286Y10551429D02*
X51000000Y10551429D01*
D15*
X51428571Y10551429D02*
X52000000Y11408571D01*
D15*
X51428571Y11408571D02*
X52000000Y10551429D01*
D15*
X52428571Y10551429D02*
X52285714Y10694286D01*
X52285714Y11265714D01*
X52428571Y11408571D01*
X52714286Y11408571D01*
X52857143Y11265714D01*
X52857143Y10694286D01*
X52714286Y10551429D01*
X52428571Y10551429D01*
D15*
X52428571Y10694286D02*
X52714286Y11265714D01*
D15*
X53142857Y11408571D02*
X53714286Y11408571D01*
X53428571Y10980000D01*
X53714286Y10837143D01*
X53714286Y10694286D01*
X53571429Y10551429D01*
X53285714Y10551429D01*
X53142857Y10694286D01*
D15*
X54142857Y10980000D02*
X54428571Y10980000D01*
D15*
X55000000Y11265714D02*
X55142857Y11408571D01*
X55142857Y10551429D01*
D15*
X55000000Y10551429D02*
X55285714Y10551429D01*
D15*
X55714286Y10551429D02*
X55714286Y11408571D01*
X56000000Y10980000D01*
X56285714Y11408571D01*
X56285714Y10551429D01*
D15*
X56571429Y10551429D02*
X56571429Y11408571D01*
X57000000Y11408571D01*
X57142857Y11265714D01*
X57142857Y11122857D01*
X57000000Y10980000D01*
X56571429Y10980000D01*
D15*
X57428571Y10551429D02*
X58000000Y10551429D01*
D15*
X58285714Y10551429D02*
X58285714Y11408571D01*
X58714286Y11408571D01*
X58857143Y11265714D01*
X58857143Y11122857D01*
X58714286Y10980000D01*
X58285714Y10980000D01*
D15*
X59285714Y11265714D02*
X59428571Y11408571D01*
X59428571Y10551429D01*
D15*
X59285714Y10551429D02*
X59571429Y10551429D01*
D15*
X60285714Y10551429D02*
D15*
X61000000Y10551429D02*
X60857143Y10694286D01*
X60857143Y11265714D01*
X61000000Y11408571D01*
X61285714Y11408571D01*
X61428571Y11265714D01*
X61428571Y10694286D01*
X61285714Y10551429D01*
X61000000Y10551429D01*
D15*
X61000000Y10694286D02*
X61285714Y11265714D01*
D15*
X61857143Y10551429D02*
X61714286Y10694286D01*
X61714286Y11265714D01*
X61857143Y11408571D01*
X62142857Y11408571D01*
X62285714Y11265714D01*
X62285714Y10694286D01*
X62142857Y10551429D01*
X61857143Y10551429D01*
D15*
X61857143Y10694286D02*
X62142857Y11265714D01*
D15*
X62571429Y10551429D02*
X62571429Y11408571D01*
X62857143Y10980000D01*
X63142857Y11408571D01*
X63142857Y10551429D01*
D15*
X63428571Y10551429D02*
X63428571Y11408571D01*
X63714286Y10980000D01*
X64000000Y11408571D01*
X64000000Y10551429D01*
D15*
X64285714Y10551429D02*
X64857143Y10551429D01*
D15*
X65142857Y10551429D02*
X65142857Y11408571D01*
D15*
X65714286Y10551429D02*
X65714286Y11408571D01*
D15*
X65142857Y10980000D02*
X65714286Y10980000D01*
D15*
X66142857Y10551429D02*
X66000000Y10694286D01*
X66000000Y11265714D01*
X66142857Y11408571D01*
X66428571Y11408571D01*
X66571429Y11265714D01*
X66571429Y10694286D01*
X66428571Y10551429D01*
X66142857Y10551429D01*
D15*
X66857143Y10551429D02*
X66857143Y11408571D01*
X67285714Y11408571D01*
X67428571Y11265714D01*
X67428571Y11122857D01*
X67285714Y10980000D01*
X66857143Y10980000D01*
D15*
X67142857Y10980000D02*
X67428571Y10551429D01*
D15*
X67714286Y11408571D02*
X68285714Y11408571D01*
D15*
X68000000Y11408571D02*
X68000000Y10551429D01*
D15*
X67714286Y10551429D02*
X68285714Y10551429D01*
D15*
X68571429Y11408571D02*
X69142857Y11408571D01*
X68571429Y10551429D01*
X69142857Y10551429D01*
D15*
X69571429Y10551429D02*
X69428571Y10694286D01*
X69428571Y11265714D01*
X69571429Y11408571D01*
X69857143Y11408571D01*
X70000000Y11265714D01*
X70000000Y10694286D01*
X69857143Y10551429D01*
X69571429Y10551429D01*
D15*
X70285714Y10551429D02*
X70285714Y11408571D01*
X70857143Y10551429D01*
X70857143Y11408571D01*
D15*
X71142857Y11408571D02*
X71714286Y11408571D01*
D15*
X71428571Y11408571D02*
X71428571Y10551429D01*
D15*
X72000000Y10551429D02*
X72285714Y11408571D01*
X72571429Y10551429D01*
D15*
X72142857Y10980000D02*
X72428571Y10980000D01*
D15*
X72857143Y11408571D02*
X72857143Y10551429D01*
X73428571Y10551429D01*
D15*
X52000000Y7428571D02*
X52000000Y6714286D01*
X51857143Y6571429D01*
X51571429Y6571429D01*
X51428572Y6714286D01*
D15*
X52857143Y7285714D02*
X52714286Y7428571D01*
X52428572Y7428571D01*
X52285714Y7285714D01*
X52285714Y7142857D01*
X52428572Y7000000D01*
X52714286Y7000000D01*
X52857143Y6857143D01*
X52857143Y6714286D01*
X52714286Y6571429D01*
X52428572Y6571429D01*
X52285714Y6714286D01*
D15*
X53142857Y7428571D02*
X53714286Y7428571D01*
D15*
X53428572Y7428571D02*
X53428572Y6571429D01*
D15*
X54000000Y7428571D02*
X54571429Y7428571D01*
X54142857Y6571429D01*
D14*
X50500000Y12325000D02*
X50500000Y16575000D01*
D14*
X50500000Y12325000D02*
X55500000Y12325000D01*
D14*
X50500000Y16575000D02*
X55500000Y16575000D01*
D14*
X51500000Y12325000D02*
X52000000Y13032107D01*
D14*
X52000000Y13032107D02*
X52500000Y12325000D01*
D14*
X55500000Y12325000D02*
X55500000Y16575000D01*
D15*
X33142857Y18408571D02*
X33142857Y17694286D01*
X33000000Y17551429D01*
X32714286Y17551429D01*
X32571429Y17694286D01*
D15*
X34000000Y18265714D02*
X33857143Y18408571D01*
X33571429Y18408571D01*
X33428571Y18265714D01*
X33428571Y18122857D01*
X33571429Y17980000D01*
X33857143Y17980000D01*
X34000000Y17837143D01*
X34000000Y17694286D01*
X33857143Y17551429D01*
X33571429Y17551429D01*
X33428571Y17694286D01*
D15*
X34285714Y18408571D02*
X34857143Y18408571D01*
D15*
X34571429Y18408571D02*
X34571429Y17551429D01*
D15*
X35142857Y17551429D02*
X35714286Y17551429D01*
D15*
X36571429Y18265714D02*
X36428571Y18408571D01*
X36142857Y18408571D01*
X36000000Y18265714D01*
X36000000Y18122857D01*
X36142857Y17980000D01*
X36428571Y17980000D01*
X36571429Y17837143D01*
X36571429Y17694286D01*
X36428571Y17551429D01*
X36142857Y17551429D01*
X36000000Y17694286D01*
D15*
X36857143Y17551429D02*
X36857143Y18408571D01*
D15*
X37428571Y17551429D02*
X37428571Y18408571D01*
D15*
X36857143Y17980000D02*
X37428571Y17980000D01*
D15*
X37714286Y17551429D02*
X38285714Y17551429D01*
D15*
X39142857Y18265714D02*
X39000000Y18408571D01*
X38714286Y18408571D01*
X38571429Y18265714D01*
X38571429Y18122857D01*
X38714286Y17980000D01*
X39000000Y17980000D01*
X39142857Y17837143D01*
X39142857Y17694286D01*
X39000000Y17551429D01*
X38714286Y17551429D01*
X38571429Y17694286D01*
D15*
X39428571Y17551429D02*
X39428571Y18408571D01*
X39714286Y17980000D01*
X40000000Y18408571D01*
X40000000Y17551429D01*
D15*
X40428571Y17551429D02*
X40285714Y17694286D01*
X40285714Y18265714D01*
X40428571Y18408571D01*
X40714286Y18408571D01*
X40857143Y18265714D01*
X40857143Y17694286D01*
X40714286Y17551429D01*
X40428571Y17551429D01*
D15*
X40428571Y17694286D02*
X40714286Y18265714D01*
D15*
X41142857Y18408571D02*
X41714286Y18408571D01*
X41428571Y17980000D01*
X41714286Y17837143D01*
X41714286Y17694286D01*
X41571429Y17551429D01*
X41285714Y17551429D01*
X41142857Y17694286D01*
D15*
X42000000Y17551429D02*
X42000000Y18408571D01*
X42428571Y18408571D01*
X42571429Y18265714D01*
X42571429Y18122857D01*
X42428571Y17980000D01*
X42000000Y17980000D01*
D15*
X42428571Y17980000D02*
X42571429Y17837143D01*
X42571429Y17694286D01*
X42428571Y17551429D01*
X42000000Y17551429D01*
D15*
X43000000Y17980000D02*
X43285714Y17980000D01*
D15*
X44285714Y18265714D02*
X44142857Y18408571D01*
X43857143Y18408571D01*
X43714286Y18265714D01*
X43714286Y18122857D01*
X43857143Y17980000D01*
X44142857Y17980000D01*
X44285714Y17837143D01*
X44285714Y17694286D01*
X44142857Y17551429D01*
X43857143Y17551429D01*
X43714286Y17694286D01*
D15*
X44571429Y17551429D02*
X44571429Y18408571D01*
X45000000Y18408571D01*
X45142857Y18265714D01*
X45142857Y18122857D01*
X45000000Y17980000D01*
X44571429Y17980000D01*
D15*
X44857143Y17980000D02*
X45142857Y17551429D01*
D15*
X46000000Y18265714D02*
X45857143Y18408571D01*
X45571429Y18408571D01*
X45428571Y18265714D01*
X45428571Y18122857D01*
X45571429Y17980000D01*
X45857143Y17980000D01*
X46000000Y17837143D01*
X46000000Y17694286D01*
X45857143Y17551429D01*
X45571429Y17551429D01*
X45428571Y17694286D01*
D15*
X46857143Y18265714D02*
X46714286Y18408571D01*
X46428571Y18408571D01*
X46285714Y18265714D01*
X46285714Y18122857D01*
X46428571Y17980000D01*
X46714286Y17980000D01*
X46857143Y17837143D01*
X46857143Y17694286D01*
X46714286Y17551429D01*
X46428571Y17551429D01*
X46285714Y17694286D01*
D15*
X47285714Y17980000D02*
X47571429Y17980000D01*
D15*
X48000000Y18408571D02*
X48571429Y18408571D01*
D15*
X48285714Y18408571D02*
X48285714Y17551429D01*
D15*
X48857143Y17551429D02*
X48857143Y18408571D01*
X49285714Y18408571D01*
X49428571Y18265714D01*
X49428571Y18122857D01*
X49285714Y17980000D01*
X48857143Y17980000D01*
D15*
X49285714Y17980000D02*
X49428571Y17837143D01*
X49428571Y17694286D01*
X49285714Y17551429D01*
X48857143Y17551429D01*
D15*
X49714286Y17551429D02*
X50285714Y17551429D01*
D15*
X50714286Y18265714D02*
X50857143Y18408571D01*
X50857143Y17551429D01*
D15*
X50714286Y17551429D02*
X51000000Y17551429D01*
D15*
X51428571Y17551429D02*
X52000000Y18408571D01*
D15*
X51428571Y18408571D02*
X52000000Y17551429D01*
D15*
X52428571Y17551429D02*
X52285714Y17694286D01*
X52285714Y18265714D01*
X52428571Y18408571D01*
X52714286Y18408571D01*
X52857143Y18265714D01*
X52857143Y17694286D01*
X52714286Y17551429D01*
X52428571Y17551429D01*
D15*
X52428571Y17694286D02*
X52714286Y18265714D01*
D15*
X53142857Y18408571D02*
X53714286Y18408571D01*
X53428571Y17980000D01*
X53714286Y17837143D01*
X53714286Y17694286D01*
X53571429Y17551429D01*
X53285714Y17551429D01*
X53142857Y17694286D01*
D15*
X54142857Y17980000D02*
X54428571Y17980000D01*
D15*
X55000000Y18265714D02*
X55142857Y18408571D01*
X55142857Y17551429D01*
D15*
X55000000Y17551429D02*
X55285714Y17551429D01*
D15*
X55714286Y17551429D02*
X55714286Y18408571D01*
X56000000Y17980000D01*
X56285714Y18408571D01*
X56285714Y17551429D01*
D15*
X56571429Y17551429D02*
X56571429Y18408571D01*
X57000000Y18408571D01*
X57142857Y18265714D01*
X57142857Y18122857D01*
X57000000Y17980000D01*
X56571429Y17980000D01*
D15*
X57428571Y17551429D02*
X58000000Y17551429D01*
D15*
X58285714Y17551429D02*
X58285714Y18408571D01*
X58714286Y18408571D01*
X58857143Y18265714D01*
X58857143Y18122857D01*
X58714286Y17980000D01*
X58285714Y17980000D01*
D15*
X59285714Y18265714D02*
X59428571Y18408571D01*
X59428571Y17551429D01*
D15*
X59285714Y17551429D02*
X59571429Y17551429D01*
D15*
X60285714Y17551429D02*
D15*
X61000000Y17551429D02*
X60857143Y17694286D01*
X60857143Y18265714D01*
X61000000Y18408571D01*
X61285714Y18408571D01*
X61428571Y18265714D01*
X61428571Y17694286D01*
X61285714Y17551429D01*
X61000000Y17551429D01*
D15*
X61000000Y17694286D02*
X61285714Y18265714D01*
D15*
X61857143Y17551429D02*
X61714286Y17694286D01*
X61714286Y18265714D01*
X61857143Y18408571D01*
X62142857Y18408571D01*
X62285714Y18265714D01*
X62285714Y17694286D01*
X62142857Y17551429D01*
X61857143Y17551429D01*
D15*
X61857143Y17694286D02*
X62142857Y18265714D01*
D15*
X62571429Y17551429D02*
X62571429Y18408571D01*
X62857143Y17980000D01*
X63142857Y18408571D01*
X63142857Y17551429D01*
D15*
X63428571Y17551429D02*
X63428571Y18408571D01*
X63714286Y17980000D01*
X64000000Y18408571D01*
X64000000Y17551429D01*
D15*
X64285714Y17551429D02*
X64857143Y17551429D01*
D15*
X65142857Y17551429D02*
X65142857Y18408571D01*
D15*
X65714286Y17551429D02*
X65714286Y18408571D01*
D15*
X65142857Y17980000D02*
X65714286Y17980000D01*
D15*
X66142857Y17551429D02*
X66000000Y17694286D01*
X66000000Y18265714D01*
X66142857Y18408571D01*
X66428571Y18408571D01*
X66571429Y18265714D01*
X66571429Y17694286D01*
X66428571Y17551429D01*
X66142857Y17551429D01*
D15*
X66857143Y17551429D02*
X66857143Y18408571D01*
X67285714Y18408571D01*
X67428571Y18265714D01*
X67428571Y18122857D01*
X67285714Y17980000D01*
X66857143Y17980000D01*
D15*
X67142857Y17980000D02*
X67428571Y17551429D01*
D15*
X67714286Y18408571D02*
X68285714Y18408571D01*
D15*
X68000000Y18408571D02*
X68000000Y17551429D01*
D15*
X67714286Y17551429D02*
X68285714Y17551429D01*
D15*
X68571429Y18408571D02*
X69142857Y18408571D01*
X68571429Y17551429D01*
X69142857Y17551429D01*
D15*
X69571429Y17551429D02*
X69428571Y17694286D01*
X69428571Y18265714D01*
X69571429Y18408571D01*
X69857143Y18408571D01*
X70000000Y18265714D01*
X70000000Y17694286D01*
X69857143Y17551429D01*
X69571429Y17551429D01*
D15*
X70285714Y17551429D02*
X70285714Y18408571D01*
X70857143Y17551429D01*
X70857143Y18408571D01*
D15*
X71142857Y18408571D02*
X71714286Y18408571D01*
D15*
X71428571Y18408571D02*
X71428571Y17551429D01*
D15*
X72000000Y17551429D02*
X72285714Y18408571D01*
X72571429Y17551429D01*
D15*
X72142857Y17980000D02*
X72428571Y17980000D01*
D15*
X72857143Y18408571D02*
X72857143Y17551429D01*
X73428571Y17551429D01*
D15*
X52000000Y14428571D02*
X52000000Y13714286D01*
X51857143Y13571429D01*
X51571429Y13571429D01*
X51428572Y13714286D01*
D15*
X52857143Y14285714D02*
X52714286Y14428571D01*
X52428572Y14428571D01*
X52285714Y14285714D01*
X52285714Y14142857D01*
X52428572Y14000000D01*
X52714286Y14000000D01*
X52857143Y13857143D01*
X52857143Y13714286D01*
X52714286Y13571429D01*
X52428572Y13571429D01*
X52285714Y13714286D01*
D15*
X53142857Y14428571D02*
X53714286Y14428571D01*
D15*
X53428572Y14428571D02*
X53428572Y13571429D01*
D15*
X54142857Y14000000D02*
X54000000Y14142857D01*
X54000000Y14285714D01*
X54142857Y14428571D01*
X54428572Y14428571D01*
X54571429Y14285714D01*
X54571429Y14142857D01*
X54428572Y14000000D01*
X54142857Y14000000D01*
D15*
X54428572Y14000000D02*
X54571429Y13857143D01*
X54571429Y13714286D01*
X54428572Y13571429D01*
X54142857Y13571429D01*
X54000000Y13714286D01*
X54000000Y13857143D01*
X54142857Y14000000D01*
D14*
X50500000Y19325000D02*
X50500000Y23575000D01*
D14*
X50500000Y19325000D02*
X55500000Y19325000D01*
D14*
X50500000Y23575000D02*
X55500000Y23575000D01*
D14*
X51500000Y19325000D02*
X52000000Y20032107D01*
D14*
X52000000Y20032107D02*
X52500000Y19325000D01*
D14*
X55500000Y19325000D02*
X55500000Y23575000D01*
D15*
X33142857Y25408571D02*
X33142857Y24694286D01*
X33000000Y24551429D01*
X32714286Y24551429D01*
X32571429Y24694286D01*
D15*
X34000000Y25265714D02*
X33857143Y25408571D01*
X33571429Y25408571D01*
X33428571Y25265714D01*
X33428571Y25122857D01*
X33571429Y24980000D01*
X33857143Y24980000D01*
X34000000Y24837143D01*
X34000000Y24694286D01*
X33857143Y24551429D01*
X33571429Y24551429D01*
X33428571Y24694286D01*
D15*
X34285714Y25408571D02*
X34857143Y25408571D01*
D15*
X34571429Y25408571D02*
X34571429Y24551429D01*
D15*
X35142857Y24551429D02*
X35714286Y24551429D01*
D15*
X36571429Y25265714D02*
X36428571Y25408571D01*
X36142857Y25408571D01*
X36000000Y25265714D01*
X36000000Y25122857D01*
X36142857Y24980000D01*
X36428571Y24980000D01*
X36571429Y24837143D01*
X36571429Y24694286D01*
X36428571Y24551429D01*
X36142857Y24551429D01*
X36000000Y24694286D01*
D15*
X36857143Y24551429D02*
X36857143Y25408571D01*
D15*
X37428571Y24551429D02*
X37428571Y25408571D01*
D15*
X36857143Y24980000D02*
X37428571Y24980000D01*
D15*
X37714286Y24551429D02*
X38285714Y24551429D01*
D15*
X39142857Y25265714D02*
X39000000Y25408571D01*
X38714286Y25408571D01*
X38571429Y25265714D01*
X38571429Y25122857D01*
X38714286Y24980000D01*
X39000000Y24980000D01*
X39142857Y24837143D01*
X39142857Y24694286D01*
X39000000Y24551429D01*
X38714286Y24551429D01*
X38571429Y24694286D01*
D15*
X39428571Y24551429D02*
X39428571Y25408571D01*
X39714286Y24980000D01*
X40000000Y25408571D01*
X40000000Y24551429D01*
D15*
X40428571Y24551429D02*
X40285714Y24694286D01*
X40285714Y25265714D01*
X40428571Y25408571D01*
X40714286Y25408571D01*
X40857143Y25265714D01*
X40857143Y24694286D01*
X40714286Y24551429D01*
X40428571Y24551429D01*
D15*
X40428571Y24694286D02*
X40714286Y25265714D01*
D15*
X41142857Y25408571D02*
X41714286Y25408571D01*
X41428571Y24980000D01*
X41714286Y24837143D01*
X41714286Y24694286D01*
X41571429Y24551429D01*
X41285714Y24551429D01*
X41142857Y24694286D01*
D15*
X42000000Y24551429D02*
X42000000Y25408571D01*
X42428571Y25408571D01*
X42571429Y25265714D01*
X42571429Y25122857D01*
X42428571Y24980000D01*
X42000000Y24980000D01*
D15*
X42428571Y24980000D02*
X42571429Y24837143D01*
X42571429Y24694286D01*
X42428571Y24551429D01*
X42000000Y24551429D01*
D15*
X43000000Y24980000D02*
X43285714Y24980000D01*
D15*
X44285714Y25265714D02*
X44142857Y25408571D01*
X43857143Y25408571D01*
X43714286Y25265714D01*
X43714286Y25122857D01*
X43857143Y24980000D01*
X44142857Y24980000D01*
X44285714Y24837143D01*
X44285714Y24694286D01*
X44142857Y24551429D01*
X43857143Y24551429D01*
X43714286Y24694286D01*
D15*
X44571429Y24551429D02*
X44571429Y25408571D01*
X45000000Y25408571D01*
X45142857Y25265714D01*
X45142857Y25122857D01*
X45000000Y24980000D01*
X44571429Y24980000D01*
D15*
X44857143Y24980000D02*
X45142857Y24551429D01*
D15*
X46000000Y25265714D02*
X45857143Y25408571D01*
X45571429Y25408571D01*
X45428571Y25265714D01*
X45428571Y25122857D01*
X45571429Y24980000D01*
X45857143Y24980000D01*
X46000000Y24837143D01*
X46000000Y24694286D01*
X45857143Y24551429D01*
X45571429Y24551429D01*
X45428571Y24694286D01*
D15*
X46857143Y25265714D02*
X46714286Y25408571D01*
X46428571Y25408571D01*
X46285714Y25265714D01*
X46285714Y25122857D01*
X46428571Y24980000D01*
X46714286Y24980000D01*
X46857143Y24837143D01*
X46857143Y24694286D01*
X46714286Y24551429D01*
X46428571Y24551429D01*
X46285714Y24694286D01*
D15*
X47285714Y24980000D02*
X47571429Y24980000D01*
D15*
X48000000Y25408571D02*
X48571429Y25408571D01*
D15*
X48285714Y25408571D02*
X48285714Y24551429D01*
D15*
X48857143Y24551429D02*
X48857143Y25408571D01*
X49285714Y25408571D01*
X49428571Y25265714D01*
X49428571Y25122857D01*
X49285714Y24980000D01*
X48857143Y24980000D01*
D15*
X49285714Y24980000D02*
X49428571Y24837143D01*
X49428571Y24694286D01*
X49285714Y24551429D01*
X48857143Y24551429D01*
D15*
X49714286Y24551429D02*
X50285714Y24551429D01*
D15*
X50714286Y25265714D02*
X50857143Y25408571D01*
X50857143Y24551429D01*
D15*
X50714286Y24551429D02*
X51000000Y24551429D01*
D15*
X51428571Y24551429D02*
X52000000Y25408571D01*
D15*
X51428571Y25408571D02*
X52000000Y24551429D01*
D15*
X52428571Y24551429D02*
X52285714Y24694286D01*
X52285714Y25265714D01*
X52428571Y25408571D01*
X52714286Y25408571D01*
X52857143Y25265714D01*
X52857143Y24694286D01*
X52714286Y24551429D01*
X52428571Y24551429D01*
D15*
X52428571Y24694286D02*
X52714286Y25265714D01*
D15*
X53142857Y25408571D02*
X53714286Y25408571D01*
X53428571Y24980000D01*
X53714286Y24837143D01*
X53714286Y24694286D01*
X53571429Y24551429D01*
X53285714Y24551429D01*
X53142857Y24694286D01*
D15*
X54142857Y24980000D02*
X54428571Y24980000D01*
D15*
X55000000Y25265714D02*
X55142857Y25408571D01*
X55142857Y24551429D01*
D15*
X55000000Y24551429D02*
X55285714Y24551429D01*
D15*
X55714286Y24551429D02*
X55714286Y25408571D01*
X56000000Y24980000D01*
X56285714Y25408571D01*
X56285714Y24551429D01*
D15*
X56571429Y24551429D02*
X56571429Y25408571D01*
X57000000Y25408571D01*
X57142857Y25265714D01*
X57142857Y25122857D01*
X57000000Y24980000D01*
X56571429Y24980000D01*
D15*
X57428571Y24551429D02*
X58000000Y24551429D01*
D15*
X58285714Y24551429D02*
X58285714Y25408571D01*
X58714286Y25408571D01*
X58857143Y25265714D01*
X58857143Y25122857D01*
X58714286Y24980000D01*
X58285714Y24980000D01*
D15*
X59285714Y25265714D02*
X59428571Y25408571D01*
X59428571Y24551429D01*
D15*
X59285714Y24551429D02*
X59571429Y24551429D01*
D15*
X60285714Y24551429D02*
D15*
X61000000Y24551429D02*
X60857143Y24694286D01*
X60857143Y25265714D01*
X61000000Y25408571D01*
X61285714Y25408571D01*
X61428571Y25265714D01*
X61428571Y24694286D01*
X61285714Y24551429D01*
X61000000Y24551429D01*
D15*
X61000000Y24694286D02*
X61285714Y25265714D01*
D15*
X61857143Y24551429D02*
X61714286Y24694286D01*
X61714286Y25265714D01*
X61857143Y25408571D01*
X62142857Y25408571D01*
X62285714Y25265714D01*
X62285714Y24694286D01*
X62142857Y24551429D01*
X61857143Y24551429D01*
D15*
X61857143Y24694286D02*
X62142857Y25265714D01*
D15*
X62571429Y24551429D02*
X62571429Y25408571D01*
X62857143Y24980000D01*
X63142857Y25408571D01*
X63142857Y24551429D01*
D15*
X63428571Y24551429D02*
X63428571Y25408571D01*
X63714286Y24980000D01*
X64000000Y25408571D01*
X64000000Y24551429D01*
D15*
X64285714Y24551429D02*
X64857143Y24551429D01*
D15*
X65142857Y24551429D02*
X65142857Y25408571D01*
D15*
X65714286Y24551429D02*
X65714286Y25408571D01*
D15*
X65142857Y24980000D02*
X65714286Y24980000D01*
D15*
X66142857Y24551429D02*
X66000000Y24694286D01*
X66000000Y25265714D01*
X66142857Y25408571D01*
X66428571Y25408571D01*
X66571429Y25265714D01*
X66571429Y24694286D01*
X66428571Y24551429D01*
X66142857Y24551429D01*
D15*
X66857143Y24551429D02*
X66857143Y25408571D01*
X67285714Y25408571D01*
X67428571Y25265714D01*
X67428571Y25122857D01*
X67285714Y24980000D01*
X66857143Y24980000D01*
D15*
X67142857Y24980000D02*
X67428571Y24551429D01*
D15*
X67714286Y25408571D02*
X68285714Y25408571D01*
D15*
X68000000Y25408571D02*
X68000000Y24551429D01*
D15*
X67714286Y24551429D02*
X68285714Y24551429D01*
D15*
X68571429Y25408571D02*
X69142857Y25408571D01*
X68571429Y24551429D01*
X69142857Y24551429D01*
D15*
X69571429Y24551429D02*
X69428571Y24694286D01*
X69428571Y25265714D01*
X69571429Y25408571D01*
X69857143Y25408571D01*
X70000000Y25265714D01*
X70000000Y24694286D01*
X69857143Y24551429D01*
X69571429Y24551429D01*
D15*
X70285714Y24551429D02*
X70285714Y25408571D01*
X70857143Y24551429D01*
X70857143Y25408571D01*
D15*
X71142857Y25408571D02*
X71714286Y25408571D01*
D15*
X71428571Y25408571D02*
X71428571Y24551429D01*
D15*
X72000000Y24551429D02*
X72285714Y25408571D01*
X72571429Y24551429D01*
D15*
X72142857Y24980000D02*
X72428571Y24980000D01*
D15*
X72857143Y25408571D02*
X72857143Y24551429D01*
X73428571Y24551429D01*
D15*
X52000000Y21428571D02*
X52000000Y20714286D01*
X51857143Y20571429D01*
X51571429Y20571429D01*
X51428572Y20714286D01*
D15*
X52857143Y21285714D02*
X52714286Y21428571D01*
X52428572Y21428571D01*
X52285714Y21285714D01*
X52285714Y21142857D01*
X52428572Y21000000D01*
X52714286Y21000000D01*
X52857143Y20857143D01*
X52857143Y20714286D01*
X52714286Y20571429D01*
X52428572Y20571429D01*
X52285714Y20714286D01*
D15*
X53142857Y21428571D02*
X53714286Y21428571D01*
D15*
X53428572Y21428571D02*
X53428572Y20571429D01*
D15*
X54571429Y21142857D02*
X54428572Y21000000D01*
X54142857Y21000000D01*
X54000000Y21142857D01*
X54000000Y21285714D01*
X54142857Y21428571D01*
X54428572Y21428571D01*
X54571429Y21285714D01*
X54571429Y21142857D01*
D15*
X54571429Y21142857D02*
X54571429Y20714286D01*
X54428572Y20571429D01*
X54142857Y20571429D01*
D14*
X50500000Y26325000D02*
X50500000Y30575000D01*
D14*
X50500000Y26325000D02*
X55500000Y26325000D01*
D14*
X50500000Y30575000D02*
X55500000Y30575000D01*
D14*
X51500000Y26325000D02*
X52000000Y27032107D01*
D14*
X52000000Y27032107D02*
X52500000Y26325000D01*
D14*
X55500000Y26325000D02*
X55500000Y30575000D01*
D15*
X33142857Y32408571D02*
X33142857Y31694286D01*
X33000000Y31551429D01*
X32714286Y31551429D01*
X32571429Y31694286D01*
D15*
X34000000Y32265714D02*
X33857143Y32408571D01*
X33571429Y32408571D01*
X33428571Y32265714D01*
X33428571Y32122857D01*
X33571429Y31980000D01*
X33857143Y31980000D01*
X34000000Y31837143D01*
X34000000Y31694286D01*
X33857143Y31551429D01*
X33571429Y31551429D01*
X33428571Y31694286D01*
D15*
X34285714Y32408571D02*
X34857143Y32408571D01*
D15*
X34571429Y32408571D02*
X34571429Y31551429D01*
D15*
X35142857Y31551429D02*
X35714286Y31551429D01*
D15*
X36571429Y32265714D02*
X36428571Y32408571D01*
X36142857Y32408571D01*
X36000000Y32265714D01*
X36000000Y32122857D01*
X36142857Y31980000D01*
X36428571Y31980000D01*
X36571429Y31837143D01*
X36571429Y31694286D01*
X36428571Y31551429D01*
X36142857Y31551429D01*
X36000000Y31694286D01*
D15*
X36857143Y31551429D02*
X36857143Y32408571D01*
D15*
X37428571Y31551429D02*
X37428571Y32408571D01*
D15*
X36857143Y31980000D02*
X37428571Y31980000D01*
D15*
X37714286Y31551429D02*
X38285714Y31551429D01*
D15*
X39142857Y32265714D02*
X39000000Y32408571D01*
X38714286Y32408571D01*
X38571429Y32265714D01*
X38571429Y32122857D01*
X38714286Y31980000D01*
X39000000Y31980000D01*
X39142857Y31837143D01*
X39142857Y31694286D01*
X39000000Y31551429D01*
X38714286Y31551429D01*
X38571429Y31694286D01*
D15*
X39428571Y31551429D02*
X39428571Y32408571D01*
X39714286Y31980000D01*
X40000000Y32408571D01*
X40000000Y31551429D01*
D15*
X40428571Y31551429D02*
X40285714Y31694286D01*
X40285714Y32265714D01*
X40428571Y32408571D01*
X40714286Y32408571D01*
X40857143Y32265714D01*
X40857143Y31694286D01*
X40714286Y31551429D01*
X40428571Y31551429D01*
D15*
X40428571Y31694286D02*
X40714286Y32265714D01*
D15*
X41142857Y32408571D02*
X41714286Y32408571D01*
X41428571Y31980000D01*
X41714286Y31837143D01*
X41714286Y31694286D01*
X41571429Y31551429D01*
X41285714Y31551429D01*
X41142857Y31694286D01*
D15*
X42000000Y31551429D02*
X42000000Y32408571D01*
X42428571Y32408571D01*
X42571429Y32265714D01*
X42571429Y32122857D01*
X42428571Y31980000D01*
X42000000Y31980000D01*
D15*
X42428571Y31980000D02*
X42571429Y31837143D01*
X42571429Y31694286D01*
X42428571Y31551429D01*
X42000000Y31551429D01*
D15*
X43000000Y31980000D02*
X43285714Y31980000D01*
D15*
X44285714Y32265714D02*
X44142857Y32408571D01*
X43857143Y32408571D01*
X43714286Y32265714D01*
X43714286Y32122857D01*
X43857143Y31980000D01*
X44142857Y31980000D01*
X44285714Y31837143D01*
X44285714Y31694286D01*
X44142857Y31551429D01*
X43857143Y31551429D01*
X43714286Y31694286D01*
D15*
X44571429Y31551429D02*
X44571429Y32408571D01*
X45000000Y32408571D01*
X45142857Y32265714D01*
X45142857Y32122857D01*
X45000000Y31980000D01*
X44571429Y31980000D01*
D15*
X44857143Y31980000D02*
X45142857Y31551429D01*
D15*
X46000000Y32265714D02*
X45857143Y32408571D01*
X45571429Y32408571D01*
X45428571Y32265714D01*
X45428571Y32122857D01*
X45571429Y31980000D01*
X45857143Y31980000D01*
X46000000Y31837143D01*
X46000000Y31694286D01*
X45857143Y31551429D01*
X45571429Y31551429D01*
X45428571Y31694286D01*
D15*
X46857143Y32265714D02*
X46714286Y32408571D01*
X46428571Y32408571D01*
X46285714Y32265714D01*
X46285714Y32122857D01*
X46428571Y31980000D01*
X46714286Y31980000D01*
X46857143Y31837143D01*
X46857143Y31694286D01*
X46714286Y31551429D01*
X46428571Y31551429D01*
X46285714Y31694286D01*
D15*
X47285714Y31980000D02*
X47571429Y31980000D01*
D15*
X48000000Y32408571D02*
X48571429Y32408571D01*
D15*
X48285714Y32408571D02*
X48285714Y31551429D01*
D15*
X48857143Y31551429D02*
X48857143Y32408571D01*
X49285714Y32408571D01*
X49428571Y32265714D01*
X49428571Y32122857D01*
X49285714Y31980000D01*
X48857143Y31980000D01*
D15*
X49285714Y31980000D02*
X49428571Y31837143D01*
X49428571Y31694286D01*
X49285714Y31551429D01*
X48857143Y31551429D01*
D15*
X49714286Y31551429D02*
X50285714Y31551429D01*
D15*
X50714286Y32265714D02*
X50857143Y32408571D01*
X50857143Y31551429D01*
D15*
X50714286Y31551429D02*
X51000000Y31551429D01*
D15*
X51428571Y31551429D02*
X52000000Y32408571D01*
D15*
X51428571Y32408571D02*
X52000000Y31551429D01*
D15*
X52428571Y31551429D02*
X52285714Y31694286D01*
X52285714Y32265714D01*
X52428571Y32408571D01*
X52714286Y32408571D01*
X52857143Y32265714D01*
X52857143Y31694286D01*
X52714286Y31551429D01*
X52428571Y31551429D01*
D15*
X52428571Y31694286D02*
X52714286Y32265714D01*
D15*
X53142857Y32408571D02*
X53714286Y32408571D01*
X53428571Y31980000D01*
X53714286Y31837143D01*
X53714286Y31694286D01*
X53571429Y31551429D01*
X53285714Y31551429D01*
X53142857Y31694286D01*
D15*
X54142857Y31980000D02*
X54428571Y31980000D01*
D15*
X55000000Y32265714D02*
X55142857Y32408571D01*
X55142857Y31551429D01*
D15*
X55000000Y31551429D02*
X55285714Y31551429D01*
D15*
X55714286Y31551429D02*
X55714286Y32408571D01*
X56000000Y31980000D01*
X56285714Y32408571D01*
X56285714Y31551429D01*
D15*
X56571429Y31551429D02*
X56571429Y32408571D01*
X57000000Y32408571D01*
X57142857Y32265714D01*
X57142857Y32122857D01*
X57000000Y31980000D01*
X56571429Y31980000D01*
D15*
X57428571Y31551429D02*
X58000000Y31551429D01*
D15*
X58285714Y31551429D02*
X58285714Y32408571D01*
X58714286Y32408571D01*
X58857143Y32265714D01*
X58857143Y32122857D01*
X58714286Y31980000D01*
X58285714Y31980000D01*
D15*
X59285714Y32265714D02*
X59428571Y32408571D01*
X59428571Y31551429D01*
D15*
X59285714Y31551429D02*
X59571429Y31551429D01*
D15*
X60285714Y31551429D02*
D15*
X61000000Y31551429D02*
X60857143Y31694286D01*
X60857143Y32265714D01*
X61000000Y32408571D01*
X61285714Y32408571D01*
X61428571Y32265714D01*
X61428571Y31694286D01*
X61285714Y31551429D01*
X61000000Y31551429D01*
D15*
X61000000Y31694286D02*
X61285714Y32265714D01*
D15*
X61857143Y31551429D02*
X61714286Y31694286D01*
X61714286Y32265714D01*
X61857143Y32408571D01*
X62142857Y32408571D01*
X62285714Y32265714D01*
X62285714Y31694286D01*
X62142857Y31551429D01*
X61857143Y31551429D01*
D15*
X61857143Y31694286D02*
X62142857Y32265714D01*
D15*
X62571429Y31551429D02*
X62571429Y32408571D01*
X62857143Y31980000D01*
X63142857Y32408571D01*
X63142857Y31551429D01*
D15*
X63428571Y31551429D02*
X63428571Y32408571D01*
X63714286Y31980000D01*
X64000000Y32408571D01*
X64000000Y31551429D01*
D15*
X64285714Y31551429D02*
X64857143Y31551429D01*
D15*
X65142857Y31551429D02*
X65142857Y32408571D01*
D15*
X65714286Y31551429D02*
X65714286Y32408571D01*
D15*
X65142857Y31980000D02*
X65714286Y31980000D01*
D15*
X66142857Y31551429D02*
X66000000Y31694286D01*
X66000000Y32265714D01*
X66142857Y32408571D01*
X66428571Y32408571D01*
X66571429Y32265714D01*
X66571429Y31694286D01*
X66428571Y31551429D01*
X66142857Y31551429D01*
D15*
X66857143Y31551429D02*
X66857143Y32408571D01*
X67285714Y32408571D01*
X67428571Y32265714D01*
X67428571Y32122857D01*
X67285714Y31980000D01*
X66857143Y31980000D01*
D15*
X67142857Y31980000D02*
X67428571Y31551429D01*
D15*
X67714286Y32408571D02*
X68285714Y32408571D01*
D15*
X68000000Y32408571D02*
X68000000Y31551429D01*
D15*
X67714286Y31551429D02*
X68285714Y31551429D01*
D15*
X68571429Y32408571D02*
X69142857Y32408571D01*
X68571429Y31551429D01*
X69142857Y31551429D01*
D15*
X69571429Y31551429D02*
X69428571Y31694286D01*
X69428571Y32265714D01*
X69571429Y32408571D01*
X69857143Y32408571D01*
X70000000Y32265714D01*
X70000000Y31694286D01*
X69857143Y31551429D01*
X69571429Y31551429D01*
D15*
X70285714Y31551429D02*
X70285714Y32408571D01*
X70857143Y31551429D01*
X70857143Y32408571D01*
D15*
X71142857Y32408571D02*
X71714286Y32408571D01*
D15*
X71428571Y32408571D02*
X71428571Y31551429D01*
D15*
X72000000Y31551429D02*
X72285714Y32408571D01*
X72571429Y31551429D01*
D15*
X72142857Y31980000D02*
X72428571Y31980000D01*
D15*
X72857143Y32408571D02*
X72857143Y31551429D01*
X73428571Y31551429D01*
D15*
X51571428Y28428571D02*
X51571428Y27714286D01*
X51428571Y27571429D01*
X51142857Y27571429D01*
X51000000Y27714286D01*
D15*
X52428571Y28285714D02*
X52285714Y28428571D01*
X52000000Y28428571D01*
X51857142Y28285714D01*
X51857142Y28142857D01*
X52000000Y28000000D01*
X52285714Y28000000D01*
X52428571Y27857143D01*
X52428571Y27714286D01*
X52285714Y27571429D01*
X52000000Y27571429D01*
X51857142Y27714286D01*
D15*
X52714285Y28428571D02*
X53285714Y28428571D01*
D15*
X53000000Y28428571D02*
X53000000Y27571429D01*
D15*
X53714285Y28285714D02*
X53857142Y28428571D01*
X53857142Y27571429D01*
D15*
X53714285Y27571429D02*
X54000000Y27571429D01*
D15*
X54571428Y27571429D02*
X54428571Y27714286D01*
X54428571Y28285714D01*
X54571428Y28428571D01*
X54857142Y28428571D01*
X55000000Y28285714D01*
X55000000Y27714286D01*
X54857142Y27571429D01*
X54571428Y27571429D01*
D15*
X54571428Y27714286D02*
X54857142Y28285714D01*
D14*
X21000000Y13000000D02*
X21000000Y15000000D01*
D14*
X21000000Y15000000D02*
X23000000Y15000000D01*
D14*
X23000000Y13000000D02*
X21000000Y13000000D01*
D14*
X23000000Y15000000D02*
X23000000Y13000000D01*
D15*
X13142858Y16928571D02*
X13142858Y16071429D01*
X13714286Y16071429D01*
D15*
X14000000Y16071429D02*
X14571429Y16071429D01*
D15*
X14857143Y16928571D02*
X15428572Y16928571D01*
D15*
X15142858Y16928571D02*
X15142858Y16071429D01*
D15*
X15714286Y16071429D02*
X16000000Y16928571D01*
X16285715Y16071429D01*
D15*
X15857143Y16500000D02*
X16142858Y16500000D01*
D15*
X16571429Y16928571D02*
X17142858Y16928571D01*
D15*
X16857143Y16928571D02*
X16857143Y16071429D01*
D15*
X16571429Y16071429D02*
X17142858Y16071429D01*
D15*
X17428572Y16928571D02*
X17714286Y16500000D01*
X18000000Y16928571D01*
D15*
X17714286Y16500000D02*
X17714286Y16071429D01*
D15*
X18428572Y16071429D02*
X18285715Y16214286D01*
X18285715Y16785714D01*
X18428572Y16928571D01*
X18714286Y16928571D01*
X18857143Y16785714D01*
X18857143Y16214286D01*
X18714286Y16071429D01*
X18428572Y16071429D01*
D15*
X19285715Y16500000D02*
X19571429Y16500000D01*
D15*
X20000000Y16928571D02*
X20285715Y16500000D01*
X20571429Y16928571D01*
D15*
X20285715Y16500000D02*
X20285715Y16071429D01*
D15*
X20857143Y16928571D02*
X20857143Y16214286D01*
X21000000Y16071429D01*
X21285715Y16071429D01*
X21428572Y16214286D01*
X21428572Y16928571D01*
D15*
X21714286Y16071429D02*
X21714286Y16928571D01*
X22000000Y16928571D01*
X22285715Y16642857D01*
X22285715Y16357143D01*
X22000000Y16071429D01*
X21714286Y16071429D01*
D15*
X23142858Y16928571D02*
X22571429Y16928571D01*
X22571429Y16071429D01*
X23142858Y16071429D01*
D15*
X22571429Y16500000D02*
X23000000Y16500000D01*
D15*
X23428572Y16071429D02*
X23428572Y16928571D01*
X24000000Y16071429D01*
X24000000Y16928571D01*
D15*
X24285715Y16071429D02*
X24857143Y16071429D01*
D15*
X25142858Y16071429D02*
X25142858Y16928571D01*
X25428572Y16500000D01*
X25714286Y16928571D01*
X25714286Y16071429D01*
D15*
X26000000Y16071429D02*
X26000000Y16928571D01*
X26285715Y16928571D01*
X26571429Y16642857D01*
X26571429Y16357143D01*
X26285715Y16071429D01*
X26000000Y16071429D01*
D15*
X27000000Y16500000D02*
X27285715Y16500000D01*
D15*
X27714286Y16785714D02*
X27857143Y16928571D01*
X28142858Y16928571D01*
X28285715Y16785714D01*
X28285715Y16642857D01*
X27714286Y16071429D01*
X28285715Y16071429D01*
D15*
X28714286Y16071429D02*
X28571429Y16214286D01*
X28571429Y16785714D01*
X28714286Y16928571D01*
X29000000Y16928571D01*
X29142858Y16785714D01*
X29142858Y16214286D01*
X29000000Y16071429D01*
X28714286Y16071429D01*
D15*
X28714286Y16214286D02*
X29000000Y16785714D01*
D15*
X29428572Y16785714D02*
X29571429Y16928571D01*
X29857143Y16928571D01*
X30000000Y16785714D01*
X30000000Y16642857D01*
X29428572Y16071429D01*
X30000000Y16071429D01*
D15*
X30428572Y16071429D02*
X30285715Y16214286D01*
X30285715Y16785714D01*
X30428572Y16928571D01*
X30714286Y16928571D01*
X30857143Y16785714D01*
X30857143Y16214286D01*
X30714286Y16071429D01*
X30428572Y16071429D01*
D15*
X30428572Y16214286D02*
X30714286Y16785714D01*
D12*
X21678572Y14214286D02*
X21678572Y13785715D01*
X21964286Y13785715D01*
D12*
X22178572Y14142857D02*
X22250000Y14214286D01*
X22250000Y13785715D01*
D12*
X22178572Y13785715D02*
X22321429Y13785715D01*
G36*
X23475000Y17730000D02*
X24525000Y17730000D01*
X24525000Y18270000D01*
X23475000Y18270000D01*
X23475000Y17730000D01*
G37*
D15*
X23285715Y19598571D02*
X23857143Y19598571D01*
X23571429Y19170000D01*
X23857143Y19027143D01*
X23857143Y18884286D01*
X23714286Y18741429D01*
X23428572Y18741429D01*
X23285715Y18884286D01*
D15*
X24142857Y19598571D02*
X24714286Y19598571D01*
X24428572Y19170000D01*
X24714286Y19027143D01*
X24714286Y18884286D01*
X24571429Y18741429D01*
X24285715Y18741429D01*
X24142857Y18884286D01*
D11*
X23832858Y17888572D02*
X23832858Y18111429D01*
X23944286Y18111429D01*
X23981429Y18074286D01*
X23981429Y18037143D01*
X23944286Y18000000D01*
X23832858Y18000000D01*
D11*
X23907143Y18000000D02*
X23981429Y17888572D01*
D11*
X24092858Y18074286D02*
X24130000Y18111429D01*
X24130000Y17888572D01*
D11*
X24092858Y17888572D02*
X24167143Y17888572D01*
G36*
X43475000Y33730000D02*
X44525000Y33730000D01*
X44525000Y34270000D01*
X43475000Y34270000D01*
X43475000Y33730000D01*
G37*
D15*
X43357143Y35455714D02*
X43500000Y35598571D01*
X43500000Y34741429D01*
D15*
X43357143Y34741429D02*
X43642857Y34741429D01*
D15*
X44071428Y34741429D02*
X44071428Y35598571D01*
D15*
X44642857Y35598571D02*
X44071428Y35170000D01*
X44642857Y34741429D01*
D11*
X43814286Y33888572D02*
X43814286Y34111429D01*
X43925714Y34111429D01*
X43962857Y34074286D01*
X43962857Y34037143D01*
X43925714Y34000000D01*
X43814286Y34000000D01*
D11*
X43888571Y34000000D02*
X43962857Y33888572D01*
D11*
X44037143Y34074286D02*
X44074286Y34111429D01*
X44148571Y34111429D01*
X44185714Y34074286D01*
X44185714Y34037143D01*
X44037143Y33888572D01*
X44185714Y33888572D01*
G36*
X21475000Y4730000D02*
X22525000Y4730000D01*
X22525000Y5270000D01*
X21475000Y5270000D01*
X21475000Y4730000D01*
G37*
D15*
X21000000Y6598571D02*
X20428572Y6598571D01*
X20428572Y6170000D01*
X20857143Y6170000D01*
X21000000Y6027143D01*
X21000000Y5884286D01*
X20857143Y5741429D01*
X20571429Y5741429D01*
X20428572Y5884286D01*
D15*
X21571429Y5741429D02*
D15*
X22285714Y6455714D02*
X22428572Y6598571D01*
X22428572Y5741429D01*
D15*
X22285714Y5741429D02*
X22571429Y5741429D01*
D15*
X23000000Y5741429D02*
X23000000Y6598571D01*
D15*
X23571429Y6598571D02*
X23000000Y6170000D01*
X23571429Y5741429D01*
D11*
X21814286Y4888572D02*
X21814286Y5111429D01*
X21925714Y5111429D01*
X21962857Y5074286D01*
X21962857Y5037143D01*
X21925714Y5000000D01*
X21814286Y5000000D01*
D11*
X21888571Y5000000D02*
X21962857Y4888572D01*
D11*
X22037143Y5111429D02*
X22185714Y5111429D01*
X22111428Y5000000D01*
X22185714Y4962857D01*
X22185714Y4925714D01*
X22148571Y4888572D01*
X22074286Y4888572D01*
X22037143Y4925714D01*
G36*
X33475000Y4730000D02*
X34525000Y4730000D01*
X34525000Y5270000D01*
X33475000Y5270000D01*
X33475000Y4730000D01*
G37*
D15*
X33000000Y6598571D02*
X32428572Y6598571D01*
X32428572Y6170000D01*
X32857143Y6170000D01*
X33000000Y6027143D01*
X33000000Y5884286D01*
X32857143Y5741429D01*
X32571429Y5741429D01*
X32428572Y5884286D01*
D15*
X33571429Y5741429D02*
D15*
X34285714Y6455714D02*
X34428572Y6598571D01*
X34428572Y5741429D01*
D15*
X34285714Y5741429D02*
X34571429Y5741429D01*
D15*
X35000000Y5741429D02*
X35000000Y6598571D01*
D15*
X35571429Y6598571D02*
X35000000Y6170000D01*
X35571429Y5741429D01*
D11*
X33814286Y4888572D02*
X33814286Y5111429D01*
X33925714Y5111429D01*
X33962857Y5074286D01*
X33962857Y5037143D01*
X33925714Y5000000D01*
X33814286Y5000000D01*
D11*
X33888571Y5000000D02*
X33962857Y4888572D01*
D11*
X34148571Y4888572D02*
X34148571Y5111429D01*
X34037143Y4962857D01*
X34185714Y4962857D01*
G36*
X30475000Y7730000D02*
X31525000Y7730000D01*
X31525000Y8270000D01*
X30475000Y8270000D01*
X30475000Y7730000D01*
G37*
D15*
X30285715Y9455714D02*
X30428572Y9598571D01*
X30714286Y9598571D01*
X30857143Y9455714D01*
X30857143Y9312857D01*
X30285715Y8741429D01*
X30857143Y8741429D01*
D15*
X31142857Y9598571D02*
X31714286Y9598571D01*
X31285715Y8741429D01*
D11*
X30814286Y7888572D02*
X30814286Y8111429D01*
X30925714Y8111429D01*
X30962857Y8074286D01*
X30962857Y8037143D01*
X30925714Y8000000D01*
X30814286Y8000000D01*
D11*
X30888571Y8000000D02*
X30962857Y7888572D01*
D11*
X31185714Y8111429D02*
X31037143Y8111429D01*
X31037143Y8000000D01*
X31148571Y8000000D01*
X31185714Y7962857D01*
X31185714Y7925714D01*
X31148571Y7888572D01*
X31074286Y7888572D01*
X31037143Y7925714D01*
G36*
X24475000Y7730000D02*
X25525000Y7730000D01*
X25525000Y8270000D01*
X24475000Y8270000D01*
X24475000Y7730000D01*
G37*
D15*
X24285715Y9455714D02*
X24428572Y9598571D01*
X24714286Y9598571D01*
X24857143Y9455714D01*
X24857143Y9312857D01*
X24285715Y8741429D01*
X24857143Y8741429D01*
D15*
X25142857Y9598571D02*
X25714286Y9598571D01*
X25285715Y8741429D01*
D11*
X24814286Y7888572D02*
X24814286Y8111429D01*
X24925714Y8111429D01*
X24962857Y8074286D01*
X24962857Y8037143D01*
X24925714Y8000000D01*
X24814286Y8000000D01*
D11*
X24888571Y8000000D02*
X24962857Y7888572D01*
D11*
X25185714Y8074286D02*
X25148571Y8111429D01*
X25074286Y8111429D01*
X25037143Y8074286D01*
X25037143Y7925714D01*
X25074286Y7888572D01*
X25148571Y7888572D01*
X25185714Y7925714D01*
X25185714Y7962857D01*
X25148571Y8000000D01*
X25037143Y8000000D01*
G36*
X15475000Y26730000D02*
X16525000Y26730000D01*
X16525000Y27270000D01*
X15475000Y27270000D01*
X15475000Y26730000D01*
G37*
D15*
X15357143Y28455714D02*
X15500000Y28598571D01*
X15500000Y27741429D01*
D15*
X15357143Y27741429D02*
X15642857Y27741429D01*
D15*
X16071428Y27741429D02*
X16071428Y28598571D01*
D15*
X16642857Y28598571D02*
X16071428Y28170000D01*
X16642857Y27741429D01*
D11*
X15814286Y26888572D02*
X15814286Y27111429D01*
X15925714Y27111429D01*
X15962857Y27074286D01*
X15962857Y27037143D01*
X15925714Y27000000D01*
X15814286Y27000000D01*
D11*
X15888571Y27000000D02*
X15962857Y26888572D01*
D11*
X16037143Y27111429D02*
X16185714Y27111429D01*
X16074286Y26888572D01*
G36*
X39100000Y39600000D02*
X40900000Y39600000D01*
X40900000Y40200000D01*
X39100000Y40200000D01*
X39100000Y39600000D01*
G37*
G36*
X37400000Y36600000D02*
X42600000Y36600000D01*
X42600000Y39600000D01*
X37400000Y39600000D01*
X37400000Y36600000D01*
G37*
D14*
X38514285Y38642857D02*
X38057143Y38642857D01*
X38057143Y37957143D01*
X38514285Y37957143D01*
D14*
X38057143Y38300000D02*
X38400000Y38300000D01*
D14*
X38742857Y38642857D02*
X38971428Y37957143D01*
X39200000Y38642857D01*
D14*
X39542857Y37957143D02*
X39428571Y38071428D01*
X39428571Y38528571D01*
X39542857Y38642857D01*
X39771428Y38642857D01*
X39885714Y38528571D01*
X39885714Y38071428D01*
X39771428Y37957143D01*
X39542857Y37957143D01*
D14*
X39657143Y38185714D02*
X39885714Y37957143D01*
D14*
X40114285Y37957143D02*
X40114285Y38642857D01*
X40457143Y38642857D01*
X40571428Y38528571D01*
X40571428Y38414285D01*
X40457143Y38300000D01*
X40114285Y38300000D01*
D14*
X40800000Y38642857D02*
X41257143Y38642857D01*
X40914285Y37957143D01*
D14*
X41485714Y37957143D02*
X41714285Y38642857D01*
X41942857Y37957143D01*
D14*
X41600000Y38300000D02*
X41828571Y38300000D01*
G36*
X15100000Y39600000D02*
X16900000Y39600000D01*
X16900000Y40200000D01*
X15100000Y40200000D01*
X15100000Y39600000D01*
G37*
G36*
X13400000Y36600000D02*
X18600000Y36600000D01*
X18600000Y39600000D01*
X13400000Y39600000D01*
X13400000Y36600000D01*
G37*
D14*
X14514285Y38642857D02*
X14057143Y38642857D01*
X14057143Y37957143D01*
X14514285Y37957143D01*
D14*
X14057143Y38300000D02*
X14400000Y38300000D01*
D14*
X14742857Y38642857D02*
X14971428Y37957143D01*
X15200000Y38642857D01*
D14*
X15542857Y37957143D02*
X15428571Y38071428D01*
X15428571Y38528571D01*
X15542857Y38642857D01*
X15771428Y38642857D01*
X15885714Y38528571D01*
X15885714Y38071428D01*
X15771428Y37957143D01*
X15542857Y37957143D01*
D14*
X15657143Y38185714D02*
X15885714Y37957143D01*
D14*
X16114285Y37957143D02*
X16114285Y38642857D01*
X16457143Y38642857D01*
X16571428Y38528571D01*
X16571428Y38414285D01*
X16457143Y38300000D01*
X16114285Y38300000D01*
D14*
X16800000Y38642857D02*
X17257143Y38642857D01*
X16914285Y37957143D01*
D14*
X17485714Y37957143D02*
X17714285Y38642857D01*
X17942857Y37957143D01*
D14*
X17600000Y38300000D02*
X17828571Y38300000D01*
G36*
X25500000Y20500000D02*
X31500000Y20500000D01*
X31500000Y27500000D01*
X24500000Y27500000D01*
X24500000Y21500000D01*
X25500000Y20500000D01*
G37*
D15*
X8142857Y28371429D02*
X8000000Y28514286D01*
X8000000Y29085714D01*
X8142857Y29228571D01*
X8428571Y29228571D01*
X8571428Y29085714D01*
X8571428Y28514286D01*
X8428571Y28371429D01*
X8142857Y28371429D01*
D15*
X8285714Y28657143D02*
X8571428Y28371429D01*
D15*
X9428571Y29228571D02*
X8857142Y29228571D01*
X8857142Y28371429D01*
D15*
X8857142Y28800000D02*
X9285714Y28800000D01*
D15*
X9714285Y28371429D02*
X9714285Y29228571D01*
X10285714Y28371429D01*
X10285714Y29228571D01*
D15*
X10714285Y28800000D02*
X11000000Y28800000D01*
D15*
X12000000Y29085714D02*
X11857142Y29228571D01*
X11571428Y29228571D01*
X11428571Y29085714D01*
X11428571Y28514286D01*
X11571428Y28371429D01*
X11857142Y28371429D01*
X12000000Y28514286D01*
X12000000Y28657143D01*
X11857142Y28800000D01*
X11428571Y28800000D01*
D15*
X12428571Y28371429D02*
X12285714Y28514286D01*
X12285714Y29085714D01*
X12428571Y29228571D01*
X12714285Y29228571D01*
X12857142Y29085714D01*
X12857142Y28514286D01*
X12714285Y28371429D01*
X12428571Y28371429D01*
D15*
X12428571Y28514286D02*
X12714285Y29085714D01*
D15*
X13285714Y28800000D02*
X13571428Y28800000D01*
D15*
X14142857Y29085714D02*
X14285714Y29228571D01*
X14285714Y28371429D01*
D15*
X14142857Y28371429D02*
X14428571Y28371429D01*
D15*
X15428571Y29228571D02*
X14857142Y29228571D01*
X14857142Y28371429D01*
X15428571Y28371429D01*
D15*
X14857142Y28800000D02*
X15285714Y28800000D01*
D15*
X15714285Y28371429D02*
X15714285Y29228571D01*
X16142857Y29228571D01*
X16285714Y29085714D01*
X16285714Y28942857D01*
X16142857Y28800000D01*
X15714285Y28800000D01*
D15*
X16571428Y28371429D02*
X17142857Y28371429D01*
D15*
X17428571Y29228571D02*
X18000000Y29228571D01*
X17571428Y28371429D01*
D15*
X18285714Y28371429D02*
X18857142Y29228571D01*
D15*
X18285714Y29228571D02*
X18857142Y28371429D01*
D15*
X19142857Y29228571D02*
X19714285Y29228571D01*
X19285714Y28371429D01*
D15*
X20000000Y28371429D02*
X20000000Y29228571D01*
X20285714Y28800000D01*
X20571428Y29228571D01*
X20571428Y28371429D01*
D15*
X20857142Y28371429D02*
X20857142Y29228571D01*
X21142857Y28800000D01*
X21428571Y29228571D01*
X21428571Y28371429D01*
D15*
X21714285Y28371429D02*
X22285714Y28371429D01*
D15*
X22571428Y28371429D02*
X22571428Y29228571D01*
X23000000Y29228571D01*
X23142857Y29085714D01*
X23142857Y28942857D01*
X23000000Y28800000D01*
X22571428Y28800000D01*
D15*
X23571428Y28371429D02*
X23428571Y28514286D01*
X23428571Y29085714D01*
X23571428Y29228571D01*
X23857142Y29228571D01*
X24000000Y29085714D01*
X24000000Y28514286D01*
X23857142Y28371429D01*
X23571428Y28371429D01*
D15*
X23571428Y28514286D02*
X23857142Y29085714D01*
D15*
X24571428Y28371429D02*
D15*
X25571428Y28371429D02*
X25571428Y29228571D01*
X25142857Y28657143D01*
X25714285Y28657143D01*
D15*
X26000000Y28371429D02*
X26000000Y29228571D01*
X26285714Y28800000D01*
X26571428Y29228571D01*
X26571428Y28371429D01*
D15*
X26857142Y28371429D02*
X26857142Y29228571D01*
X27142857Y28800000D01*
X27428571Y29228571D01*
X27428571Y28371429D01*
D15*
X27714285Y28371429D02*
X28285714Y28371429D01*
D15*
X29142857Y29228571D02*
X28571428Y29228571D01*
X28571428Y28371429D01*
X29142857Y28371429D01*
D15*
X28571428Y28800000D02*
X29000000Y28800000D01*
D15*
X29428571Y28371429D02*
X29428571Y29228571D01*
X29857142Y29228571D01*
X30000000Y29085714D01*
X30000000Y28942857D01*
X29857142Y28800000D01*
X29428571Y28800000D01*
D15*
X30285714Y29228571D02*
X30857142Y29228571D01*
X30571428Y28800000D01*
X30857142Y28657143D01*
X30857142Y28514286D01*
X30714285Y28371429D01*
X30428571Y28371429D01*
X30285714Y28514286D01*
D15*
X31428571Y28371429D02*
D15*
X32428571Y28371429D02*
X32428571Y29228571D01*
X32000000Y28657143D01*
X32571428Y28657143D01*
D15*
X32857142Y28371429D02*
X33428571Y29228571D01*
D15*
X32857142Y29228571D02*
X33428571Y28371429D01*
D15*
X33714285Y29228571D02*
X34285714Y29228571D01*
X34000000Y28800000D01*
X34285714Y28657143D01*
X34285714Y28514286D01*
X34142857Y28371429D01*
X33857142Y28371429D01*
X33714285Y28514286D01*
D15*
X34857142Y28371429D02*
D15*
X35857142Y28371429D02*
X35857142Y29228571D01*
X35428571Y28657143D01*
X36000000Y28657143D01*
D15*
X36285714Y28371429D02*
X36285714Y29228571D01*
X36571428Y28800000D01*
X36857142Y29228571D01*
X36857142Y28371429D01*
D15*
X37142857Y28371429D02*
X37142857Y29228571D01*
X37428571Y28800000D01*
X37714285Y29228571D01*
X37714285Y28371429D01*
D15*
X38000000Y28371429D02*
X38571428Y28371429D01*
D15*
X38857142Y29228571D02*
X39428571Y29228571D01*
D15*
X39142857Y29228571D02*
X39142857Y28371429D01*
D15*
X39714285Y28371429D02*
X39714285Y29228571D01*
D15*
X40285714Y28371429D02*
X40285714Y29228571D01*
D15*
X39714285Y28800000D02*
X40285714Y28800000D01*
D15*
X41142857Y29228571D02*
X40571428Y29228571D01*
X40571428Y28371429D01*
X41142857Y28371429D01*
D15*
X40571428Y28800000D02*
X41000000Y28800000D01*
D15*
X41428571Y28371429D02*
X41428571Y29228571D01*
X41857142Y29228571D01*
X42000000Y29085714D01*
X42000000Y28942857D01*
X41857142Y28800000D01*
X41428571Y28800000D01*
D15*
X41714285Y28800000D02*
X42000000Y28371429D01*
D15*
X42285714Y28371429D02*
X42285714Y29228571D01*
X42571428Y28800000D01*
X42857142Y29228571D01*
X42857142Y28371429D01*
D15*
X43142857Y28371429D02*
X43428571Y29228571D01*
X43714285Y28371429D01*
D15*
X43285714Y28800000D02*
X43571428Y28800000D01*
D15*
X44000000Y29228571D02*
X44000000Y28371429D01*
X44571428Y28371429D01*
D15*
X44857142Y29228571D02*
X45142857Y28371429D01*
X45428571Y29228571D01*
D15*
X45714285Y29228571D02*
X46285714Y29228571D01*
D15*
X46000000Y29228571D02*
X46000000Y28371429D01*
D15*
X45714285Y28371429D02*
X46285714Y28371429D01*
D15*
X46571428Y28371429D02*
X46857142Y29228571D01*
X47142857Y28371429D01*
D15*
X46714285Y28800000D02*
X47000000Y28800000D01*
D15*
X48000000Y29085714D02*
X47857142Y29228571D01*
X47571428Y29228571D01*
X47428571Y29085714D01*
X47428571Y28942857D01*
X47571428Y28800000D01*
X47857142Y28800000D01*
X48000000Y28657143D01*
X48000000Y28514286D01*
X47857142Y28371429D01*
X47571428Y28371429D01*
X47428571Y28514286D01*
D15*
X26642857Y23571429D02*
X26500000Y23714286D01*
X26500000Y24285714D01*
X26642857Y24428571D01*
X26928571Y24428571D01*
X27071428Y24285714D01*
X27071428Y23714286D01*
X26928571Y23571429D01*
X26642857Y23571429D01*
D15*
X26785714Y23857143D02*
X27071428Y23571429D01*
D15*
X27928571Y24428571D02*
X27357142Y24428571D01*
X27357142Y23571429D01*
D15*
X27357142Y24000000D02*
X27785714Y24000000D01*
D15*
X28214285Y23571429D02*
X28214285Y24428571D01*
X28785714Y23571429D01*
X28785714Y24428571D01*
D15*
X29214285Y24285714D02*
X29357142Y24428571D01*
X29357142Y23571429D01*
D15*
X29214285Y23571429D02*
X29500000Y23571429D01*
G36*
X37025000Y27550000D02*
X39950000Y27550000D01*
X39950000Y32450000D01*
X36050000Y32450000D01*
X36050000Y28525000D01*
X37025000Y27550000D01*
G37*
D15*
X28428571Y33685714D02*
X28285714Y33828571D01*
X28000000Y33828571D01*
X27857143Y33685714D01*
X27857143Y33542857D01*
X28000000Y33400000D01*
X28285714Y33400000D01*
X28428571Y33257143D01*
X28428571Y33114286D01*
X28285714Y32971429D01*
X28000000Y32971429D01*
X27857143Y33114286D01*
D15*
X28857143Y32971429D02*
X28714285Y33114286D01*
X28714285Y33685714D01*
X28857143Y33828571D01*
X29142857Y33828571D01*
X29285714Y33685714D01*
X29285714Y33114286D01*
X29142857Y32971429D01*
X28857143Y32971429D01*
D15*
X29571428Y33828571D02*
X30142857Y33828571D01*
D15*
X29857143Y33828571D02*
X29857143Y32971429D01*
D15*
X29571428Y32971429D02*
X30142857Y32971429D01*
D15*
X31000000Y33685714D02*
X30857143Y33828571D01*
X30571428Y33828571D01*
X30428571Y33685714D01*
X30428571Y33114286D01*
X30571428Y32971429D01*
X30857143Y32971429D01*
X31000000Y33114286D01*
D15*
X31428571Y33400000D02*
X31714285Y33400000D01*
D15*
X32285714Y33400000D02*
X32142857Y33542857D01*
X32142857Y33685714D01*
X32285714Y33828571D01*
X32571428Y33828571D01*
X32714285Y33685714D01*
X32714285Y33542857D01*
X32571428Y33400000D01*
X32285714Y33400000D01*
D15*
X32571428Y33400000D02*
X32714285Y33257143D01*
X32714285Y33114286D01*
X32571428Y32971429D01*
X32285714Y32971429D01*
X32142857Y33114286D01*
X32142857Y33257143D01*
X32285714Y33400000D01*
D15*
X33000000Y32971429D02*
X33571428Y32971429D01*
D15*
X33857143Y33828571D02*
X34428571Y33828571D01*
X34142857Y33400000D01*
X34428571Y33257143D01*
X34428571Y33114286D01*
X34285714Y32971429D01*
X34000000Y32971429D01*
X33857143Y33114286D01*
D15*
X35000000Y32971429D02*
D15*
X36142857Y33542857D02*
X36000000Y33400000D01*
X35714285Y33400000D01*
X35571428Y33542857D01*
X35571428Y33685714D01*
X35714285Y33828571D01*
X36000000Y33828571D01*
X36142857Y33685714D01*
X36142857Y33542857D01*
D15*
X36142857Y33542857D02*
X36142857Y33114286D01*
X36000000Y32971429D01*
X35714285Y32971429D01*
D15*
X36428571Y32971429D02*
X37000000Y33828571D01*
D15*
X36428571Y33828571D02*
X37000000Y32971429D01*
D15*
X37714285Y32971429D02*
X37714285Y33828571D01*
X37285714Y33257143D01*
X37857143Y33257143D01*
D15*
X38428571Y32971429D02*
D15*
X39571428Y33542857D02*
X39428571Y33400000D01*
X39142857Y33400000D01*
X39000000Y33542857D01*
X39000000Y33685714D01*
X39142857Y33828571D01*
X39428571Y33828571D01*
X39571428Y33685714D01*
X39571428Y33542857D01*
D15*
X39571428Y33542857D02*
X39571428Y33114286D01*
X39428571Y32971429D01*
X39142857Y32971429D01*
D15*
X39857143Y32971429D02*
X39857143Y33828571D01*
X40142857Y33400000D01*
X40428571Y33828571D01*
X40428571Y32971429D01*
D15*
X40714285Y32971429D02*
X40714285Y33828571D01*
X41000000Y33400000D01*
X41285714Y33828571D01*
X41285714Y32971429D01*
D15*
X41571428Y32971429D02*
X42142857Y32971429D01*
D15*
X42428571Y32971429D02*
X42428571Y33828571D01*
X42857143Y33828571D01*
X43000000Y33685714D01*
X43000000Y33542857D01*
X42857143Y33400000D01*
X42428571Y33400000D01*
D15*
X43428571Y33685714D02*
X43571428Y33828571D01*
X43571428Y32971429D01*
D15*
X43428571Y32971429D02*
X43714285Y32971429D01*
D15*
X44428571Y32971429D02*
D15*
X45000000Y33685714D02*
X45142857Y33828571D01*
X45428571Y33828571D01*
X45571428Y33685714D01*
X45571428Y33542857D01*
X45000000Y32971429D01*
X45571428Y32971429D01*
D15*
X45857143Y33828571D02*
X46428571Y33828571D01*
X46000000Y32971429D01*
D15*
X46714285Y32971429D02*
X46714285Y33828571D01*
X47000000Y33400000D01*
X47285714Y33828571D01*
X47285714Y32971429D01*
D15*
X47571428Y32971429D02*
X47571428Y33828571D01*
X47857143Y33400000D01*
X48142857Y33828571D01*
X48142857Y32971429D01*
D15*
X37714286Y28642857D02*
X37571429Y28500000D01*
X37571429Y28214286D01*
X37714286Y28071429D01*
X37857143Y28071429D01*
X38000000Y28214286D01*
X38000000Y28500000D01*
X38142857Y28642857D01*
X38285714Y28642857D01*
X38428571Y28500000D01*
X38428571Y28214286D01*
X38285714Y28071429D01*
D15*
X38428571Y29071429D02*
X38285714Y28928571D01*
X37714286Y28928571D01*
X37571429Y29071429D01*
X37571429Y29357143D01*
X37714286Y29500000D01*
X38285714Y29500000D01*
X38428571Y29357143D01*
X38428571Y29071429D01*
D15*
X37571429Y29785714D02*
X37571429Y30357143D01*
D15*
X37571429Y30071429D02*
X38428571Y30071429D01*
D15*
X38428571Y29785714D02*
X38428571Y30357143D01*
D15*
X37714286Y31214286D02*
X37571429Y31071429D01*
X37571429Y30785714D01*
X37714286Y30642857D01*
X38285714Y30642857D01*
X38428571Y30785714D01*
X38428571Y31071429D01*
X38285714Y31214286D01*
D15*
X37714286Y31642857D02*
X37571429Y31785714D01*
X38428571Y31785714D01*
D15*
X38428571Y31642857D02*
X38428571Y31928571D01*
G36*
X13600000Y12550000D02*
X14800000Y12550000D01*
X14800000Y15450000D01*
X13200000Y15450000D01*
X13200000Y12950000D01*
X13600000Y12550000D01*
G37*
D15*
X11285714Y16685714D02*
X11142857Y16828571D01*
X10857143Y16828571D01*
X10714286Y16685714D01*
X10714286Y16542857D01*
X10857143Y16400000D01*
X11142857Y16400000D01*
X11285714Y16257143D01*
X11285714Y16114286D01*
X11142857Y15971429D01*
X10857143Y15971429D01*
X10714286Y16114286D01*
D15*
X11714286Y15971429D02*
X11571428Y16114286D01*
X11571428Y16685714D01*
X11714286Y16828571D01*
X12000000Y16828571D01*
X12142857Y16685714D01*
X12142857Y16114286D01*
X12000000Y15971429D01*
X11714286Y15971429D01*
D15*
X12428571Y16828571D02*
X13000000Y16828571D01*
D15*
X12714286Y16828571D02*
X12714286Y15971429D01*
D15*
X13428571Y16400000D02*
X13714286Y16400000D01*
D15*
X14142857Y16685714D02*
X14285714Y16828571D01*
X14571428Y16828571D01*
X14714286Y16685714D01*
X14714286Y16542857D01*
X14142857Y15971429D01*
X14714286Y15971429D01*
D15*
X15000000Y16828571D02*
X15571428Y16828571D01*
X15285714Y16400000D01*
X15571428Y16257143D01*
X15571428Y16114286D01*
X15428571Y15971429D01*
X15142857Y15971429D01*
X15000000Y16114286D01*
D15*
X16000000Y16400000D02*
X16285714Y16400000D01*
D15*
X17285714Y16828571D02*
X16714286Y16828571D01*
X16714286Y16400000D01*
X17142857Y16400000D01*
X17285714Y16257143D01*
X17285714Y16114286D01*
X17142857Y15971429D01*
X16857143Y15971429D01*
X16714286Y16114286D01*
D13*
X13794286Y13331428D02*
X13691429Y13228571D01*
X13691429Y13022857D01*
X13794286Y12920000D01*
X13897143Y12920000D01*
X14000000Y13022857D01*
X14000000Y13228571D01*
X14102857Y13331428D01*
X14205714Y13331428D01*
X14308571Y13228571D01*
X14308571Y13022857D01*
X14205714Y12920000D01*
D13*
X14308571Y13640000D02*
X14205714Y13537142D01*
X13794286Y13537142D01*
X13691429Y13640000D01*
X13691429Y13845714D01*
X13794286Y13948571D01*
X14205714Y13948571D01*
X14308571Y13845714D01*
X14308571Y13640000D01*
D13*
X13691429Y14154285D02*
X13691429Y14565714D01*
D13*
X13691429Y14360000D02*
X14308571Y14360000D01*
D13*
X13794286Y14874285D02*
X13691429Y14977142D01*
X14308571Y14977142D01*
D13*
X14308571Y14874285D02*
X14308571Y15080000D01*
G36*
X19600000Y28750000D02*
X19600000Y31250000D01*
X17025000Y31250000D01*
X16400000Y30625000D01*
X16400000Y28750000D01*
X19600000Y28750000D01*
G37*
D15*
X5428571Y32735714D02*
X5285714Y32878571D01*
X5000000Y32878571D01*
X4857143Y32735714D01*
X4857143Y32164286D01*
X5000000Y32021429D01*
X5285714Y32021429D01*
X5428571Y32164286D01*
D15*
X5714285Y32021429D02*
X5714285Y32878571D01*
X6142857Y32878571D01*
X6285714Y32735714D01*
X6285714Y32592857D01*
X6142857Y32450000D01*
X5714285Y32450000D01*
D15*
X6000000Y32450000D02*
X6285714Y32021429D01*
D15*
X6571428Y32878571D02*
X6857143Y32450000D01*
X7142857Y32878571D01*
D15*
X6857143Y32450000D02*
X6857143Y32021429D01*
D15*
X8000000Y32735714D02*
X7857143Y32878571D01*
X7571428Y32878571D01*
X7428571Y32735714D01*
X7428571Y32592857D01*
X7571428Y32450000D01*
X7857143Y32450000D01*
X8000000Y32307143D01*
X8000000Y32164286D01*
X7857143Y32021429D01*
X7571428Y32021429D01*
X7428571Y32164286D01*
D15*
X8285714Y32878571D02*
X8857143Y32878571D01*
D15*
X8571428Y32878571D02*
X8571428Y32021429D01*
D15*
X9142857Y32021429D02*
X9428571Y32878571D01*
X9714285Y32021429D01*
D15*
X9285714Y32450000D02*
X9571428Y32450000D01*
D15*
X10000000Y32878571D02*
X10000000Y32021429D01*
X10571428Y32021429D01*
D15*
X10857143Y32021429D02*
X11428571Y32021429D01*
D15*
X12285714Y32735714D02*
X12142857Y32878571D01*
X11857143Y32878571D01*
X11714285Y32735714D01*
X11714285Y32592857D01*
X11857143Y32450000D01*
X12142857Y32450000D01*
X12285714Y32307143D01*
X12285714Y32164286D01*
X12142857Y32021429D01*
X11857143Y32021429D01*
X11714285Y32164286D01*
D15*
X12571428Y32021429D02*
X12571428Y32878571D01*
X12857143Y32450000D01*
X13142857Y32878571D01*
X13142857Y32021429D01*
D15*
X13428571Y32021429D02*
X13428571Y32878571D01*
X13714285Y32878571D01*
X14000000Y32592857D01*
X14000000Y32307143D01*
X13714285Y32021429D01*
X13428571Y32021429D01*
D15*
X14285714Y32021429D02*
X14857143Y32021429D01*
D15*
X15142857Y32878571D02*
X15714285Y32878571D01*
X15428571Y32450000D01*
X15714285Y32307143D01*
X15714285Y32164286D01*
X15571428Y32021429D01*
X15285714Y32021429D01*
X15142857Y32164286D01*
D15*
X16000000Y32735714D02*
X16142857Y32878571D01*
X16428571Y32878571D01*
X16571428Y32735714D01*
X16571428Y32592857D01*
X16000000Y32021429D01*
X16571428Y32021429D01*
D15*
X16857143Y32735714D02*
X17000000Y32878571D01*
X17285714Y32878571D01*
X17428571Y32735714D01*
X17428571Y32592857D01*
X16857143Y32021429D01*
X17428571Y32021429D01*
D15*
X18285714Y32878571D02*
X17714285Y32878571D01*
X17714285Y32450000D01*
X18142857Y32450000D01*
X18285714Y32307143D01*
X18285714Y32164286D01*
X18142857Y32021429D01*
X17857143Y32021429D01*
X17714285Y32164286D01*
D15*
X18714285Y32450000D02*
X19000000Y32450000D01*
D15*
X19857143Y32021429D02*
X19857143Y32878571D01*
X19428571Y32307143D01*
X20000000Y32307143D01*
D15*
X20285714Y32021429D02*
X20285714Y32878571D01*
X20714285Y32878571D01*
X20857143Y32735714D01*
X20857143Y32592857D01*
X20714285Y32450000D01*
X20285714Y32450000D01*
D15*
X21142857Y32878571D02*
X21714285Y32878571D01*
D15*
X21428571Y32878571D02*
X21428571Y32021429D01*
D15*
X21142857Y32021429D02*
X21714285Y32021429D01*
D15*
X22000000Y32021429D02*
X22000000Y32878571D01*
X22571428Y32021429D01*
X22571428Y32878571D01*
D15*
X22857143Y32021429D02*
X23428571Y32021429D01*
D15*
X23714285Y32878571D02*
X24285714Y32878571D01*
X24000000Y32450000D01*
X24285714Y32307143D01*
X24285714Y32164286D01*
X24142857Y32021429D01*
X23857143Y32021429D01*
X23714285Y32164286D01*
D15*
X24857143Y32021429D02*
D15*
X25428571Y32735714D02*
X25571428Y32878571D01*
X25857143Y32878571D01*
X26000000Y32735714D01*
X26000000Y32592857D01*
X25428571Y32021429D01*
X26000000Y32021429D01*
D15*
X26285714Y32021429D02*
X26857143Y32878571D01*
D15*
X26285714Y32878571D02*
X26857143Y32021429D01*
D15*
X27142857Y32735714D02*
X27285714Y32878571D01*
X27571428Y32878571D01*
X27714285Y32735714D01*
X27714285Y32592857D01*
X27142857Y32021429D01*
X27714285Y32021429D01*
D15*
X28285714Y32021429D02*
D15*
X29428571Y32878571D02*
X28857143Y32878571D01*
X28857143Y32450000D01*
X29285714Y32450000D01*
X29428571Y32307143D01*
X29428571Y32164286D01*
X29285714Y32021429D01*
X29000000Y32021429D01*
X28857143Y32164286D01*
D15*
X29714285Y32021429D02*
X29714285Y32878571D01*
X30000000Y32450000D01*
X30285714Y32878571D01*
X30285714Y32021429D01*
D15*
X30571428Y32021429D02*
X30571428Y32878571D01*
X30857143Y32450000D01*
X31142857Y32878571D01*
X31142857Y32021429D01*
D14*
X15885714Y30228571D02*
X15771429Y30342857D01*
X15542857Y30342857D01*
X15428572Y30228571D01*
X15428572Y29771428D01*
X15542857Y29657143D01*
X15771429Y29657143D01*
X15885714Y29771428D01*
D14*
X16114286Y29657143D02*
X16114286Y30342857D01*
X16457143Y30342857D01*
X16571429Y30228571D01*
X16571429Y30114285D01*
X16457143Y30000000D01*
X16114286Y30000000D01*
D14*
X16342857Y30000000D02*
X16571429Y29657143D01*
D14*
X16800000Y30342857D02*
X17028572Y30000000D01*
X17257143Y30342857D01*
D14*
X17028572Y30000000D02*
X17028572Y29657143D01*
D14*
X17942857Y30228571D02*
X17828572Y30342857D01*
X17600000Y30342857D01*
X17485714Y30228571D01*
X17485714Y30114285D01*
X17600000Y30000000D01*
X17828572Y30000000D01*
X17942857Y29885714D01*
X17942857Y29771428D01*
X17828572Y29657143D01*
X17600000Y29657143D01*
X17485714Y29771428D01*
D14*
X18171429Y30342857D02*
X18628572Y30342857D01*
D14*
X18400000Y30342857D02*
X18400000Y29657143D01*
D14*
X18857143Y29657143D02*
X19085714Y30342857D01*
X19314286Y29657143D01*
D14*
X18971429Y30000000D02*
X19200000Y30000000D01*
D14*
X19542857Y30342857D02*
X19542857Y29657143D01*
X20000000Y29657143D01*
D14*
X20342857Y30228571D02*
X20457143Y30342857D01*
X20457143Y29657143D01*
D14*
X20342857Y29657143D02*
X20571429Y29657143D01*
M02*
