G04 In2_Cu *
%FSLAX46Y46*%
%MOMM*%
%ADD10C,0.500000*%
%ADD11O,1.000000X2.100000*%
G01*
D11*
X23680000Y-130000D03*
D10*
X26550000Y22550000D03*
G36*
G01*
X1000000Y1000000D02*
X23387866Y1000000D01*
X23431256Y1020522D01*
X23491315Y1042011D01*
X23553191Y1057510D01*
X23616289Y1066870D01*
X23680000Y1070000D01*
X23743711Y1066870D01*
X23806809Y1057510D01*
X23868685Y1042011D01*
X23928744Y1020522D01*
X23972134Y1000000D01*
X55000000Y1000000D01*
X55000000Y43000000D01*
X1000000Y43000000D01*
X1000000Y1000000D01*
X26948074Y22589207D02*
X26950000Y22550000D01*
X26948074Y22510793D01*
X26942314Y22471964D01*
X26932776Y22433886D01*
X26919552Y22396927D01*
X26902769Y22361441D01*
X26882588Y22327772D01*
X26859204Y22296243D01*
X26832843Y22267157D01*
X26803757Y22240796D01*
X26772228Y22217412D01*
X26738559Y22197231D01*
X26703073Y22180448D01*
X26666114Y22167224D01*
X26628036Y22157686D01*
X26589207Y22151926D01*
X26550000Y22150000D01*
X26510793Y22151926D01*
X26471964Y22157686D01*
X26433886Y22167224D01*
X26396927Y22180448D01*
X26361441Y22197231D01*
X26327772Y22217412D01*
X26296243Y22240796D01*
X26267157Y22267157D01*
X26240796Y22296243D01*
X26217412Y22327772D01*
X26197231Y22361441D01*
X26180448Y22396927D01*
X26167224Y22433886D01*
X26157686Y22471964D01*
X26151926Y22510793D01*
X26150000Y22550000D01*
X26151926Y22589207D01*
X26157686Y22628036D01*
X26167224Y22666114D01*
X26180448Y22703073D01*
X26197231Y22738559D01*
X26217412Y22772228D01*
X26240796Y22803757D01*
X26267157Y22832843D01*
X26296243Y22859204D01*
X26327772Y22882588D01*
X26361441Y22902769D01*
X26396927Y22919552D01*
X26433886Y22932776D01*
X26471964Y22942314D01*
X26510793Y22948074D01*
X26550000Y22950000D01*
X26589207Y22948074D01*
X26628036Y22942314D01*
X26666114Y22932776D01*
X26703073Y22919552D01*
X26738559Y22902769D01*
X26772228Y22882588D01*
X26803757Y22859204D01*
X26832843Y22832843D01*
X26859204Y22803757D01*
X26882588Y22772228D01*
X26902769Y22738559D01*
X26919552Y22703073D01*
X26932776Y22666114D01*
X26942314Y22628036D01*
X26948074Y22589207D01*
G37*
M02*
