G04 F_Cu *
%FSLAX46Y46*%
%MOMM*%
%ADD10C,0.150000*%
%ADD11C,0.500000*%
%ADD12R,0.200000X0.800000*%
%ADD13R,0.300000X1.450000*%
%ADD14R,0.540000X0.640000*%
%ADD15R,0.560000X0.620000*%
%ADD16R,0.600000X1.450000*%
%ADD17R,0.600000X1.550000*%
%ADD18R,0.650000X2.000000*%
%ADD19R,0.700000X0.700000*%
%ADD20R,0.800000X0.200000*%
%ADD21R,1.200000X1.800000*%
%ADD22R,1.325000X0.600000*%
%ADD23R,1.400000X1.050000*%
%ADD24R,1.400000X1.200000*%
%ADD25R,1.950000X0.600000*%
%ADD26O,1.000000X2.100000*%
G01*
D10*
X4000000Y5000000D02*
X4800000Y5700000D01*
D10*
X4800000Y5700000D02*
X4800000Y10500000D01*
X5100000Y10500000D01*
X5100000Y17100000D01*
X25200000Y17100000D01*
X25200000Y17700000D01*
X30900000Y17700000D01*
X30900000Y18000000D01*
X31200000Y18000000D01*
X31200000Y18600000D01*
X33000000Y18600000D01*
X33000000Y18900000D01*
X33300000Y18900000D01*
X33300000Y19200000D01*
X34800000Y19200000D01*
X34800000Y19500000D01*
X35100000Y19500000D01*
X35100000Y20100000D01*
X35400000Y20100000D01*
X35400000Y20400000D01*
X35700000Y20400000D01*
X35700000Y24900000D01*
X32400000Y24900000D01*
X32400000Y27300000D01*
X32100000Y27300000D01*
X32100000Y29400000D01*
X23400000Y29400000D01*
X23400000Y29100000D01*
X23100000Y29100000D01*
X23100000Y21900000D01*
X23700000Y21900000D01*
X24550000Y22000000D01*
D10*
X44510000Y34000000D02*
X45300000Y33900000D01*
D10*
X45300000Y33900000D02*
X45300000Y34800000D01*
X41700000Y34800000D01*
X41700000Y36300000D01*
X41800000Y37275000D01*
D15*
X26504222Y19446557D03*
D15*
X27464222Y19446557D03*
D15*
X24070009Y28510000D03*
D15*
X25030009Y28510000D03*
D15*
X24070000Y19490000D03*
D15*
X25030000Y19490000D03*
D15*
X30326493Y28510000D03*
D15*
X31286493Y28510000D03*
D15*
X33931737Y23122389D03*
D15*
X34891737Y23122389D03*
D15*
X33288505Y20116432D03*
D15*
X34248505Y20116432D03*
D15*
X28506493Y28510000D03*
D15*
X29466493Y28510000D03*
D15*
X33305605Y27156465D03*
D15*
X34265605Y27156465D03*
D15*
X33959677Y24042389D03*
D15*
X34919677Y24042389D03*
D15*
X33945524Y21036432D03*
D15*
X34905524Y21036432D03*
D15*
X29373797Y18570000D03*
D15*
X30333797Y18570000D03*
D15*
X29648505Y19490000D03*
D15*
X30608505Y19490000D03*
D15*
X33948751Y21956432D03*
D15*
X34908751Y21956432D03*
D15*
X31468505Y19574951D03*
D15*
X32428505Y19574951D03*
D15*
X9520000Y18000000D03*
D15*
X10480000Y18000000D03*
D15*
X17520000Y18000000D03*
D15*
X18480000Y18000000D03*
D15*
X14520000Y33000000D03*
D15*
X15480000Y33000000D03*
D15*
X20520000Y33000000D03*
D15*
X21480000Y33000000D03*
D19*
X39085000Y13450000D03*
D19*
X39085000Y14550000D03*
D19*
X40915000Y14550000D03*
D19*
X40915000Y13450000D03*
D17*
X2000000Y5000000D03*
D17*
X3000000Y5000000D03*
D17*
X4000000Y5000000D03*
D21*
X700000Y8875000D03*
D17*
X52000000Y33000000D03*
D17*
X53000000Y33000000D03*
D17*
X54000000Y33000000D03*
D21*
X50700000Y36875000D03*
D16*
X24750000Y-1045000D03*
D16*
X25550000Y-1045000D03*
D13*
X26750000Y-1045000D03*
D13*
X27750000Y-1045000D03*
D13*
X28250000Y-1045000D03*
D13*
X29250000Y-1045000D03*
D16*
X30450000Y-1045000D03*
D16*
X31250000Y-1045000D03*
D16*
X31250000Y-1045000D03*
D16*
X30450000Y-1045000D03*
D13*
X29750000Y-1045000D03*
D13*
X28750000Y-1045000D03*
D13*
X27250000Y-1045000D03*
D13*
X26250000Y-1045000D03*
D16*
X25550000Y-1045000D03*
D16*
X24750000Y-1045000D03*
D26*
X23680000Y-130000D03*
D17*
X2000000Y12000000D03*
D17*
X3000000Y12000000D03*
D17*
X4000000Y12000000D03*
D21*
X700000Y15875000D03*
D17*
X2000000Y19000000D03*
D17*
X3000000Y19000000D03*
D17*
X4000000Y19000000D03*
D21*
X700000Y22875000D03*
D17*
X2000000Y26000000D03*
D17*
X3000000Y26000000D03*
D17*
X4000000Y26000000D03*
D21*
X700000Y29875000D03*
D17*
X2000000Y33000000D03*
D17*
X3000000Y33000000D03*
D17*
X4000000Y33000000D03*
D21*
X700000Y36875000D03*
D17*
X52000000Y5000000D03*
D17*
X53000000Y5000000D03*
D17*
X54000000Y5000000D03*
D21*
X50700000Y8875000D03*
D17*
X52000000Y12000000D03*
D17*
X53000000Y12000000D03*
D17*
X54000000Y12000000D03*
D21*
X50700000Y15875000D03*
D17*
X52000000Y19000000D03*
D17*
X53000000Y19000000D03*
D17*
X54000000Y19000000D03*
D21*
X50700000Y22875000D03*
D17*
X52000000Y26000000D03*
D17*
X53000000Y26000000D03*
D17*
X54000000Y26000000D03*
D21*
X50700000Y29875000D03*
D18*
X21325000Y14000000D03*
D18*
X22675000Y14000000D03*
D14*
X23490000Y18000000D03*
D14*
X24510000Y18000000D03*
D14*
X43490000Y34000000D03*
D14*
X44510000Y34000000D03*
D14*
X21490000Y5000000D03*
D14*
X22510000Y5000000D03*
D14*
X33490000Y5000000D03*
D14*
X34510000Y5000000D03*
D14*
X30490000Y8000000D03*
D14*
X31510000Y8000000D03*
D14*
X24490000Y8000000D03*
D14*
X25510000Y8000000D03*
D14*
X15490000Y27000000D03*
D14*
X16510000Y27000000D03*
D23*
X41800000Y37275000D03*
D23*
X38200000Y38725000D03*
D23*
X17800000Y37275000D03*
D23*
X14200000Y38725000D03*
D20*
X24550000Y21200000D03*
D20*
X24550000Y21600000D03*
D20*
X24550000Y22000000D03*
D20*
X24550000Y22400000D03*
D20*
X24550000Y22800000D03*
D20*
X24550000Y23200000D03*
D20*
X24550000Y23600000D03*
D20*
X24550000Y24000000D03*
D20*
X24550000Y24400000D03*
D20*
X24550000Y24800000D03*
D20*
X24550000Y25200000D03*
D20*
X24550000Y25600000D03*
D20*
X24550000Y26000000D03*
D20*
X24550000Y26400000D03*
D20*
X24550000Y26800000D03*
D12*
X25200000Y27450000D03*
D12*
X25600000Y27450000D03*
D12*
X26000000Y27450000D03*
D12*
X26400000Y27450000D03*
D12*
X26800000Y27450000D03*
D12*
X27200000Y27450000D03*
D12*
X27600000Y27450000D03*
D12*
X28000000Y27450000D03*
D12*
X28400000Y27450000D03*
D12*
X28800000Y27450000D03*
D12*
X29200000Y27450000D03*
D12*
X29600000Y27450000D03*
D12*
X30000000Y27450000D03*
D12*
X30400000Y27450000D03*
D12*
X30800000Y27450000D03*
D20*
X31450000Y26800000D03*
D20*
X31450000Y26400000D03*
D20*
X31450000Y26000000D03*
D20*
X31450000Y25600000D03*
D20*
X31450000Y25200000D03*
D20*
X31450000Y24800000D03*
D20*
X31450000Y24400000D03*
D20*
X31450000Y24000000D03*
D20*
X31450000Y23600000D03*
D20*
X31450000Y23200000D03*
D20*
X31450000Y22800000D03*
D20*
X31450000Y22400000D03*
D20*
X31450000Y22000000D03*
D20*
X31450000Y21600000D03*
D20*
X31450000Y21200000D03*
D12*
X30800000Y20550000D03*
D12*
X30400000Y20550000D03*
D12*
X30000000Y20550000D03*
D12*
X29600000Y20550000D03*
D12*
X29200000Y20550000D03*
D12*
X28800000Y20550000D03*
D12*
X28400000Y20550000D03*
D12*
X28000000Y20550000D03*
D12*
X27600000Y20550000D03*
D12*
X27200000Y20550000D03*
D12*
X26800000Y20550000D03*
D12*
X26400000Y20550000D03*
D12*
X26000000Y20550000D03*
D12*
X25600000Y20550000D03*
D12*
X25200000Y20550000D03*
D11*
X26550000Y22550000D03*
D25*
X35525000Y28095000D03*
D25*
X35525000Y29365000D03*
D25*
X35525000Y30635000D03*
D25*
X35525000Y31905000D03*
D25*
X40475000Y31905000D03*
D25*
X40475000Y30635000D03*
D25*
X40475000Y29365000D03*
D25*
X40475000Y28095000D03*
D22*
X12862500Y13050000D03*
D22*
X12862500Y14000000D03*
D22*
X12862500Y14950000D03*
D22*
X15137500Y14950000D03*
D22*
X15137500Y13050000D03*
D24*
X16900000Y30850000D03*
D24*
X19100000Y30850000D03*
D24*
X19100000Y29150000D03*
D24*
X16900000Y29150000D03*
M02*
