<?xml version="1.0" encoding="UTF-8"?>
<svg xmlns="http://www.w3.org/2000/svg" viewBox="-2.000000 -3.045000 60.000000 49.045000">
  <polygon class="outline-board" points="0.000000,42.955000 56.000000,42.955000 56.000000,-1.045000 0.000000,-1.045000" fill="none" stroke="black" stroke-width="0.1"/>
  <g class="component" data-id="C0">
    <circle class="pad" cx="26.295791" cy="23.766431" r="0.3"/>
    <circle class="pad" cx="27.255791" cy="23.766431" r="0.3"/>
    <circle class="origin" cx="26.775791" cy="23.766431" r="0.5" fill="red"/>
    <text x="26.775791" y="23.766431" font-size="1.5">C0</text>
  </g>
  <g class="component" data-id="C1">
    <circle class="pad" cx="24.070000" cy="14.295000" r="0.3"/>
    <circle class="pad" cx="25.030000" cy="14.295000" r="0.3"/>
    <circle class="origin" cx="24.550000" cy="14.295000" r="0.5" fill="red"/>
    <text x="24.550000" y="14.295000" font-size="1.5">C1</text>
  </g>
  <g class="component" data-id="C10">
    <circle class="pad" cx="24.070000" cy="23.615000" r="0.3"/>
    <circle class="pad" cx="25.030000" cy="23.615000" r="0.3"/>
    <circle class="origin" cx="24.550000" cy="23.615000" r="0.5" fill="red"/>
    <text x="24.550000" y="23.615000" font-size="1.5">C10</text>
  </g>
  <g class="component" data-id="C11">
    <circle class="pad" cx="30.265159" cy="14.295000" r="0.3"/>
    <circle class="pad" cx="31.225159" cy="14.295000" r="0.3"/>
    <circle class="origin" cx="30.745159" cy="14.295000" r="0.5" fill="red"/>
    <text x="30.745159" y="14.295000" font-size="1.5">C11</text>
  </g>
  <g class="component" data-id="C12">
    <circle class="pad" cx="33.914322" cy="19.515145" r="0.3"/>
    <circle class="pad" cx="34.874322" cy="19.515145" r="0.3"/>
    <circle class="origin" cx="34.394322" cy="19.515145" r="0.5" fill="red"/>
    <text x="34.394322" y="19.515145" font-size="1.5">C12</text>
  </g>
  <g class="component" data-id="C13">
    <circle class="pad" cx="33.103092" cy="23.525000" r="0.3"/>
    <circle class="pad" cx="34.063092" cy="23.525000" r="0.3"/>
    <circle class="origin" cx="33.583092" cy="23.525000" r="0.5" fill="red"/>
    <text x="33.583092" y="23.525000" font-size="1.5">C13</text>
  </g>
  <g class="component" data-id="C2">
    <circle class="pad" cx="28.245159" cy="14.295000" r="0.3"/>
    <circle class="pad" cx="29.205159" cy="14.295000" r="0.3"/>
    <circle class="origin" cx="28.725159" cy="14.295000" r="0.5" fill="red"/>
    <text x="28.725159" y="14.295000" font-size="1.5">C2</text>
  </g>
  <g class="component" data-id="C3">
    <circle class="pad" cx="33.296007" cy="15.883658" r="0.3"/>
    <circle class="pad" cx="34.256007" cy="15.883658" r="0.3"/>
    <circle class="origin" cx="33.776007" cy="15.883658" r="0.5" fill="red"/>
    <text x="33.776007" y="15.883658" font-size="1.5">C3</text>
  </g>
  <g class="component" data-id="C4">
    <circle class="pad" cx="33.917298" cy="18.395147" r="0.3"/>
    <circle class="pad" cx="34.877298" cy="18.395147" r="0.3"/>
    <circle class="origin" cx="34.397298" cy="18.395147" r="0.5" fill="red"/>
    <text x="34.397298" y="18.395147" font-size="1.5">C4</text>
  </g>
  <g class="component" data-id="C5">
    <circle class="pad" cx="34.055000" cy="21.755142" r="0.3"/>
    <circle class="pad" cx="35.015000" cy="21.755142" r="0.3"/>
    <circle class="origin" cx="34.535000" cy="21.755142" r="0.5" fill="red"/>
    <text x="34.535000" y="21.755142" font-size="1.5">C5</text>
  </g>
  <g class="component" data-id="C6">
    <circle class="pad" cx="29.009735" cy="24.735000" r="0.3"/>
    <circle class="pad" cx="29.969735" cy="24.735000" r="0.3"/>
    <circle class="origin" cx="29.489735" cy="24.735000" r="0.5" fill="red"/>
    <text x="29.489735" y="24.735000" font-size="1.5">C6</text>
  </g>
  <g class="component" data-id="C7">
    <circle class="pad" cx="29.983447" cy="23.615000" r="0.3"/>
    <circle class="pad" cx="30.943447" cy="23.615000" r="0.3"/>
    <circle class="origin" cx="30.463447" cy="23.615000" r="0.5" fill="red"/>
    <text x="30.463447" y="23.615000" font-size="1.5">C7</text>
  </g>
  <g class="component" data-id="C8">
    <circle class="pad" cx="33.882354" cy="20.635142" r="0.3"/>
    <circle class="pad" cx="34.842354" cy="20.635142" r="0.3"/>
    <circle class="origin" cx="34.362354" cy="20.635142" r="0.5" fill="red"/>
    <text x="34.362354" y="20.635142" font-size="1.5">C8</text>
  </g>
  <g class="component" data-id="C9">
    <circle class="pad" cx="32.630000" cy="22.405000" r="0.3"/>
    <circle class="pad" cx="33.590000" cy="22.405000" r="0.3"/>
    <circle class="origin" cx="33.110000" cy="22.405000" r="0.5" fill="red"/>
    <text x="33.110000" y="22.405000" font-size="1.5">C9</text>
  </g>
  <g class="component" data-id="C_IN">
    <circle class="pad" cx="9.520000" cy="24.955000" r="0.3"/>
    <circle class="pad" cx="10.480000" cy="24.955000" r="0.3"/>
    <circle class="origin" cx="10.000000" cy="24.955000" r="0.5" fill="red"/>
    <text x="10.000000" y="24.955000" font-size="1.5">C_IN</text>
  </g>
  <g class="component" data-id="C_OUT">
    <circle class="pad" cx="17.520000" cy="24.955000" r="0.3"/>
    <circle class="pad" cx="18.480000" cy="24.955000" r="0.3"/>
    <circle class="origin" cx="18.000000" cy="24.955000" r="0.5" fill="red"/>
    <text x="18.000000" y="24.955000" font-size="1.5">C_OUT</text>
  </g>
  <g class="component" data-id="C_X1">
    <circle class="pad" cx="14.520000" cy="9.955000" r="0.3"/>
    <circle class="pad" cx="15.480000" cy="9.955000" r="0.3"/>
    <circle class="origin" cx="15.000000" cy="9.955000" r="0.5" fill="red"/>
    <text x="15.000000" y="9.955000" font-size="1.5">C_X1</text>
  </g>
  <g class="component" data-id="C_X2">
    <circle class="pad" cx="20.520000" cy="9.955000" r="0.3"/>
    <circle class="pad" cx="21.480000" cy="9.955000" r="0.3"/>
    <circle class="origin" cx="21.000000" cy="9.955000" r="0.5" fill="red"/>
    <text x="21.000000" y="9.955000" font-size="1.5">C_X2</text>
  </g>
  <g class="component" data-id="D1">
    <circle class="pad" cx="39.085000" cy="29.505000" r="0.3"/>
    <circle class="pad" cx="39.085000" cy="28.405000" r="0.3"/>
    <circle class="pad" cx="40.915000" cy="28.405000" r="0.3"/>
    <circle class="pad" cx="40.915000" cy="29.505000" r="0.3"/>
    <circle class="origin" cx="40.000000" cy="28.955000" r="0.5" fill="red"/>
    <text x="40.000000" y="28.955000" font-size="1.5">D1</text>
  </g>
  <g class="component" data-id="J1">
    <circle class="pad" cx="2.000000" cy="37.955000" r="0.3"/>
    <circle class="pad" cx="3.000000" cy="37.955000" r="0.3"/>
    <circle class="pad" cx="4.000000" cy="37.955000" r="0.3"/>
    <circle class="pad" cx="0.700000" cy="34.080000" r="0.3"/>
    <circle class="origin" cx="3.000000" cy="35.955000" r="0.5" fill="red"/>
    <text x="3.000000" y="35.955000" font-size="1.5">J1</text>
  </g>
  <g class="component" data-id="J10">
    <circle class="pad" cx="52.000000" cy="9.955000" r="0.3"/>
    <circle class="pad" cx="53.000000" cy="9.955000" r="0.3"/>
    <circle class="pad" cx="54.000000" cy="9.955000" r="0.3"/>
    <circle class="pad" cx="50.700000" cy="6.080000" r="0.3"/>
    <circle class="origin" cx="53.000000" cy="7.955000" r="0.5" fill="red"/>
    <text x="53.000000" y="7.955000" font-size="1.5">J10</text>
  </g>
  <g class="component" data-id="J11">
    <circle class="pad" cx="24.750000" cy="44.000000" r="0.3"/>
    <circle class="pad" cx="25.550000" cy="44.000000" r="0.3"/>
    <circle class="pad" cx="26.750000" cy="44.000000" r="0.3"/>
    <circle class="pad" cx="27.750000" cy="44.000000" r="0.3"/>
    <circle class="pad" cx="28.250000" cy="44.000000" r="0.3"/>
    <circle class="pad" cx="29.250000" cy="44.000000" r="0.3"/>
    <circle class="pad" cx="30.450000" cy="44.000000" r="0.3"/>
    <circle class="pad" cx="31.250000" cy="44.000000" r="0.3"/>
    <circle class="pad" cx="31.250000" cy="44.000000" r="0.3"/>
    <circle class="pad" cx="30.450000" cy="44.000000" r="0.3"/>
    <circle class="pad" cx="29.750000" cy="44.000000" r="0.3"/>
    <circle class="pad" cx="28.750000" cy="44.000000" r="0.3"/>
    <circle class="pad" cx="27.250000" cy="44.000000" r="0.3"/>
    <circle class="pad" cx="26.250000" cy="44.000000" r="0.3"/>
    <circle class="pad" cx="25.550000" cy="44.000000" r="0.3"/>
    <circle class="pad" cx="24.750000" cy="44.000000" r="0.3"/>
    <circle class="pad" cx="23.680000" cy="43.085000" r="0.3"/>
    <circle class="origin" cx="28.000000" cy="39.955000" r="0.5" fill="red"/>
    <text x="28.000000" y="39.955000" font-size="1.5">J11</text>
  </g>
  <g class="component" data-id="J2">
    <circle class="pad" cx="2.000000" cy="30.955000" r="0.3"/>
    <circle class="pad" cx="3.000000" cy="30.955000" r="0.3"/>
    <circle class="pad" cx="4.000000" cy="30.955000" r="0.3"/>
    <circle class="pad" cx="0.700000" cy="27.080000" r="0.3"/>
    <circle class="origin" cx="3.000000" cy="28.955000" r="0.5" fill="red"/>
    <text x="3.000000" y="28.955000" font-size="1.5">J2</text>
  </g>
  <g class="component" data-id="J3">
    <circle class="pad" cx="2.000000" cy="23.955000" r="0.3"/>
    <circle class="pad" cx="3.000000" cy="23.955000" r="0.3"/>
    <circle class="pad" cx="4.000000" cy="23.955000" r="0.3"/>
    <circle class="pad" cx="0.700000" cy="20.080000" r="0.3"/>
    <circle class="origin" cx="3.000000" cy="21.955000" r="0.5" fill="red"/>
    <text x="3.000000" y="21.955000" font-size="1.5">J3</text>
  </g>
  <g class="component" data-id="J4">
    <circle class="pad" cx="2.000000" cy="16.955000" r="0.3"/>
    <circle class="pad" cx="3.000000" cy="16.955000" r="0.3"/>
    <circle class="pad" cx="4.000000" cy="16.955000" r="0.3"/>
    <circle class="pad" cx="0.700000" cy="13.080000" r="0.3"/>
    <circle class="origin" cx="3.000000" cy="14.955000" r="0.5" fill="red"/>
    <text x="3.000000" y="14.955000" font-size="1.5">J4</text>
  </g>
  <g class="component" data-id="J5">
    <circle class="pad" cx="2.000000" cy="9.955000" r="0.3"/>
    <circle class="pad" cx="3.000000" cy="9.955000" r="0.3"/>
    <circle class="pad" cx="4.000000" cy="9.955000" r="0.3"/>
    <circle class="pad" cx="0.700000" cy="6.080000" r="0.3"/>
    <circle class="origin" cx="3.000000" cy="7.955000" r="0.5" fill="red"/>
    <text x="3.000000" y="7.955000" font-size="1.5">J5</text>
  </g>
  <g class="component" data-id="J6">
    <circle class="pad" cx="52.000000" cy="37.955000" r="0.3"/>
    <circle class="pad" cx="53.000000" cy="37.955000" r="0.3"/>
    <circle class="pad" cx="54.000000" cy="37.955000" r="0.3"/>
    <circle class="pad" cx="50.700000" cy="34.080000" r="0.3"/>
    <circle class="origin" cx="53.000000" cy="35.955000" r="0.5" fill="red"/>
    <text x="53.000000" y="35.955000" font-size="1.5">J6</text>
  </g>
  <g class="component" data-id="J7">
    <circle class="pad" cx="52.000000" cy="30.955000" r="0.3"/>
    <circle class="pad" cx="53.000000" cy="30.955000" r="0.3"/>
    <circle class="pad" cx="54.000000" cy="30.955000" r="0.3"/>
    <circle class="pad" cx="50.700000" cy="27.080000" r="0.3"/>
    <circle class="origin" cx="53.000000" cy="28.955000" r="0.5" fill="red"/>
    <text x="53.000000" y="28.955000" font-size="1.5">J7</text>
  </g>
  <g class="component" data-id="J8">
    <circle class="pad" cx="52.000000" cy="23.955000" r="0.3"/>
    <circle class="pad" cx="53.000000" cy="23.955000" r="0.3"/>
    <circle class="pad" cx="54.000000" cy="23.955000" r="0.3"/>
    <circle class="pad" cx="50.700000" cy="20.080000" r="0.3"/>
    <circle class="origin" cx="53.000000" cy="21.955000" r="0.5" fill="red"/>
    <text x="53.000000" y="21.955000" font-size="1.5">J8</text>
  </g>
  <g class="component" data-id="J9">
    <circle class="pad" cx="52.000000" cy="16.955000" r="0.3"/>
    <circle class="pad" cx="53.000000" cy="16.955000" r="0.3"/>
    <circle class="pad" cx="54.000000" cy="16.955000" r="0.3"/>
    <circle class="pad" cx="50.700000" cy="13.080000" r="0.3"/>
    <circle class="origin" cx="53.000000" cy="14.955000" r="0.5" fill="red"/>
    <text x="53.000000" y="14.955000" font-size="1.5">J9</text>
  </g>
  <g class="component" data-id="L1">
    <circle class="pad" cx="21.325000" cy="28.955000" r="0.3"/>
    <circle class="pad" cx="22.675000" cy="28.955000" r="0.3"/>
    <circle class="origin" cx="22.000000" cy="28.955000" r="0.5" fill="red"/>
    <text x="22.000000" y="28.955000" font-size="1.5">L1</text>
  </g>
  <g class="component" data-id="R_AVDD">
    <circle class="pad" cx="23.490000" cy="24.955000" r="0.3"/>
    <circle class="pad" cx="24.510000" cy="24.955000" r="0.3"/>
    <circle class="origin" cx="24.000000" cy="24.955000" r="0.5" fill="red"/>
    <text x="24.000000" y="24.955000" font-size="1.5">R_AVDD</text>
  </g>
  <g class="component" data-id="R_BOOT">
    <circle class="pad" cx="43.490000" cy="8.955000" r="0.3"/>
    <circle class="pad" cx="44.510000" cy="8.955000" r="0.3"/>
    <circle class="origin" cx="44.000000" cy="8.955000" r="0.5" fill="red"/>
    <text x="44.000000" y="8.955000" font-size="1.5">R_BOOT</text>
  </g>
  <g class="component" data-id="R_CC1">
    <circle class="pad" cx="21.390000" cy="37.955000" r="0.3"/>
    <circle class="pad" cx="22.410000" cy="37.955000" r="0.3"/>
    <circle class="origin" cx="21.900000" cy="37.955000" r="0.5" fill="red"/>
    <text x="21.900000" y="37.955000" font-size="1.5">R_CC1</text>
  </g>
  <g class="component" data-id="R_CC2">
    <circle class="pad" cx="33.590000" cy="37.955000" r="0.3"/>
    <circle class="pad" cx="34.610000" cy="37.955000" r="0.3"/>
    <circle class="origin" cx="34.100000" cy="37.955000" r="0.5" fill="red"/>
    <text x="34.100000" y="37.955000" font-size="1.5">R_CC2</text>
  </g>
  <g class="component" data-id="R_DM">
    <circle class="pad" cx="30.490000" cy="34.365000" r="0.3"/>
    <circle class="pad" cx="31.510000" cy="34.365000" r="0.3"/>
    <circle class="origin" cx="31.000000" cy="34.365000" r="0.5" fill="red"/>
    <text x="31.000000" y="34.365000" font-size="1.5">R_DM</text>
  </g>
  <g class="component" data-id="R_DP">
    <circle class="pad" cx="24.490000" cy="34.365000" r="0.3"/>
    <circle class="pad" cx="25.510000" cy="34.365000" r="0.3"/>
    <circle class="origin" cx="25.000000" cy="34.365000" r="0.5" fill="red"/>
    <text x="25.000000" y="34.365000" font-size="1.5">R_DP</text>
  </g>
  <g class="component" data-id="R_X">
    <circle class="pad" cx="15.490000" cy="15.955000" r="0.3"/>
    <circle class="pad" cx="16.510000" cy="15.955000" r="0.3"/>
    <circle class="origin" cx="16.000000" cy="15.955000" r="0.5" fill="red"/>
    <text x="16.000000" y="15.955000" font-size="1.5">R_X</text>
  </g>
  <g class="component" data-id="SW1">
    <circle class="pad" cx="41.800000" cy="5.680000" r="0.3"/>
    <circle class="pad" cx="38.200000" cy="4.230000" r="0.3"/>
    <circle class="origin" cx="40.000000" cy="4.955000" r="0.5" fill="red"/>
    <text x="40.000000" y="4.955000" font-size="1.5">SW1</text>
  </g>
  <g class="component" data-id="SW2">
    <circle class="pad" cx="17.800000" cy="5.680000" r="0.3"/>
    <circle class="pad" cx="14.200000" cy="4.230000" r="0.3"/>
    <circle class="origin" cx="16.000000" cy="4.955000" r="0.5" fill="red"/>
    <text x="16.000000" y="4.955000" font-size="1.5">SW2</text>
  </g>
  <g class="component" data-id="U1">
    <circle class="pad" cx="24.550000" cy="21.755000" r="0.3"/>
    <circle class="pad" cx="24.550000" cy="21.355000" r="0.3"/>
    <circle class="pad" cx="24.550000" cy="20.955000" r="0.3"/>
    <circle class="pad" cx="24.550000" cy="20.555000" r="0.3"/>
    <circle class="pad" cx="24.550000" cy="20.155000" r="0.3"/>
    <circle class="pad" cx="24.550000" cy="19.755000" r="0.3"/>
    <circle class="pad" cx="24.550000" cy="19.355000" r="0.3"/>
    <circle class="pad" cx="24.550000" cy="18.955000" r="0.3"/>
    <circle class="pad" cx="24.550000" cy="18.555000" r="0.3"/>
    <circle class="pad" cx="24.550000" cy="18.155000" r="0.3"/>
    <circle class="pad" cx="24.550000" cy="17.755000" r="0.3"/>
    <circle class="pad" cx="24.550000" cy="17.355000" r="0.3"/>
    <circle class="pad" cx="24.550000" cy="16.955000" r="0.3"/>
    <circle class="pad" cx="24.550000" cy="16.555000" r="0.3"/>
    <circle class="pad" cx="24.550000" cy="16.155000" r="0.3"/>
    <circle class="pad" cx="25.200000" cy="15.505000" r="0.3"/>
    <circle class="pad" cx="25.600000" cy="15.505000" r="0.3"/>
    <circle class="pad" cx="26.000000" cy="15.505000" r="0.3"/>
    <circle class="pad" cx="26.400000" cy="15.505000" r="0.3"/>
    <circle class="pad" cx="26.800000" cy="15.505000" r="0.3"/>
    <circle class="pad" cx="27.200000" cy="15.505000" r="0.3"/>
    <circle class="pad" cx="27.600000" cy="15.505000" r="0.3"/>
    <circle class="pad" cx="28.000000" cy="15.505000" r="0.3"/>
    <circle class="pad" cx="28.400000" cy="15.505000" r="0.3"/>
    <circle class="pad" cx="28.800000" cy="15.505000" r="0.3"/>
    <circle class="pad" cx="29.200000" cy="15.505000" r="0.3"/>
    <circle class="pad" cx="29.600000" cy="15.505000" r="0.3"/>
    <circle class="pad" cx="30.000000" cy="15.505000" r="0.3"/>
    <circle class="pad" cx="30.400000" cy="15.505000" r="0.3"/>
    <circle class="pad" cx="30.800000" cy="15.505000" r="0.3"/>
    <circle class="pad" cx="31.450000" cy="16.155000" r="0.3"/>
    <circle class="pad" cx="31.450000" cy="16.555000" r="0.3"/>
    <circle class="pad" cx="31.450000" cy="16.955000" r="0.3"/>
    <circle class="pad" cx="31.450000" cy="17.355000" r="0.3"/>
    <circle class="pad" cx="31.450000" cy="17.755000" r="0.3"/>
    <circle class="pad" cx="31.450000" cy="18.155000" r="0.3"/>
    <circle class="pad" cx="31.450000" cy="18.555000" r="0.3"/>
    <circle class="pad" cx="31.450000" cy="18.955000" r="0.3"/>
    <circle class="pad" cx="31.450000" cy="19.355000" r="0.3"/>
    <circle class="pad" cx="31.450000" cy="19.755000" r="0.3"/>
    <circle class="pad" cx="31.450000" cy="20.155000" r="0.3"/>
    <circle class="pad" cx="31.450000" cy="20.555000" r="0.3"/>
    <circle class="pad" cx="31.450000" cy="20.955000" r="0.3"/>
    <circle class="pad" cx="31.450000" cy="21.355000" r="0.3"/>
    <circle class="pad" cx="31.450000" cy="21.755000" r="0.3"/>
    <circle class="pad" cx="30.800000" cy="22.405000" r="0.3"/>
    <circle class="pad" cx="30.400000" cy="22.405000" r="0.3"/>
    <circle class="pad" cx="30.000000" cy="22.405000" r="0.3"/>
    <circle class="pad" cx="29.600000" cy="22.405000" r="0.3"/>
    <circle class="pad" cx="29.200000" cy="22.405000" r="0.3"/>
    <circle class="pad" cx="28.800000" cy="22.405000" r="0.3"/>
    <circle class="pad" cx="28.400000" cy="22.405000" r="0.3"/>
    <circle class="pad" cx="28.000000" cy="22.405000" r="0.3"/>
    <circle class="pad" cx="27.600000" cy="22.405000" r="0.3"/>
    <circle class="pad" cx="27.200000" cy="22.405000" r="0.3"/>
    <circle class="pad" cx="26.800000" cy="22.405000" r="0.3"/>
    <circle class="pad" cx="26.400000" cy="22.405000" r="0.3"/>
    <circle class="pad" cx="26.000000" cy="22.405000" r="0.3"/>
    <circle class="pad" cx="25.600000" cy="22.405000" r="0.3"/>
    <circle class="pad" cx="25.200000" cy="22.405000" r="0.3"/>
    <circle class="pad" cx="26.550000" cy="20.405000" r="0.3"/>
    <circle class="origin" cx="28.000000" cy="18.955000" r="0.5" fill="red"/>
    <text x="28.000000" y="18.955000" font-size="1.5">U1</text>
  </g>
  <g class="component" data-id="U2">
    <circle class="pad" cx="35.525000" cy="14.773658" r="0.3"/>
    <circle class="pad" cx="35.525000" cy="13.503658" r="0.3"/>
    <circle class="pad" cx="35.525000" cy="12.233658" r="0.3"/>
    <circle class="pad" cx="35.525000" cy="10.963658" r="0.3"/>
    <circle class="pad" cx="40.475000" cy="10.963658" r="0.3"/>
    <circle class="pad" cx="40.475000" cy="12.233658" r="0.3"/>
    <circle class="pad" cx="40.475000" cy="13.503658" r="0.3"/>
    <circle class="pad" cx="40.475000" cy="14.773658" r="0.3"/>
    <circle class="origin" cx="38.000000" cy="12.868658" r="0.5" fill="red"/>
    <text x="38.000000" y="12.868658" font-size="1.5">U2</text>
  </g>
  <g class="component" data-id="U3">
    <circle class="pad" cx="12.862500" cy="29.905000" r="0.3"/>
    <circle class="pad" cx="12.862500" cy="28.955000" r="0.3"/>
    <circle class="pad" cx="12.862500" cy="28.005000" r="0.3"/>
    <circle class="pad" cx="15.137500" cy="28.005000" r="0.3"/>
    <circle class="pad" cx="15.137500" cy="29.905000" r="0.3"/>
    <circle class="origin" cx="14.000000" cy="28.955000" r="0.5" fill="red"/>
    <text x="14.000000" y="28.955000" font-size="1.5">U3</text>
  </g>
  <g class="component" data-id="Y1">
    <circle class="pad" cx="16.900000" cy="12.105000" r="0.3"/>
    <circle class="pad" cx="19.100000" cy="12.105000" r="0.3"/>
    <circle class="pad" cx="19.100000" cy="13.805000" r="0.3"/>
    <circle class="pad" cx="16.900000" cy="13.805000" r="0.3"/>
    <circle class="origin" cx="18.000000" cy="12.955000" r="0.5" fill="red"/>
    <text x="18.000000" y="12.955000" font-size="1.5">Y1</text>
  </g>
  <polyline class="trace trace-top" data-id="t26" points="24.070000,23.615000 23.850000,23.605000" fill="none" stroke="#cc0000" stroke-width="0.150000" stroke-linecap="round" stroke-linejoin="round"/>
  <polyline class="trace trace-bottom" data-id="t27" points="23.850000,23.605000 23.850000,15.055000 23.400000,15.055000 23.400000,13.705000 29.700000,13.705000 29.700000,14.155000 30.150000,14.155000 30.265159,14.295000" fill="none" stroke="#0066cc" stroke-width="0.150000" stroke-linecap="round" stroke-linejoin="round"/>
  <polyline class="trace trace-bottom" data-id="t28" points="30.150000,14.155000 30.150000,15.055000 31.500000,15.055000 31.500000,15.505000 31.950000,15.505000 31.950000,19.555000 33.750000,19.555000 33.914322,19.515145" fill="none" stroke="#0066cc" stroke-width="0.150000" stroke-linecap="round" stroke-linejoin="round"/>
  <polyline class="trace trace-bottom" data-id="t29" points="23.850000,23.605000 22.500000,23.605000 22.500000,29.005000 22.675000,28.955000" fill="none" stroke="#0066cc" stroke-width="0.150000" stroke-linecap="round" stroke-linejoin="round"/>
  <polyline class="trace trace-bottom" data-id="t30" points="30.150000,15.055000 28.350000,15.055000 28.350000,15.505000 28.000000,15.505000" fill="none" stroke="#0066cc" stroke-width="0.150000" stroke-linecap="round" stroke-linejoin="round"/>
  <polyline class="trace trace-bottom" data-id="t31" points="31.950000,19.555000 31.500000,19.555000 31.450000,19.355000" fill="none" stroke="#0066cc" stroke-width="0.150000" stroke-linecap="round" stroke-linejoin="round"/>
  <polyline class="trace trace-bottom" data-id="t32" points="23.850000,23.155000 29.250000,23.155000 29.250000,22.705000 29.200000,22.405000" fill="none" stroke="#0066cc" stroke-width="0.150000" stroke-linecap="round" stroke-linejoin="round"/>
  <polyline class="trace trace-bottom" data-id="t33" points="31.500000,19.555000 25.200000,19.555000 24.550000,19.755000" fill="none" stroke="#0066cc" stroke-width="0.150000" stroke-linecap="round" stroke-linejoin="round"/>
  <polyline class="trace trace-top" data-id="t38" points="44.510000,8.955000 44.550000,8.755000" fill="none" stroke="#cc0000" stroke-width="0.150000" stroke-linecap="round" stroke-linejoin="round"/>
  <polyline class="trace trace-top" data-id="t39" points="44.550000,8.755000 44.100000,8.755000 44.100000,8.305000 41.850000,8.305000 41.850000,5.605000 41.800000,5.680000" fill="none" stroke="#cc0000" stroke-width="0.150000" stroke-linecap="round" stroke-linejoin="round"/>
  <polyline class="trace trace-top" data-id="t50" points="29.750000,44.000000 29.700000,42.955000" fill="none" stroke="#cc0000" stroke-width="0.150000" stroke-linecap="round" stroke-linejoin="round"/>
  <polyline class="trace trace-top" data-id="t51" points="29.700000,42.955000 29.700000,38.005000 33.750000,38.005000 33.590000,37.955000" fill="none" stroke="#cc0000" stroke-width="0.150000" stroke-linecap="round" stroke-linejoin="round"/>
  <polyline class="trace trace-top" data-id="t100" points="33.103092,23.525000 33.300000,23.605000" fill="none" stroke="#cc0000" stroke-width="0.150000" stroke-linecap="round" stroke-linejoin="round"/>
  <polyline class="trace trace-top" data-id="t101" points="33.300000,23.605000 32.400000,23.605000 32.400000,24.955000 31.500000,24.955000" fill="none" stroke="#cc0000" stroke-width="0.150000" stroke-linecap="round" stroke-linejoin="round"/>
  <polyline class="trace trace-bottom" data-id="t102" points="31.500000,24.955000 31.050000,24.955000 31.050000,25.855000 26.100000,25.855000" fill="none" stroke="#0066cc" stroke-width="0.150000" stroke-linecap="round" stroke-linejoin="round"/>
  <polyline class="trace trace-top" data-id="t103" points="26.100000,25.855000 22.950000,25.855000" fill="none" stroke="#cc0000" stroke-width="0.150000" stroke-linecap="round" stroke-linejoin="round"/>
  <polyline class="trace trace-bottom" data-id="t104" points="22.950000,25.855000 22.950000,24.505000 24.300000,24.505000 24.300000,24.955000 24.510000,24.955000" fill="none" stroke="#0066cc" stroke-width="0.150000" stroke-linecap="round" stroke-linejoin="round"/>
  <polyline class="trace trace-top" data-id="t105" points="32.400000,23.605000 32.400000,23.155000 31.950000,23.155000 31.950000,22.705000" fill="none" stroke="#cc0000" stroke-width="0.150000" stroke-linecap="round" stroke-linejoin="round"/>
  <polyline class="trace trace-bottom" data-id="t106" points="31.950000,22.705000 31.050000,22.705000 31.050000,22.255000 30.800000,22.405000" fill="none" stroke="#0066cc" stroke-width="0.150000" stroke-linecap="round" stroke-linejoin="round"/>
  <circle class="via" data-id="v1" cx="23.850000" cy="23.605000" r="0.150000" fill="#333"/>
  <circle class="via" data-id="v14" cx="31.500000" cy="24.955000" r="0.150000" fill="#333"/>
  <circle class="via" data-id="v15" cx="26.100000" cy="25.855000" r="0.150000" fill="#333"/>
  <circle class="via" data-id="v16" cx="22.950000" cy="25.855000" r="0.150000" fill="#333"/>
  <circle class="via" data-id="v17" cx="31.950000" cy="22.705000" r="0.150000" fill="#333"/>
</svg>
