M48
; Excellon drill: plated through holes (via drills)
FMAT,2
METRIC,TZ
T1C0.150000
%
T1
X28.800000Y26.550000
X26.550000Y23.400000
X23.400000Y21.600000
X33.300000Y19.800000
X4.050000Y13.500000
X25.200000Y23.850000
X4.050000Y12.600000
X32.400000Y23.400000
X28.800000Y23.850000
X25.650000Y24.300000
X27.000000Y0.000000
X41.400000Y26.100000
X29.700000Y28.350000
X41.400000Y26.550000
X32.850000Y27.450000
X22.950000Y22.050000
X36.000000Y29.700000
X23.850000Y19.350000
X22.950000Y19.350000
X22.050000Y20.700000
X23.850000Y28.800000
X26.100000Y28.350000
X14.850000Y13.950000
X16.200000Y13.950000
X27.900000Y0.450000
X18.450000Y30.150000
T0
M30
